<?xml version="1.0" encoding="utf-8"?>
<!-- Generator: Adobe Illustrator 26.4.0, SVG Export Plug-In . SVG Version: 6.00 Build 0)  -->
<svg version="1.1" id="Layer_1" xmlns="http://www.w3.org/2000/svg" xmlns:xlink="http://www.w3.org/1999/xlink" x="0px" y="0px"
	 viewBox="0 0 2000 1206" style="enable-background:new 0 0 2000 1206;" xml:space="preserve">
<style type="text/css">
	.st0{fill:none;stroke:#FFFFFF;stroke-width:18.0738;stroke-linecap:square;stroke-linejoin:round;stroke-miterlimit:10;}
	.st1{fill:none;stroke:#3FA9F5;stroke-width:33.5161;stroke-miterlimit:10;}
	.st2{fill:#21B580;}
	.st3{fill:#6CC7E2;}
	.st4{fill:#FFFFFF;}
	.st5{fill:none;stroke:#FFFFFF;stroke-width:18.0738;stroke-linecap:square;stroke-miterlimit:10;}
	.st6{fill:none;stroke:#FFFFFF;stroke-width:10.8443;stroke-miterlimit:10;}
	.st7{fill:none;stroke:#FFFFFF;stroke-width:6.9982;stroke-linecap:square;stroke-linejoin:round;stroke-miterlimit:10;}
	.st8{fill:#B3B3B3;}
	.st9{fill:#FFFFFF;stroke:#FFFFFF;stroke-width:7.2295;stroke-linecap:round;stroke-linejoin:round;stroke-miterlimit:10;}
	.st10{fill:#FFFFFF;stroke:#FFFFFF;stroke-width:3.6148;stroke-miterlimit:10;}
	.st11{fill:#F2F2F2;}
	.st12{fill:none;stroke:#CCCCCC;stroke-width:3.6148;stroke-miterlimit:10;}
	.st13{opacity:0.8;}
	.st14{clip-path:url(#SVGID_00000081650114872276230540000002028430801661505952_);fill:#F4C700;}
	.st15{clip-path:url(#SVGID_00000040570324120281080190000014596507061796943537_);fill:#1B1440;}
	.st16{fill:none;stroke:#F2F2F2;stroke-width:10.8443;stroke-miterlimit:10;}
	.st17{clip-path:url(#SVGID_00000070811463419721804190000015552921320153959319_);fill:#1B1440;}
	.st18{fill:#1C7568;}
</style>
<path class="st0" d="M187.2,486h75c40.9,0,86.6-56.4,101.4-124.3c14.8-67.9,38.6-66.5,52.8,3.6L444,501.5
	c14.2,70.1,40.2,70.6,57.7,1.3l16.2-64.3c17.5-69.4,38.4-87.4,46.3-40.2c7.9,47.3,31.2,85.9,51.6,85.8c20.4-0.1,36.9,0.7,36.9,0.7"
	/>
<path class="st1" d="M941.3,739.5c43.2-11.1,93.6-11.1,136.8,0"/>
<path class="st2" d="M1340.3,487.9c0,185.8-152.7,336.3-341,336.3c-188.3,0-341-150.6-341-336.3"/>
<path class="st3" d="M953.2,487.8c0,0-207.5,63.6-120.9,99.5c86.6,35.9,46.9,129.5-76.1,118.9c-68.4-5.9,29.7,70.5,129.7,109.2
	c79.9,31,154,21.8,154,21.8l140.2-50.4l109.4-103.1c0,0,17.8-74.5-194.6-97.8c-197.9-21.7-179.5-43.6-142.5-63.1
	c36.9-19.5,58.7-35.1,58.7-35.1H953.2z"/>
<g>
	<path class="st4" d="M342.6,1116.3V969l-60.8,111.6h-17.9L202.8,969v147.3h-32.3V911.6h34.6l67.7,125.1l67.7-125.1h34.6v204.7
		H342.6z"/>
	<path class="st4" d="M549.2,1117.7c-14.6,0-27.9-2.9-39.9-8.8c-12-5.9-22.3-13.6-31-23.3c-8.6-9.7-15.3-20.8-20-33.3
		c-4.7-12.5-7.1-25.3-7.1-38.3c0-13.6,2.5-26.7,7.5-39.2c5-12.5,11.9-23.5,20.6-33.1c8.7-9.6,19.1-17.2,31.1-22.9
		c12-5.7,25.1-8.5,39.3-8.5c14.6,0,27.9,3,39.9,9.1c12,6.1,22.3,14,30.8,23.8c8.5,9.8,15.2,20.9,19.9,33.3c4.7,12.4,7.1,25,7.1,37.9
		c0,13.6-2.5,26.7-7.4,39.2c-4.9,12.5-11.8,23.5-20.6,33c-8.8,9.5-19.3,17.1-31.3,22.8C576.3,1114.9,563.3,1117.7,549.2,1117.7z
		 M484.1,1013.9c0,9.6,1.5,18.9,4.6,28c3.1,9,7.4,17,13.1,23.9c5.7,6.9,12.5,12.4,20.6,16.6c8.1,4.1,17.1,6.2,27.1,6.2
		c10.4,0,19.6-2.2,27.5-6.5c8-4.3,14.7-10,20.3-17.2c5.6-7.1,9.8-15.1,12.7-23.9c2.9-8.8,4.3-17.9,4.3-27.1c0-9.8-1.5-19.2-4.6-28.1
		c-3.1-8.9-7.4-16.8-13.1-23.6c-5.7-6.8-12.5-12.3-20.5-16.4c-8-4.1-16.9-6.2-26.7-6.2c-10.4,0-19.6,2.2-27.7,6.5
		c-8.1,4.3-14.9,9.9-20.5,16.9c-5.6,6.9-9.9,14.8-12.8,23.8C485.6,995.6,484.1,1004.7,484.1,1013.9z"/>
	<path class="st4" d="M756.5,972.1v144.1h-32.3V911.6h25.4l117,147.6V911.9h32.6v204.4h-26.8L756.5,972.1z"/>
	<path class="st4" d="M1073.3,1117.7c-14.6,0-27.9-2.9-39.9-8.8c-12-5.9-22.3-13.6-31-23.3c-8.6-9.7-15.3-20.8-20-33.3
		c-4.7-12.5-7.1-25.3-7.1-38.3c0-13.6,2.5-26.7,7.5-39.2c5-12.5,11.9-23.5,20.6-33.1c8.7-9.6,19.1-17.2,31.1-22.9
		c12-5.7,25.1-8.5,39.3-8.5c14.6,0,27.9,3,39.9,9.1c12,6.1,22.3,14,30.8,23.8c8.5,9.8,15.2,20.9,19.9,33.3c4.7,12.4,7.1,25,7.1,37.9
		c0,13.6-2.5,26.7-7.4,39.2c-4.9,12.5-11.8,23.5-20.6,33c-8.8,9.5-19.3,17.1-31.3,22.8C1100.3,1114.9,1087.3,1117.7,1073.3,1117.7z
		 M1008.1,1013.9c0,9.6,1.5,18.9,4.6,28c3.1,9,7.4,17,13.1,23.9c5.7,6.9,12.5,12.4,20.6,16.6c8.1,4.1,17.1,6.2,27.1,6.2
		c10.4,0,19.6-2.2,27.5-6.5c8-4.3,14.7-10,20.3-17.2c5.6-7.1,9.8-15.1,12.7-23.9c2.9-8.8,4.3-17.9,4.3-27.1c0-9.8-1.5-19.2-4.6-28.1
		c-3.1-8.9-7.5-16.8-13.1-23.6c-5.7-6.8-12.5-12.3-20.5-16.4c-8-4.1-16.9-6.2-26.7-6.2c-10.4,0-19.6,2.2-27.7,6.5
		c-8.1,4.3-14.9,9.9-20.5,16.9c-5.6,6.9-9.8,14.8-12.8,23.8C1009.6,995.6,1008.1,1004.7,1008.1,1013.9z"/>
	<path class="st4" d="M1235.3,1012.5c0-12.3,2.2-24.5,6.6-36.8c4.4-12.2,10.9-23.2,19.5-32.9c8.5-9.7,19-17.5,31.3-23.5
		c12.3-6,26.2-8.9,41.8-8.9c18.6,0,34.6,4.1,47.8,12.4c13.3,8.3,23.2,19,30,32.3l-25.4,17c-2.9-6.1-6.3-11.3-10.4-15.6
		c-4-4.2-8.5-7.6-13.3-10.1c-4.8-2.5-9.8-4.3-15-5.3c-5.2-1.1-10.2-1.6-15-1.6c-10.8,0-20.2,2.2-28.2,6.5
		c-8.1,4.3-14.8,10-20.3,17.2c-5.5,7.1-9.6,15.1-12.4,23.9c-2.8,8.8-4.2,17.7-4.2,26.5c0,10,1.6,19.5,4.9,28.5
		c3.3,9,7.8,17,13.7,23.9c5.9,6.9,12.8,12.4,20.9,16.6c8.1,4.1,16.9,6.2,26.5,6.2c5,0,10.1-0.6,15.4-1.9c5.3-1.2,10.4-3.3,15.3-6.1
		c4.9-2.8,9.4-6.3,13.5-10.5c4.1-4.2,7.5-9.3,10.2-15.3l26.8,15.3c-3.3,7.7-7.9,14.5-13.8,20.3c-6,5.9-12.7,10.8-20.2,14.8
		c-7.5,4-15.4,7.1-23.8,9.2s-16.6,3.2-24.6,3.2c-14.4,0-27.6-3.1-39.5-9.2c-11.9-6.1-22.2-14.2-30.8-24.1
		c-8.6-9.9-15.4-21.1-20.2-33.7C1237.7,1038.4,1235.3,1025.6,1235.3,1012.5z"/>
	<path class="st4" d="M1488.6,1116.3V911.6h32.3v176.1h109.8v28.5H1488.6z"/>
	<path class="st4" d="M1840.6,1087.7v28.5h-140.4V911.6H1838v28.5h-105.5v58.2h91.4v26.8h-91.4v62.6H1840.6z"/>
</g>
<path class="st0" d="M1813.8,486h-75.7c-40.9,0-86.6-54.7-101.4-122.6c-14.8-67.9-38.6-65.6-52.8,4.5l-27.6,136.6
	c-14.2,70.1-40.2,70.8-57.7,1.5l-16.2-64.2c-17.5-69.4-38.4-87.4-46.3-40.1c-7.9,47.3-31.2,85.9-51.6,85.8c-20.4-0.1-36.5-1-36.5-1"
	/>
<path class="st5" d="M954.7,163.9C789.4,186.1,661.9,327.7,661.9,499c0,186.8,151.4,338.2,338.2,338.2
	c186.8,0,338.2-151.4,338.2-338.2c0-164.8-117.9-302.1-274-332.1"/>
<path class="st4" d="M1036.1,163.5c0,14.5-11.7,26.2-26.2,26.2c-14.5,0-26.2-11.7-26.2-26.2c0-14.5,11.7-26.2,26.2-26.2
	C1024.4,137.3,1036.1,149.1,1036.1,163.5"/>
<line class="st6" x1="1009.5" y1="242" x2="1009.5" y2="202.2"/>
<path class="st7" d="M967.7,259.1c17.5,22,62.3,22,79.8,0"/>
<path class="st7" d="M935.9,281c31.4,39.6,112,39.6,143.4,0"/>
<line class="st6" x1="1009.5" y1="119.1" x2="1009.5" y2="79.3"/>
<rect x="1076.4" y="390.2" class="st4" width="10.8" height="18.1"/>
<path class="st4" d="M1068,384.6c-7.7,0-34.5-1.5-34.5-3.3c0-1.8,26.8-3.3,34.5-3.3c7.7,0,13.9,1.5,13.9,3.3
	C1081.9,383.1,1075.6,384.6,1068,384.6"/>
<path class="st4" d="M1099.8,378c7.7,0,34.5,1.5,34.5,3.3c0,1.8-26.8,3.3-34.5,3.3c-7.7,0-13.9-1.5-13.9-3.3
	C1085.9,379.5,1092.1,378,1099.8,378"/>
<rect x="928.2" y="390.2" class="st4" width="10.8" height="18.1"/>
<polygon class="st4" points="1026.9,408.9 1034.5,405.8 1064.4,445.8 1056.8,448.9 "/>
<polygon class="st4" points="947.8,445.8 955.3,448.9 985.2,408.9 977.7,405.8 "/>
<path class="st4" d="M914.8,385.7c-7.7,0-34.5-1.5-34.5-3.3c0-1.8,26.8-3.3,34.5-3.3c7.7,0,13.9,1.5,13.9,3.3
	C928.7,384.2,922.4,385.7,914.8,385.7"/>
<path class="st4" d="M946.6,379.1c7.7,0,34.5,1.5,34.5,3.3c0,1.8-26.8,3.3-34.5,3.3c-7.7,0-13.9-1.5-13.9-3.3
	C932.7,380.6,938.9,379.1,946.6,379.1"/>
<path class="st8" d="M1029.9,417.5c-13.2,7.4-27.1,10-45.3,0c-14.8-8.1-53.3-12.9-53.3-12.9h152.3
	C1083.6,404.7,1043.1,410.1,1029.9,417.5"/>
<path class="st9" d="M1029.9,417.5c-13.2,7.4-27.1,10-45.3,0c-14.8-8.1-53.3-12.9-53.3-12.9h152.3
	C1083.6,404.7,1043.1,410.1,1029.9,417.5z"/>
<path class="st10" d="M1023.8,399.4c0,5.4-6.6,9.7-14.7,9.7c-8.1,0-14.7-4.3-14.7-9.7c0-5.4,6.6-9.7,14.7-9.7
	C1017.2,389.7,1023.8,394,1023.8,399.4"/>
<line class="st12" x1="1031.2" y1="617.9" x2="1031.2" y2="639.6"/>
<g class="st13">
	<g>
		<defs>
			<rect id="SVGID_1_" x="946.3" y="708.3" width="137.4" height="50"/>
		</defs>
		<clipPath id="SVGID_00000075151982575466514200000006068831304750002829_">
			<use xlink:href="#SVGID_1_"  style="overflow:visible;"/>
		</clipPath>
		<path style="clip-path:url(#SVGID_00000075151982575466514200000006068831304750002829_);fill:#F4C700;" d="M1083.6,744.6
			c0,9.2-7.3,15.2-16.3,13.4c0,0-34.4-7-51.8-7c-16.7,0-52.3,7.1-52.3,7.1c-9,1.8-16.9-4.2-16.9-13.4v-18.8
			c0-9.2,8.6-17.6,17.8-17.6H1067c9.2,0,16.7,8.4,16.7,17.6V744.6z"/>
	</g>
</g>
<g class="st13">
	<g>
		<defs>
			<rect id="SVGID_00000021091613270493492180000014928570004298071425_" x="978.8" y="639.6" width="72.3" height="68.7"/>
		</defs>
		<clipPath id="SVGID_00000057137143984394243580000015183956212177434303_">
			<use xlink:href="#SVGID_00000021091613270493492180000014928570004298071425_"  style="overflow:visible;"/>
		</clipPath>
		
			<rect x="978.8" y="639.6" style="clip-path:url(#SVGID_00000057137143984394243580000015183956212177434303_);fill:#1B1440;" width="72.3" height="68.7"/>
	</g>
</g>
<line class="st16" x1="1013.2" y1="607.1" x2="1013.2" y2="639.6"/>
<g class="st13">
	<g>
		<defs>
			<rect id="SVGID_00000125576924900380423680000017137130467695624886_" x="978.8" y="639.6" width="36.1" height="68.7"/>
		</defs>
		<clipPath id="SVGID_00000106845678138669200930000003730212783798260098_">
			<use xlink:href="#SVGID_00000125576924900380423680000017137130467695624886_"  style="overflow:visible;"/>
		</clipPath>
		
			<rect x="978.8" y="639.6" style="clip-path:url(#SVGID_00000106845678138669200930000003730212783798260098_);fill:#1B1440;" width="36.1" height="68.7"/>
	</g>
</g>
<path class="st18" d="M1255.6,533.6c0,0-54.5-203.3-144.1,0"/>
<path class="st18" d="M858,501c0,0-69.6-259.4-183.9,0"/>
</svg>
