<?xml version="1.0" encoding="utf-8"?>
<!-- Generator: Adobe Illustrator 26.3.1, SVG Export Plug-In . SVG Version: 6.00 Build 0)  -->
<svg version="1.1" id="Layer_1" xmlns="http://www.w3.org/2000/svg" xmlns:xlink="http://www.w3.org/1999/xlink" x="0px" y="0px"
	 viewBox="0 0 1514 480" style="enable-background:new 0 0 1514 480;" xml:space="preserve">
<style type="text/css">
	.st0{fill:#1DB570;}
	.st1{fill:#22B573;fill-opacity:0.6;}
	.st2{fill:#1D9C61;}
	.st3{fill:#3FA9F5;}
	.st4{display:none;fill:#F2F2F2;stroke:#CCCCCC;stroke-width:5.0867;stroke-miterlimit:10;}
	.st5{display:none;}
	.st6{display:inline;opacity:0.8;fill:#D9E021;}
	.st7{display:inline;opacity:0.8;fill:#1B1440;}
	.st8{fill:none;stroke:#3FA9F5;stroke-width:34.8972;stroke-miterlimit:10;}
	.st9{display:inline;fill:none;}
	.st10{display:inline;fill:none;stroke:#3FA9F5;stroke-width:19.9146;stroke-miterlimit:10;}
	.st11{display:none;fill:#F2F2F2;stroke:#F2F2F2;stroke-width:7.63;stroke-miterlimit:10;}
</style>
<path class="st0" d="M1008.8,227.7c0,0-56.8-211.7-150.1,0"/>
<path class="st1" d="M1581.5,182c0,158.6,373,416-773.4,424C-786.1,617.1-12.2,341.9-12.2,183.3"/>
<path class="st2" d="M621.7,186.3c0,0-59.1-242.2-156.2,0"/>
<path class="st3" d="M715.1,183c0,0-239.3,54.9-141.1,85.6c98.2,30.8,51.4,99.4-88.4,103.9C224,381-38.5,478.8,75,512
	c90.6,26.5,740.2-25.1,740.2-25.1l516.6,3.1c0,0,14.5-3.2-10.7-55c-52.1-107-325.3-160.6-449.3-168.8c-197-13.2-203.6-36-161.7-52.8
	C752.1,196.7,782,183,782,183H715.1z"/>
<line class="st4" x1="776.8" y1="311.9" x2="776.8" y2="327.1"/>
<g class="st5">
	<path class="st6" d="M810.8,401.2c0,6.5-5.3,11.8-11.8,11.8h-72.9c-6.5,0-11.8-5.3-11.8-11.8v-13.3c0-6.5,5.3-11.8,11.8-11.8H799
		c6.5,0,11.8,5.3,11.8,11.8V401.2z"/>
</g>
<g class="st5">
	<rect x="737" y="326.8" class="st7" width="51.1" height="49.2"/>
</g>
<g class="st5">
	<rect x="736.9" y="326.5" class="st7" width="25.7" height="49.6"/>
</g>
<g>
	<path class="st8" d="M692.8,434.6c45-11.5,97.5-11.5,142.5,0"/>
</g>
<g class="st5">
	<path class="st10" d="M699.1,435.4c40-16,95.5-16,135.4,0"/>
</g>
<line class="st11" x1="762.8" y1="305.3" x2="762.8" y2="328.1"/>
</svg>
