<?xml version="1.0" encoding="utf-8"?>
<!-- Generator: Adobe Illustrator 26.0.2, SVG Export Plug-In . SVG Version: 6.00 Build 0)  -->
<svg version="1.1" id="Livello_1" xmlns="http://www.w3.org/2000/svg" xmlns:xlink="http://www.w3.org/1999/xlink" x="0px" y="0px"
	 viewBox="0 0 585.66 265.35" style="enable-background:new 0 0 585.66 265.35;" xml:space="preserve">
<style type="text/css">
	.st0{fill:#FFFFFF;}
</style>
<g>
	<g>
		<path class="st0" d="M387.95,126.87c-7.3-1.35-16.88-2.06-20-6.48c-4.68-6.64,1.17-16.31,16.48-15.41
			c13.86,0.82,15.75,11.51,15.94,15.67h20c0.27-7.83-2.97-15.94-7.84-21.07c-6.21-6.48-20.8-13.25-38.9-10.53
			c-9.73,1.35-22.7,7.02-27.03,19.72c-3.78,11.88,0,22.69,7.29,28.37c9.19,7.03,26.43,9.13,33.51,10.55
			c8.55,1.71,14.9,2.85,13.85,11.95c-1.11,9.56-15.93,12.28-25.74,9.12c-6.99-2.26-10-7.84-11.35-15.4H343.1
			c0,9.58,5.7,19.7,11.47,24.34c8.56,6.88,18.29,9.31,29.53,9.31c14.76,0,26.98-3.81,34.38-14.73c3.88-5.73,8.11-18.91,1.35-30.8
			C413.89,131.19,400.38,129.03,387.95,126.87z"/>
		<path class="st0" d="M318.23,101.74c-8.58-9.81-23.61-15.41-38.9-12.97c-28.7,4.56-35.72,31.75-37.02,40.54
			c-2.43,16.44,2.43,44.04,31.35,54.85c13.5,5.13,30.53,3.24,43.5-6.22c7.29-5.41,14.59-17.56,15.13-25.14h-24.05
			c-0.81,3.24-2.7,7.57-7.02,10.81c-9.73,7.02-20.81,2.43-25.67-1.08c-7.29-5.4-10-14.32-10-27.02c0-17.59,8.09-28.01,22.05-28.01
			c12.64,0,20.45,10.87,19.83,19.9h-34.05v17.02h58.91C333.72,128.4,326.27,110.93,318.23,101.74z"/>
		<path class="st0" d="M517.75,160.84c0-5.04,0-24.76,0-29.19s-0.53-15.07-1.89-22.16c-0.98-5.1-5.37-12.83-13.79-17.03
			c-7.34-3.66-12.98-4.32-24.93-4.32c-17.96,0-37.29,6.25-38.11,32.15h21.61c0-9.37,6.49-14.91,16.44-14.91
			c9.73,0,17.98,5.24,16.08,13.83c-1.9,8.59-17.77,8.91-27.91,10.27c-11.76,1.57-27.56,7.02-31.35,23.51
			c-1.35,6.48-0.27,18.37,9.72,26.21c6.76,5.13,13.94,7.3,23.51,7.3c12.21,0,22.47-5.32,28.18-10.54c0.27,1.35,1.62,6.48,2.7,7.84
			h22.7C517.2,176.78,517.75,165.88,517.75,160.84z M493.42,157.33c-1.96,5.64-7.26,9.79-17.29,11.11
			c-13.23,1.74-22.27-6.48-16.55-17.06c5.75-10.62,26.91-6.86,34.93-14.59C494.5,138.95,494.85,153.2,493.42,157.33z"/>
	</g>
	<path class="st0" d="M164.13,189.13c-38.3-13.22-45.38-48.65-35.84-73.45c9.53-24.8,42.91-36.38,66.08-19.76
		c23.17,16.62,20.71,48.51,20.71,48.51h-59.4v-17.02h34.48c0,0,0.96-6.64-4.77-12.95c-7.65-8.42-18.62-8.32-25.75-4.22
		c-8.89,5.11-14.99,23.34-10.22,39.37c4.76,16.03,19.32,22.4,33.32,22.4c20.29,0,35.39-14.02,35.42-36.98
		c0.08-38.05-25.58-72.73-64.13-82.52C108.5,40.97,62.25,68.5,50.7,114.02c-11.54,45.51,15.99,91.77,61.5,103.31
		c32.49,8.24,65.35-3.43,85.7-27.33C188.26,192.84,176.82,193.51,164.13,189.13z M88.88,145.62c-5.36,0-9.7-4.34-9.7-9.7
		c0-5.36,4.34-9.7,9.7-9.7c5.36,0,9.7,4.34,9.7,9.7C98.57,141.28,94.23,145.62,88.88,145.62z"/>
</g>
</svg>
