<?xml version="1.0" encoding="utf-8"?>
<!-- Generator: Adobe Illustrator 26.3.1, SVG Export Plug-In . SVG Version: 6.00 Build 0)  -->
<svg version="1.1" id="Layer_1" xmlns="http://www.w3.org/2000/svg" xmlns:xlink="http://www.w3.org/1999/xlink" x="0px" y="0px"
	 viewBox="0 0 2000 2000" style="enable-background:new 0 0 2000 2000;" xml:space="preserve">
<style type="text/css">
	.Graphic_x0020_Style{fill:#4A758A;}
	.st0{clip-path:url(#SVGID_00000179647288059927412440000009148767038332205207_);}
	.st1{fill:#DDF1FD;}
	.st2{fill:#7CCEF4;fill-opacity:0.5;}
	.st3{clip-path:url(#SVGID_00000173126644919920549160000017755107925421746876_);fill:#70B8D9;fill-opacity:0.75;}
	.st4{clip-path:url(#SVGID_00000073697318636412136820000018038676901458154129_);fill:#62A0BD;}
	.st5{opacity:0.3;}
	.st6{fill:none;stroke:#81CDE3;stroke-width:3.384;stroke-miterlimit:10;}
	.st7{fill:none;stroke:#53C0D4;stroke-width:3.384;stroke-miterlimit:10;}
	.st8{fill:none;stroke:#36A9E1;stroke-width:3.384;stroke-miterlimit:10;}
	.st9{fill:#36A9E1;}
	.st10{fill:none;stroke:#36A9E1;stroke-width:6.7712;stroke-miterlimit:10;}
	.st11{fill:#FFFFFF;}
	.st12{fill:none;stroke:#003144;stroke-width:3.9066;stroke-miterlimit:10;}
	.st13{fill:#ACCA3C;stroke:#003144;stroke-width:3.9066;stroke-miterlimit:10;stroke-opacity:0.5;}
	.st14{fill:none;stroke:#003144;stroke-width:2.5687;stroke-miterlimit:10;}
	.st15{opacity:0.6;}
	.st16{fill:#CEDE92;stroke:#003144;stroke-width:3.6411;stroke-miterlimit:10;}
	.st17{fill:#CEDE92;}
	.st18{opacity:0.6;fill:#003144;}
	.st19{fill:#809DAE;}
	.st20{fill:none;stroke:#003144;stroke-width:3.2655;stroke-miterlimit:10;}
	.st21{fill:#CFD6DD;}
	.st22{fill:#003144;}
	.st23{fill:#CFBCC9;}
	.st24{fill:none;stroke:#003144;stroke-width:4.5007;stroke-miterlimit:10;}
	.st25{fill:none;}
	.st26{clip-path:url(#SVGID_00000112620886433558061030000017212409237310513598_);}
	.st27{fill:#D6D2D4;}
	.st28{fill:#EDF0F3;}
	.st29{fill:none;stroke:#EDF0F3;stroke-width:9.0014;stroke-miterlimit:10;}
	.st30{opacity:0.5;fill:#003144;}
	.st31{fill:#7CCEF4;fill-opacity:0.95;stroke:#4A8BB4;stroke-width:5.8993;stroke-miterlimit:10;}
</style>
<g>
	<g>
		<defs>
			<circle id="SVGID_1_" cx="998.9" cy="977.7" r="493.4"/>
		</defs>
		<clipPath id="SVGID_00000152227256479907027880000013643107835127901831_">
			<use xlink:href="#SVGID_1_"  style="overflow:visible;"/>
		</clipPath>
		<g style="clip-path:url(#SVGID_00000152227256479907027880000013643107835127901831_);">
			<circle class="st1" cx="995" cy="979.4" r="502.5"/>
			<path class="st2" d="M1334.1,861c-44.6,0-67.2-10.9-89.1-21.4c-22.2-10.6-43.1-20.7-86.1-20.7c-43,0-63.9,10-86,20.7
				c-21.9,10.5-44.5,21.4-89.1,21.4c-44.6,0-67.2-10.9-89.1-21.4C872.5,829,851.6,819,808.6,819c-43,0-63.9,10-86,20.7
				c-21.9,10.5-44.5,21.4-89.1,21.4s-67.2-10.9-89.1-21.4c-10.8-5.2-21.3-10.2-34.2-14c-14.8,47.5-22.9,98.1-22.9,150.5
				c0,278.6,225.8,504.4,504.4,504.4s504.4-225.8,504.4-504.4c0-53.7-8.5-105.4-24-154c-20.2,3.8-34.4,10.5-48.9,17.5
				C1401.4,850.1,1378.7,861,1334.1,861z"/>
			<g>
				<defs>
					<rect id="SVGID_00000078759485040041511640000017067306307636281267_" x="454.4" y="1037.8" width="1115.1" height="492.4"/>
				</defs>
				<clipPath id="SVGID_00000043443307157360514480000000588383026501275311_">
					<use xlink:href="#SVGID_00000078759485040041511640000017067306307636281267_"  style="overflow:visible;"/>
				</clipPath>
				<path style="clip-path:url(#SVGID_00000043443307157360514480000000588383026501275311_);fill:#70B8D9;fill-opacity:0.75;" d="
					M1337.4,858.4c-44.6,0-67.3-10.9-89.2-21.4c-22.2-10.6-43.1-20.7-86.2-20.7c-43,0-64,10-86.1,20.7
					c-21.9,10.5-44.5,21.4-89.1,21.4c-44.6,0-67.3-10.9-89.2-21.4c-22.2-10.6-43.1-20.7-86.1-20.7c-43,0-64,10-86.1,20.7
					c-21.9,10.5-44.5,21.4-89.1,21.4s-67.2-10.9-89.1-21.4c-10.8-5.2-21.4-10.2-34.3-14c-14.9,47.5-22.9,98.1-22.9,150.5
					c0,278.6,226,504.4,504.9,504.4s504.9-225.8,504.9-504.4c0-53.7-8.5-105.4-24-154c-20.2,3.8-34.4,10.5-49,17.5
					C1404.7,847.6,1382.1,858.4,1337.4,858.4z"/>
			</g>
			<g>
				<defs>
					<rect id="SVGID_00000000201009008466711450000001456802709844404660_" x="436.8" y="1244.4" width="1118.4" height="492.4"/>
				</defs>
				<clipPath id="SVGID_00000122679311155815491880000015754230982173855630_">
					<use xlink:href="#SVGID_00000000201009008466711450000001456802709844404660_"  style="overflow:visible;"/>
				</clipPath>
				<path style="clip-path:url(#SVGID_00000122679311155815491880000015754230982173855630_);fill:#62A0BD;" d="M1337.7,861.4
					c-44.8,0-67.5-10.9-89.5-21.4c-22.2-10.6-43.2-20.7-86.4-20.7c-43.2,0-64.1,10-86.4,20.7c-22,10.5-44.7,21.4-89.4,21.4
					c-44.8,0-67.5-10.9-89.4-21.4c-22.2-10.6-43.2-20.7-86.4-20.7c-43.1,0-64.1,10-86.4,20.7c-22,10.5-44.7,21.4-89.4,21.4
					S567,850.5,545.1,840c-10.8-5.2-21.4-10.2-34.4-14c-14.9,47.5-22.9,98.1-22.9,150.5c0,278.6,226.7,504.4,506.4,504.4
					s506.4-225.8,506.4-504.4c0-53.7-8.5-105.4-24.1-154c-20.2,3.8-34.5,10.5-49.1,17.5C1405.2,850.5,1382.5,861.4,1337.7,861.4z"/>
			</g>
		</g>
	</g>
	<g>
		<g>
			<g class="st5">
				<path class="st6" d="M998.6,1686.1"/>
				<path class="st6" d="M998.6,1686.1"/>
			</g>
			<g>
				<g>
					<path class="st7" d="M998.6,1686.1"/>
				</g>
				<path class="st8" d="M998.6,1686.1"/>
			</g>
		</g>
	</g>
	<g>
		
			<image style="overflow:visible;opacity:0.3;" width="8141" height="8141" xlink:href="F9FD188F.png"  transform="matrix(0.24 0 0 0.24 21.8818 12.7018)">
		</image>
		<g>
			
				<image style="overflow:visible;" width="7370" height="7370" xlink:href="F9FD188D.png"  transform="matrix(0.24 0 0 0.24 114.2034 105.2634)">
			</image>
			<g>
				<path class="st9" d="M998.6,1792.7c-108.4,0-213.6-21.2-312.6-63.1c-95.6-40.4-181.5-98.4-255.3-172.1
					c-73.8-73.8-131.7-159.6-172.1-255.3c-41.9-99-63.1-204.2-63.1-312.6c0-108.4,21.2-213.6,63.1-312.6
					c40.4-95.6,98.4-181.5,172.1-255.3C504.5,348,590.4,290.1,686,249.7c99-41.9,204.2-63.1,312.6-63.1s213.6,21.2,312.6,63.1
					c95.6,40.4,181.5,98.4,255.3,172.1s131.7,159.6,172.1,255.3c41.9,99,63.1,204.2,63.1,312.6c0,108.4-21.2,213.6-63.1,312.6
					c-40.4,95.6-98.4,181.5-172.1,255.3s-159.6,131.7-255.3,172.1C1212.2,1771.5,1107,1792.7,998.6,1792.7z M998.6,189.9
					c-440.9,0-799.7,358.7-799.7,799.7s358.7,799.7,799.7,799.7s799.7-358.7,799.7-799.7S1439.6,189.9,998.6,189.9z"/>
			</g>
		</g>
	</g>
	<circle class="st10" cx="992.4" cy="978.6" r="543.4"/>
	<g>
		<path class="st11" d="M742.4,1685.6v-116.2c0-2.7,1.4-4.1,4.1-4.1h46.4c10.2,0,18,2.7,23.6,8.1c5.5,5.4,8.3,13.1,8.3,23.2v7.9
			c0,11-5.1,18-15.3,21.3c5.2,0.8,9.3,2.9,12.4,6.3c3.1,3.4,4.6,8.3,4.6,14.6v11.6c0,10.1-2.8,17.8-8.3,23.2
			c-5.5,5.4-13.3,8.1-23.4,8.1h-48.3C743.7,1689.6,742.4,1688.3,742.4,1685.6z M769,1615.8h19.7c4.1,0,7.2-0.9,9.1-2.6
			c1.9-1.7,2.9-4.6,2.9-8.6v-7.5c0-4-0.9-6.9-2.8-8.6c-1.9-1.7-4.9-2.6-9-2.6H769c-1.4,0-2.1,0.7-2.1,2.1v25.7
			C766.9,1615.1,767.6,1615.8,769,1615.8z M769,1669.1h21.7c4.3,0,7.3-0.9,9.2-2.6c1.9-1.7,2.8-4.6,2.8-8.6v-11.2c0-4-1-6.8-2.9-8.5
			c-1.9-1.7-5.1-2.5-9.5-2.5H769c-1.4,0-2.1,0.7-2.1,2.1v29.2C766.9,1668.4,767.6,1669.1,769,1669.1z"/>
		<path class="st11" d="M901.3,1689.6h-21.7c-10.2,0-18-2.7-23.6-8.1c-5.5-5.4-8.3-13.2-8.3-23.4v-61.3c0-10.2,2.8-18,8.3-23.4
			c5.5-5.4,13.4-8.1,23.6-8.1h21.7c10.2,0,18,2.7,23.6,8.1c5.5,5.4,8.3,13.2,8.3,23.4v61.3c0,10.2-2.8,18-8.3,23.4
			C919.3,1686.9,911.4,1689.6,901.3,1689.6z M883.5,1668.4h13.7c4.1,0,7.1-0.9,8.8-2.6c1.7-1.7,2.6-4.7,2.6-8.8v-59
			c0-4.1-0.9-7.1-2.6-8.8c-1.7-1.7-4.7-2.6-8.8-2.6h-13.7c-4.1,0-7,0.9-8.7,2.6c-1.7,1.7-2.5,4.7-2.5,8.8v59c0,4.1,0.8,7.1,2.5,8.8
			C876.5,1667.5,879.4,1668.4,883.5,1668.4z"/>
		<path class="st11" d="M1008,1689.6h-21.7c-10.2,0-18-2.7-23.6-8.1c-5.5-5.4-8.3-13.2-8.3-23.4v-61.3c0-10.2,2.8-18,8.3-23.4
			c5.5-5.4,13.4-8.1,23.6-8.1h21.7c10.2,0,18,2.7,23.6,8.1c5.5,5.4,8.3,13.2,8.3,23.4v61.3c0,10.2-2.8,18-8.3,23.4
			C1026,1686.9,1018.2,1689.6,1008,1689.6z M990.2,1668.4h13.7c4.1,0,7.1-0.9,8.8-2.6c1.7-1.7,2.6-4.7,2.6-8.8v-59
			c0-4.1-0.9-7.1-2.6-8.8c-1.7-1.7-4.7-2.6-8.8-2.6h-13.7c-4.1,0-7,0.9-8.7,2.6c-1.7,1.7-2.5,4.7-2.5,8.8v59c0,4.1,0.8,7.1,2.5,8.8
			C983.2,1667.5,986.1,1668.4,990.2,1668.4z"/>
		<path class="st11" d="M1145.6,1565.3h28.6c2.7,0,4.1,1.4,4.1,4.1v116.2c0,2.7-1.4,4.1-4.1,4.1h-15.9c-2.7,0-4.1-1.4-4.1-4.1v-91.6
			h-0.8l-19.7,64.8c-0.8,2.6-2.4,3.9-4.8,3.9h-16.2c-2.4,0-4.1-1.3-4.8-3.9l-20.1-65h-0.8v91.8c0,1.5-0.3,2.6-0.8,3.2
			c-0.5,0.6-1.6,0.9-3.3,0.9h-15.9c-2.7,0-4.1-1.4-4.1-4.1v-116.2c0-2.7,1.4-4.1,4.1-4.1h28.8c1.8,0,3,0.9,3.7,2.7l20.5,68.2h1.2
			l20.7-68.2C1142.3,1566.2,1143.5,1565.3,1145.6,1565.3z"/>
		<path class="st11" d="M1200.3,1657.9v-3.9c0-2.7,1.4-4.1,4.1-4.1h16.4c2.7,0,4.1,1.4,4.1,4.1v1.5c0,4.9,1,8.2,2.9,10.1
			c1.9,1.8,5.5,2.7,10.6,2.7h9.1c5,0,8.5-1,10.5-2.9c2-1.9,3-5.5,3-10.8v-2.3c0-3.7-1.5-6.6-4.5-8.6c-3-2-6.8-3.2-11.3-3.6
			c-4.5-0.4-9.4-1.1-14.6-2.2c-5.2-1.1-10.1-2.5-14.6-4.3c-4.5-1.7-8.3-5.2-11.3-10.2c-3-5.1-4.5-11.6-4.5-19.6v-6.8
			c0-10.1,2.8-17.8,8.5-23.4c5.7-5.5,13.5-8.3,23.6-8.3h19.3c10.2,0,18.1,2.8,23.8,8.3c5.7,5.5,8.5,13.3,8.5,23.4v3.7
			c0,2.7-1.4,4.1-4.1,4.1h-16.4c-2.7,0-4.1-1.4-4.1-4.1v-1.2c0-5-1-8.4-2.9-10.2c-1.9-1.8-5.5-2.7-10.6-2.7h-7.5
			c-5.3,0-8.9,1-10.7,3c-1.9,2-2.8,5.9-2.8,11.7v3.7c0,6.1,5.3,9.5,15.9,10.4c11,0.9,20.7,3.1,29.2,6.6c4.5,1.9,8.3,5.4,11.3,10.3
			c3,5,4.5,11.3,4.5,19v6.6c0,10.1-2.8,17.9-8.5,23.4c-5.7,5.5-13.5,8.3-23.6,8.3h-21.1c-10.1,0-17.9-2.8-23.6-8.3
			C1203.2,1675.8,1200.3,1668,1200.3,1657.9z"/>
	</g>
	<g id="Diatom">
		<circle class="st12" cx="1265.6" cy="989.3" r="98.3"/>
		<circle class="st13" cx="1265.6" cy="989.3" r="86.7"/>
		<circle class="st14" cx="1265.6" cy="989.3" r="12.5"/>
		<g class="st15">
			<line class="st12" x1="1265.6" y1="902.6" x2="1265.6" y2="1076"/>
			<line class="st12" x1="1232.4" y1="909.2" x2="1298.8" y2="1069.4"/>
			<line class="st12" x1="1298.8" y1="909.2" x2="1232.4" y2="1069.4"/>
			<line class="st12" x1="1185.5" y1="956.1" x2="1345.7" y2="1022.5"/>
			<line class="st12" x1="1185.5" y1="1022.5" x2="1345.7" y2="956.1"/>
			<line class="st12" x1="1178.9" y1="989.3" x2="1352.3" y2="989.3"/>
			<line class="st12" x1="1204.3" y1="928" x2="1326.9" y2="1050.6"/>
			<line class="st12" x1="1326.9" y1="928" x2="1204.3" y2="1050.6"/>
		</g>
	</g>
	<g id="Sugar_puff">
		<path class="st16" d="M1103.3,976.1c-28.8,52.4-76.4,80.6-83.3,77.4c-5.7-2.6-6.6-59.3,22.2-111.6c28.8-52.4,74.5-81,82.2-78
			C1130.3,866.2,1132.2,923.7,1103.3,976.1z"/>
		<g>
			<line class="st17" x1="1112.7" y1="882.4" x2="1030.5" y2="1035.5"/>
			<path class="st18" d="M1114.5,883.3c-9.6,27.4-22.7,53.5-36.5,79c-14,25.5-28.6,50.5-45.7,74.1c-0.7,0.9-2,1.1-2.9,0.4
				c-0.8-0.6-1-1.5-0.7-2.4c5.1-13.7,10.9-27,17.1-40.2c15.5-32.7,32.5-64.8,52.5-95.1c2.9-4.4,6.2-9.2,9.4-13.5
				c1.1-1.5,2.2-2.9,3.3-4.4C1112.3,879.6,1115.2,881.1,1114.5,883.3L1114.5,883.3z"/>
		</g>
	</g>
	<g id="Fish">
		<g>
			<g>
				<g>
					<path class="st19" d="M817.2,1187.8c0,0,53.7-39.4,92.3-42.4c38.6-3,43.9-4.5,43.9-4.5s44.7-61.3,60.6-66.6
						c0,31.8,3.8,48.4,17.4,62.1c-2,8.1-2,8.1-2,8.1l8.8,1.8c0,0,39.6-33.6,60.3-35.8c19.4,14.9,52.5,50.5,54,52.5
						c1.5,2-5.6,5.6-5.6,5.6l6.8,2.3c0,0,3.8-3.8,7.6-3.5c3.8,0.3,36.1-14.4,38.6-13.9c2.5,0.5,34.8,33.3,36.1,34.1s0.5,6.1-0.5,5.8
						c-1-0.3,19.9,3,29.8,0.8c9.8-2.3,70.9-31.5,80.2-31.3c9.3,0.3,3.3,18.9,3.3,18.9s-10.3,14.1-9.1,30.8
						c3.5,19.4,13.6,34.6,9.6,38.1c-4,3.5-9.8,3.5-10.8,3c-1-0.5-69.9-28.5-69.9-28.5s-18.2-4.5-25-3.5c-0.3,6.1-3.3,8.6-3.3,8.6
						s-5.8,4-8.8,7.3c-3,3.3-6.3,6.3-9.3,9.6c-3,3.3-3,7.3-9.1,9.3c-6.1,2-49.5-18.7-49.5-18.7l-10.1,1.3c0,0,14.6,8.1,12.9,13.4
						c-1.8,5.3-7.1,13.6-12.9,16.1c-5.8,2.5-28.3,16.4-33.3,21.7s-11.1,11.6-11.1,11.6s-12.1,1.3-19.4-5.8
						c-7.3-7.1-22.5-17.9-24.7-18.2c-2.3-0.3-20.9-19.2-21.2-20.2s-61.1-0.3-81.2-4.3c2.5,13.6,2.3,17.4,2.3,17.4l10.6,15.4
						l-19.2-17.7c0,0-1,17.4,0,22.5c-10.1-15.9-12.6-18.4-13.9-19.9c-1.3-1.5-13.9-20.4-16.1-23.7c-2.3-3.3-3.3-3.3-3.3-3.3
						s-33.1-12.6-36.8-13.1s-32.8-5.6-44.2-9.3c-6.8-0.8-18.7-6.4-18.4-8.2c0.3-1.8,19-6.2,19-6.2s-24.1-11-25.2-13
						C816.2,1192.1,814.6,1189.5,817.2,1187.8z"/>
				</g>
				<g>
					<circle class="st20" cx="875.7" cy="1179.8" r="8"/>
				</g>
			</g>
		</g>
		<g>
			<path class="st21" d="M844.8,1219.4c32.8,5.8,66.3,7.4,99.5,8.1c28.8,0.4,58.3-0.4,87.1-2.1c0,0,6.2-0.3,6.2-0.3
				c8.5,0.3,28.8,1.5,37.3,1.6c41.3,1,83.6,0.3,124.9-2c11.7-0.8,32-2.2,43.8-2.9c-8.6,1.6-28.8,5.4-37,7
				c-41,7.5-83.3,13.4-124.7,17.4c-8.3,1-29.2,2.5-37.8,3.2c-4.2,0.6-8.4,0.6-12.6,0.2c-33.5-2.2-67.5-5.3-100.6-10.7
				C901.8,1234.2,872.7,1228.4,844.8,1219.4L844.8,1219.4z"/>
		</g>
		<path class="st20" d="M902.5,1158.8c0,0,47.6,28-1.4,61.6"/>
		<path class="Graphic_x0020_Style" d="M1044.2,1257.3c0,0,77.7-2.6,108.8-18.7c15.4,10.7,14.2,12.1,13.3,14.5
			c-0.9,2.3-7.5,11.9-10.7,13.8c-3.3,1.9-34.5,15.2-47.2,33.4c-18.7-4.5-42.7-23.1-42.7-23.1L1044.2,1257.3z"/>
		<path class="Graphic_x0020_Style" d="M1164.9,1236.3c0,0,50.9-1.4,77.5-13.5c0,9.8-12.1,13.5-13.5,15.9
			c-1.4,2.3-12.1,12.1-12.1,15.4s-18.2-1.4-18.2-1.4L1164.9,1236.3z"/>
		<path class="Graphic_x0020_Style" d="M1263.9,1223.7c0,0,21.9-14.5,4.7-29.9c53.2-26.1,78-31.7,78-31.7s5.1,1.4,4.7,8.4
			c-0.5,7-13.1,26.6-10.3,38.3s7.9,32.7,9.8,36.9s-6.1,10.3-14.9,7.5C1326.9,1250.3,1263.9,1223.7,1263.9,1223.7z"/>
		<path class="Graphic_x0020_Style" d="M953,1142c0,0,36.9-6.1,76.6,2.3c-19.6-38.3-15.9-70-15.9-70S966.5,1114,953,1142z"/>
		<path class="Graphic_x0020_Style" d="M1039.3,1146.2c0,0,33.1-32.2,58.8-35c40.2,39.2,55.1,51.8,55.1,51.8l-5.1,4.7L1039.3,1146.2
			z"/>
		<path class="Graphic_x0020_Style" d="M1155.1,1169.6c0,0,41.1-18.7,44.8-16.3c3.7,2.3,38.3,32.7,37.8,35.5
			C1237.3,1191.5,1155.1,1169.6,1155.1,1169.6z"/>
		<path class="Graphic_x0020_Style" d="M923.1,1243.8c0,0,24.3,10.7,40.2,9.3c7.5,25.7,3.7,24.3,3.7,24.3l-10.3-8.9l-2.3,20.1
			L923.1,1243.8z"/>
		<g>
			<path class="st22" d="M817.1,1190.6c0-0.4,0.3-0.6,0.5-0.9c1.5-2,3.3-3.8,5.1-5.5c6.3-5.9,13.5-10.8,21-15.2
				c61.2-34.2,135.1-33.7,202.8-24.2c4.1,0.6,8.7,1.4,12.9,2.1c47.5,11.2,107.7,26.7,155,37.4c16.7,3.4,33.5,7.8,50.6,7
				c11.5-0.7,21.3-7.1,31.6-11.8c10.4-4.9,21.3-8.9,32.3-12.3c5.5-1.7,11.1-3.2,16.6-4.6c-11,3.3-21.9,7-32.5,11.4
				c-10.7,4.3-20.6,9.9-30.9,15.1c-10.5,5.6-22.8,6-34.4,4.7c-11.5-1.2-22.8-3.5-34.2-5.7c-46.9-9.8-108.3-25.2-155.2-36.4
				c-38-6.5-76.7-9.9-115.2-7.2c-34.1,2.5-68.5,9.5-98.9,25.6c-7.5,4.1-14.8,8.7-21.4,14.3c-1.9,1.6-3.8,3.3-5.4,5.3
				C817.4,1190,817.1,1190.2,817.1,1190.6L817.1,1190.6z"/>
		</g>
	</g>
	<g id="Krill">
		<g>
			<g>
				<g>
					<path class="st23" d="M819.4,902.7h-103c0,0-103,4.4-103,111.7s113.9,98.6,113.9,98.6l35,37.8l38.9-48.2l-60.8-18.1
						c0,0-63,1.1-60.8-63c1.6-47.7,52-46.5,52-46.5S803,985.4,819.4,902.7z"/>
					<circle class="st24" cx="765.4" cy="928.3" r="8.8"/>
					<g>
						<path class="st22" d="M690.9,908.4c-3.6,12.7-4.7,27.6,2.1,39.4c2.3,3.9,5.7,7.2,9.6,9.6c-4.2-2.1-7.9-5.2-10.6-9
							c-6.9-9.8-7.8-22.5-6.6-34.2c0.3-2.4,0.6-4.7,1.1-7.1L690.9,908.4L690.9,908.4z"/>
					</g>
					<g>
						<path class="st22" d="M646.1,935.9c-5.7,10-9.8,23.9-2.7,34.2c2.4,3.4,5.8,5.9,9.5,7.8c-3.9-1.6-7.6-3.8-10.4-7.1
							c-7.3-8.5-6.1-21-2.8-31c0.7-2.1,1.4-4,2.4-6.1C642.2,933.7,646.1,935.9,646.1,935.9L646.1,935.9z"/>
					</g>
					<g>
						<path class="st22" d="M631.4,1070.9c9.6,5.8,26.1,13.4,35.8,4.4c1.3-1.3,2.4-2.9,3.2-4.6c-0.7,1.8-1.6,3.5-2.8,5
							c-6.8,7.9-18.6,6.1-27.5,3.5c-3.7-1.2-7.3-2.5-10.9-4.3C629.1,1074.8,631.4,1070.9,631.4,1070.9L631.4,1070.9z"/>
					</g>
					<g>
						<path class="st22" d="M614.9,1019.3c7.2,6.2,17.5,9,26.7,6.4c3.2-0.7,6.2-2.3,9.1-3.9c-2.7,2-5.6,3.9-8.7,5
							c-6.4,2.6-13.7,2.6-20.4,0.6c-3.4-1.1-6.6-2.5-9.6-4.6C612,1022.7,614.9,1019.3,614.9,1019.3L614.9,1019.3z"/>
					</g>
				</g>
				<path class="st25" d="M791.7,953.2c0,0-111.4,6.8-116.5,46.4c-5.1,39.7-8.4,63.3,21.9,79.3c30.4,16,39.7,15.2,39.7,15.2"/>
				<path class="st25" d="M813.6,941.1c0,0-136.7,8.2-148.1,40.5s-29.1,88.6,38,108.9s101.3,20.9,101.3,20.9l17.1-62L813.6,941.1z"
					/>
				<g>
					<defs>
						<path id="SVGID_00000090995176077009114550000009808403137737247646_" d="M813.6,941.1c0,0-127.8,3.8-148.7,46.2
							c-15.1,30.7-18.4,81,38.6,103.2c65.3,25.4,101.3,20.9,101.3,20.9l17.1-62L813.6,941.1z"/>
					</defs>
					<clipPath id="SVGID_00000034080020034281447800000003158978563151552421_">
						<use xlink:href="#SVGID_00000090995176077009114550000009808403137737247646_"  style="overflow:visible;"/>
					</clipPath>
					<g style="clip-path:url(#SVGID_00000034080020034281447800000003158978563151552421_);">
						<g>
							<path class="st22" d="M721.4,966.3c10.7,7.4,20.6,15.9,30.2,24.8c0.7,7.5,1.1,15,0.6,22.6c-0.1,1.5-2.3,1.9-2.8,0.4
								c-2.6-6.6-4.4-13.5-6.1-20.4c0,0,1.5,2.6,1.5,2.6c-2.6-1.8-5-3.6-7.5-5.4c-7.5-5.5-14.8-11.3-21.6-17.6
								C711.8,969.5,716.8,963.3,721.4,966.3L721.4,966.3z"/>
						</g>
						<g>
							<path class="st22" d="M717.4,1026.5c-2.5-6.6-4.2-13.5-5.6-20.4c0,0,1.7,2.8,1.7,2.8c-10.6-7.4-21.1-15-30.9-23.5
								c-4.1-3.7,0.8-10.2,5.5-7.2c11.3,7.6,21.9,16.1,32.3,24.9c0.5,4,0.8,8.1,1,12.1c0.2,3.5,0.3,7.1,0.1,10.6
								C721.4,1028.1,718.2,1028.6,717.4,1026.5L717.4,1026.5z"/>
						</g>
						<path class="st27" d="M819.4,902.7h-103c0,0-103,4.4-103,111.7s113.9,98.6,113.9,98.6l35,37.8l38.9-48.2l-60.8-18.1
							c0,0-63,1.1-60.8-63c1.6-47.7,52-46.5,52-46.5S803,985.4,819.4,902.7z"/>
						<circle class="st28" cx="765.4" cy="928.3" r="8.8"/>
						<path class="st29" d="M688.7,907.8c0,0-10.2,36.5,13.9,49.7"/>
						<path class="st29" d="M644.2,934.8c0,0-17.5,31.4,8.8,43.1"/>
						<path class="st29" d="M630.3,1072.8c0,0,31.4,18.3,40.2-2.2"/>
						<path class="st29" d="M613.5,1021c0,0,17.5,14.6,37.2,0.7"/>
					</g>
				</g>
				<g>
					<path class="st22" d="M811.9,902.5c-33.7-0.6-110.5-1.4-138.3,14.3c-35,13.4-52.8,48.5-56.4,84.1c-3.9,34.4,5.3,74.9,36.8,93.8
						c5,3,10.7,5.5,16,7.8c11,4.5,22.6,8,34.5,9.2c5.8,0.5,11.9,0.6,17.5-0.9c0,0,0.3-0.1,0.3-0.1s0.2,0.1,0.2,0.1l8.4,1.8l0.3,0.1
						c0,0,0.2,0.2,0.2,0.2s15.4,18.9,15.4,18.9c3.8,4.7,11.6,14.2,15.4,19c-9-10.1-23.2-26.4-32.2-36.7c0,0,0.5,0.3,0.5,0.3
						s-8.5-1.5-8.5-1.5l0.6,0c-5.3,1.7-10.7,1.7-16.1,1.6c-13.8-0.6-27.2-4.5-39.9-9.6c-1.3-0.6-4.9-2.1-6.3-2.7
						c-8.5-3.7-16.4-9-22.9-15.6c-26.3-27-29.9-69-21.6-104.2c7.2-31,26.4-57.9,55.8-68.8C701.8,897.3,776.6,900.3,811.9,902.5
						L811.9,902.5z"/>
				</g>
			</g>
			<g>
				<path class="st30" d="M816.2,905.4c-2.5,24.5-16,49.2-38.7,60.4c-9,4.4-18.8,6.8-28.6,8.8c-5.1,0.8-10.5,1.8-15.7,0.6
					c0,0,0.6,0.1,0.6,0.1c-3.2,0-6.6,0.4-9.9,0.9c-20.1,3.1-38.7,13.8-43.1,35c-2.1,9.7-1.5,20.1,1,29.6
					c4.3,16.3,16.7,29.4,31.7,36.6c2.7,1.5,7.1,3,9.1,3.6c6.5,0.8,13,1.9,19.4,3.2c5.7,1,13.4,3.5,19,5.2
					c10.9,3.3,26.6,8.4,37.4,11.8c-10.9-2.6-26.8-7.1-37.9-9.9c-5.6-1.5-13.2-3.7-18.9-4.5c-6.4-1.1-12.9-1.9-19.3-2.6
					c-1.9-0.4-3.6-1-5.3-1.7c-29.8-11.1-45.7-38.2-41.1-69.6c4.5-28.6,31.5-41.3,58-41.6c2.3,0.5,4.8,0.5,7.2,0.4
					c7.2-0.5,14.3-2.1,21.4-4c4.6-1.2,9.3-2.7,13.6-4.8C798.5,952.7,812.3,929.2,816.2,905.4L816.2,905.4z"/>
			</g>
		</g>
		<g>
			<path class="st22" d="M817.6,903.3c6-1.6,72.1-19.7,62.1-2.6c-0.8,1.3-1.8,2.5-2.9,3.6c1.5-1.7,3-3.5,3.6-5.7
				c1.9-10.5-38.8,1-44.4,2.4c-5.9,1.6-11.8,3.3-17.6,5.1C818.5,906,817.6,903.3,817.6,903.3L817.6,903.3z"/>
		</g>
		<g>
			<path class="st22" d="M815.2,902.5c3.5-1.9,74.2-42.6,67.9-30.2c-0.9,1.5-2.1,2.8-3.3,4c1.3-1.6,3-3.2,3.5-5.3
				c-0.4-4.6-27.9,11.3-31,12.9c-12,6.7-23.9,13.8-35.7,21C816.6,904.9,815.2,902.5,815.2,902.5L815.2,902.5z"/>
		</g>
	</g>
	<rect x="528.6" y="1330.8" class="st31" width="945.4" height="133.2"/>
	<g>
		<path class="st11" d="M629.6,1426.7H617c-5.3,0-9.5-1.5-12.4-4.4c-2.9-3-4.4-7.1-4.4-12.3v-36.1c0-5.3,1.5-9.5,4.4-12.4
			s7.1-4.4,12.4-4.4h12.6c5.3,0,9.5,1.5,12.5,4.4c3,2.9,4.4,7.1,4.4,12.4v36.1c0,5.3-1.5,9.4-4.4,12.3
			C639,1425.2,634.9,1426.7,629.6,1426.7z M618.5,1417.5h9.4c5.3,0,7.9-2.7,7.9-8v-35.2c0-5.3-2.6-8-7.9-8h-9.4
			c-5.2,0-7.8,2.7-7.8,8v35.2C610.7,1414.8,613.3,1417.5,618.5,1417.5z"/>
		<path class="st11" d="M693.5,1419.3v5.6c0,1.2-0.6,1.7-1.9,1.7h-15.9c-5.3,0-9.5-1.5-12.4-4.4c-2.9-3-4.4-7.1-4.4-12.3v-21.7
			c0-5.3,1.5-9.5,4.4-12.4s7.1-4.4,12.4-4.4h15.9c1.3,0,1.9,0.6,1.9,1.8v5.6c0,1.2-0.6,1.7-1.9,1.7h-14.4c-5.2,0-7.8,2.7-7.8,8v20.8
			c0,5.3,2.6,8,7.8,8h14.4C692.9,1417.5,693.5,1418.1,693.5,1419.3z"/>
		<path class="st11" d="M742.9,1426.7h-23.4c-5.3,0-9.5-1.5-12.4-4.4c-2.9-3-4.4-7.1-4.4-12.3v-21.7c0-5.3,1.5-9.5,4.4-12.4
			s7.1-4.4,12.4-4.4h8.9c5.3,0,9.5,1.5,12.5,4.4c3,2.9,4.4,7.1,4.4,12.4v13.8c0,1.3-0.6,1.9-1.9,1.9h-29c-0.8,0-1.2,0.4-1.2,1.1v4.7
			c0,5.3,2.6,7.9,7.9,7.9h21.9c1.3,0,1.9,0.7,1.9,1.9v5.4C744.9,1426.1,744.2,1426.7,742.9,1426.7z M714.3,1396.6h19.4
			c0.7,0,1.1-0.4,1.1-1.1v-6.9c0-2.7-0.6-4.7-1.8-6c-1.2-1.3-3.2-1.9-6-1.9h-6c-2.7,0-4.7,0.6-6,1.9c-1.2,1.3-1.8,3.3-1.8,6v6.9
			C713.3,1396.2,713.6,1396.6,714.3,1396.6z"/>
		<path class="st11" d="M777.1,1426.7h-4.2c-5.3,0-9.5-1.5-12.4-4.4c-2.9-3-4.4-7.1-4.4-12.3v-21.7c0-5.3,1.5-9.5,4.4-12.4
			s7.1-4.4,12.4-4.4h24.3c1.3,0,1.9,0.6,1.9,1.8v51.5c0,1.2-0.6,1.8-1.9,1.8h-6.8c-1.2,0-1.8-0.6-1.8-1.8v-3.9h-0.4
			C786.4,1424.8,782.7,1426.7,777.1,1426.7z M788.5,1408.3v-26.5c0-0.7-0.4-1.1-1.2-1.1h-12.9c-5.2,0-7.8,2.7-7.8,8v20.8
			c0,5.3,2.6,8,7.8,8h5.2C785.6,1417.5,788.5,1414.4,788.5,1408.3z"/>
		<path class="st11" d="M821.3,1426.7h-6.8c-1.2,0-1.8-0.6-1.8-1.8v-51.5c0-1.2,0.6-1.8,1.8-1.8h6.8c1.2,0,1.8,0.6,1.8,1.8v3.9h0.4
			c1.7-3.8,5.4-5.7,10.9-5.7h4.8c5.3,0,9.3,1.4,12.1,4.3c2.8,2.9,4.2,7,4.2,12.5v36.6c0,1.2-0.6,1.8-1.9,1.8h-6.8
			c-1.2,0-1.8-0.6-1.8-1.8v-36.2c0-5.3-2.6-8-7.9-8H832c-5.9,0-8.9,3.1-8.9,9.2v35C823.2,1426.1,822.6,1426.7,821.3,1426.7z"/>
		<path class="st11" d="M933.5,1426.7h-23.4c-5.3,0-9.5-1.5-12.4-4.4c-2.9-3-4.4-7.1-4.4-12.3v-21.7c0-5.3,1.5-9.5,4.4-12.4
			s7.1-4.4,12.4-4.4h8.9c5.3,0,9.5,1.5,12.5,4.4c3,2.9,4.4,7.1,4.4,12.4v13.8c0,1.3-0.6,1.9-1.9,1.9h-29c-0.8,0-1.2,0.4-1.2,1.1v4.7
			c0,5.3,2.6,7.9,7.9,7.9h21.9c1.3,0,1.9,0.7,1.9,1.9v5.4C935.5,1426.1,934.8,1426.7,933.5,1426.7z M904.9,1396.6h19.4
			c0.7,0,1.1-0.4,1.1-1.1v-6.9c0-2.7-0.6-4.7-1.8-6c-1.2-1.3-3.2-1.9-6-1.9h-6c-2.7,0-4.7,0.6-6,1.9c-1.2,1.3-1.8,3.3-1.8,6v6.9
			C903.8,1396.2,904.2,1396.6,904.9,1396.6z"/>
		<path class="st11" d="M981.4,1419.3v5.6c0,1.2-0.6,1.7-1.9,1.7h-15.9c-5.3,0-9.5-1.5-12.4-4.4c-2.9-3-4.4-7.1-4.4-12.3v-21.7
			c0-5.3,1.5-9.5,4.4-12.4s7.1-4.4,12.4-4.4h15.9c1.3,0,1.9,0.6,1.9,1.8v5.6c0,1.2-0.6,1.7-1.9,1.7H965c-5.2,0-7.8,2.7-7.8,8v20.8
			c0,5.3,2.6,8,7.8,8h14.4C980.7,1417.5,981.4,1418.1,981.4,1419.3z"/>
		<path class="st11" d="M1016.9,1426.7h-9.5c-5.3,0-9.5-1.5-12.4-4.4c-2.9-3-4.4-7.1-4.4-12.3v-21.7c0-5.3,1.5-9.5,4.4-12.4
			s7.1-4.4,12.4-4.4h9.5c5.3,0,9.4,1.5,12.4,4.4c3,2.9,4.5,7.1,4.5,12.4v21.7c0,5.3-1.5,9.4-4.5,12.3
			C1026.3,1425.2,1022.2,1426.7,1016.9,1426.7z M1008.9,1417.5h6.6c5.2,0,7.8-2.6,7.8-7.9v-21c0-5.3-2.6-7.9-7.8-7.9h-6.6
			c-2.7,0-4.7,0.6-6,1.9c-1.2,1.3-1.8,3.3-1.8,6v21c0,2.7,0.6,4.7,1.8,6C1004.2,1416.8,1006.1,1417.5,1008.9,1417.5z"/>
		<path class="st11" d="M1066,1426.7H1046c-1.2,0-1.8-0.6-1.8-1.8v-5.3c0-1.2,0.6-1.7,1.8-1.7h18.2c4.7,0,7-1.6,7-4.9v-1.3
			c0-2.9-1.7-5.1-5.1-6.6l-11.8-5.6c-3.7-1.7-6.4-3.6-8-5.7c-1.7-2.1-2.5-4.8-2.5-8.2c0-9.3,5.2-14,15.5-14h18
			c1.2,0,1.7,0.6,1.7,1.8v5.3c0,1.2-0.6,1.8-1.7,1.8h-15.8c-2.2,0-3.8,0.4-5,1.1c-1.2,0.8-1.7,1.8-1.7,3v1.2c0,2.3,1.8,4.3,5.5,6.1
			l11.9,6.1c3.8,1.7,6.3,3.6,7.7,5.9c1.4,2.3,2.1,5.2,2.1,8.8C1082.1,1422,1076.7,1426.7,1066,1426.7z"/>
		<path class="st11" d="M1099.8,1444.2h-5.7c-1.2,0-1.8-0.6-1.8-1.8v-5.5c0-1.3,0.6-1.9,1.8-1.9h2.5c4.4,0,7.5-0.9,9.2-2.6
			c1.7-1.7,3.1-4.6,4.3-8.6h-4.3c-1.1,0-1.8-0.6-2.3-1.8l-14.4-48.6c-0.3-1.2,0.2-1.8,1.4-1.8h7.3c1.2,0,1.9,0.6,2.2,1.8l11.8,42.4
			h0.4l11.8-42.4c0.2-1.2,0.9-1.8,2.2-1.8h6.9c1.4,0,1.9,0.7,1.7,1.9l-14.8,52.1c-1.7,6.1-4,10.7-7,13.9
			C1109.8,1442.6,1105.5,1444.2,1099.8,1444.2z"/>
		<path class="st11" d="M1163.6,1426.7h-19.9c-1.2,0-1.8-0.6-1.8-1.8v-5.3c0-1.2,0.6-1.7,1.8-1.7h18.2c4.7,0,7-1.6,7-4.9v-1.3
			c0-2.9-1.7-5.1-5.1-6.6l-11.8-5.6c-3.7-1.7-6.4-3.6-8-5.7c-1.7-2.1-2.5-4.8-2.5-8.2c0-9.3,5.2-14,15.5-14h18
			c1.2,0,1.7,0.6,1.7,1.8v5.3c0,1.2-0.6,1.8-1.7,1.8h-15.8c-2.2,0-3.8,0.4-5,1.1c-1.2,0.8-1.7,1.8-1.7,3v1.2c0,2.3,1.8,4.3,5.5,6.1
			l11.9,6.1c3.8,1.7,6.3,3.6,7.7,5.9c1.4,2.3,2.1,5.2,2.1,8.8C1179.8,1422,1174.4,1426.7,1163.6,1426.7z"/>
		<path class="st11" d="M1192.6,1380.7h-5.2c-0.7,0-1.2-0.1-1.5-0.4c-0.3-0.3-0.4-0.7-0.4-1.4v-5.6c0-1.2,0.6-1.8,1.8-1.8h5.2
			c0.7,0,1.1-0.4,1.1-1.1v-9.7c0-1.2,0.6-1.8,1.9-1.8h6.8c1.2,0,1.8,0.6,1.8,1.8v9.7c0,0.7,0.4,1.1,1.2,1.1h10.1
			c1.3,0,1.9,0.6,1.9,1.8v5.6c0,1.2-0.6,1.7-1.9,1.7h-10.1c-0.8,0-1.2,0.4-1.2,1.1v27.8c0,5.3,2.7,7.9,8.1,7.9h4.2
			c1.3,0,1.9,0.6,1.9,1.8v5.6c0,1.2-0.6,1.7-1.9,1.7h-5.8c-5.3,0-9.5-1.4-12.6-4.3c-3-2.9-4.5-7-4.5-12.2v-28.4
			C1193.7,1381,1193.4,1380.7,1192.6,1380.7z"/>
		<path class="st11" d="M1268.1,1426.7h-23.4c-5.3,0-9.5-1.5-12.4-4.4c-2.9-3-4.4-7.1-4.4-12.3v-21.7c0-5.3,1.5-9.5,4.4-12.4
			s7.1-4.4,12.4-4.4h8.9c5.3,0,9.5,1.5,12.5,4.4c3,2.9,4.4,7.1,4.4,12.4v13.8c0,1.3-0.6,1.9-1.9,1.9h-29c-0.8,0-1.2,0.4-1.2,1.1v4.7
			c0,5.3,2.6,7.9,7.9,7.9h21.9c1.3,0,1.9,0.7,1.9,1.9v5.4C1270.1,1426.1,1269.4,1426.7,1268.1,1426.7z M1239.5,1396.6h19.4
			c0.7,0,1.1-0.4,1.1-1.1v-6.9c0-2.7-0.6-4.7-1.8-6c-1.2-1.3-3.2-1.9-6-1.9h-6c-2.7,0-4.7,0.6-6,1.9c-1.2,1.3-1.8,3.3-1.8,6v6.9
			C1238.5,1396.2,1238.8,1396.6,1239.5,1396.6z"/>
		<path class="st11" d="M1291.1,1426.7h-6.8c-1.2,0-1.8-0.6-1.8-1.8v-51.5c0-1.2,0.6-1.8,1.8-1.8h6.8c1.2,0,1.8,0.6,1.8,1.8v3.9h0.4
			c2.1-3.8,5.9-5.7,11.5-5.7h3.6c6.3,0,10.8,2.4,13.4,7.1c1.2-2.3,2.9-4.1,5.3-5.3c2.4-1.2,4.9-1.8,7.7-1.8h3.5
			c5.3,0,9.3,1.5,12.1,4.4c2.8,2.9,4.2,7.1,4.2,12.4v36.6c0,1.2-0.6,1.8-1.8,1.8h-6.9c-1.2,0-1.8-0.6-1.8-1.8v-36.2
			c0-5.3-2.6-8-7.8-8h-3.1c-6,0-9,3.1-9,9.4v34.8c0,1.2-0.7,1.8-1.9,1.8h-6.8c-1.2,0-1.8-0.6-1.8-1.8v-36.2c0-5.3-2.6-8-7.8-8h-3.8
			c-5.9,0-8.9,3.1-8.9,9.2v35C1292.9,1426.1,1292.3,1426.7,1291.1,1426.7z"/>
		<path class="st11" d="M1387.3,1426.7h-19.9c-1.2,0-1.8-0.6-1.8-1.8v-5.3c0-1.2,0.6-1.7,1.8-1.7h18.2c4.7,0,7-1.6,7-4.9v-1.3
			c0-2.9-1.7-5.1-5.1-6.6l-11.8-5.6c-3.7-1.7-6.4-3.6-8-5.7c-1.7-2.1-2.5-4.8-2.5-8.2c0-9.3,5.2-14,15.5-14h18
			c1.2,0,1.7,0.6,1.7,1.8v5.3c0,1.2-0.6,1.8-1.7,1.8h-15.8c-2.2,0-3.8,0.4-5,1.1c-1.2,0.8-1.7,1.8-1.7,3v1.2c0,2.3,1.8,4.3,5.5,6.1
			l11.9,6.1c3.8,1.7,6.3,3.6,7.7,5.9c1.4,2.3,2.1,5.2,2.1,8.8C1403.5,1422,1398.1,1426.7,1387.3,1426.7z"/>
	</g>
</g>
</svg>
