<svg xmlns="http://www.w3.org/2000/svg" xmlns:xlink="http://www.w3.org/1999/xlink" viewBox="0 0 156.5 54"><defs><style>.cls-1{isolation:isolate;}.cls-2{opacity:0.75;mix-blend-mode:multiply;}.cls-3{fill:#3393b9;}.cls-4,.cls-6{fill:none;stroke:#fff;}.cls-4{stroke-miterlimit:10;}.cls-5{fill:#fff;}.cls-6{stroke-linecap:round;stroke-linejoin:round;stroke-width:2px;}</style></defs><title>backto</title><g class="cls-1"><g id="Layer_1" data-name="Layer 1"><image class="cls-2" width="165" height="67" transform="translate(-3.6 -6.98)" xlink:href="backto1.png"/><rect class="cls-3" x="12.09" y="9.22" width="133.7" height="34.59" rx="7.01" ry="7.01"/><rect class="cls-4" x="12.09" y="9.22" width="133.7" height="34.59" rx="7.01" ry="7.01"/><path class="cls-5" d="M42.68,31.57a13.57,13.57,0,0,1-2.25-.14,0.61,0.61,0,0,1-.62-0.7V22.54a0.59,0.59,0,0,1,.58-0.7,16.25,16.25,0,0,1,2.17-.13c2.35,0,4,.68,4,2.64v0.26a2,2,0,0,1-1.2,2,2,2,0,0,1,1.26,2v0.22C46.63,30.83,45.1,31.57,42.68,31.57Zm2.13-7.12c0-.91-0.58-1.25-2.25-1.25l-0.95,0v2.64h1.65c1.21,0,1.55-.57,1.55-1.23V24.45Zm0.05,4.12a1.34,1.34,0,0,0-1.6-1.38H41.62v2.86l1.07,0c1.66,0,2.18-.43,2.18-1.34V28.57Z"/><path class="cls-5" d="M55.2,31.47H53.82a0.28,0.28,0,0,1-.25-0.22L53,28.78H50l-0.6,2.47a0.28,0.28,0,0,1-.25.22H47.76a0.22,0.22,0,0,1-.23-0.22,0.6,0.6,0,0,0,0-.07L49.68,23a1.89,1.89,0,0,1,3.61,0l2.13,8.15a0.6,0.6,0,0,0,0,.07A0.22,0.22,0,0,1,55.2,31.47Zm-3.51-8c0-.16-0.08-0.21-0.21-0.21s-0.17.05-.21,0.21L50.34,27.3h2.29Z"/><path class="cls-5" d="M62.13,31.37a9.74,9.74,0,0,1-2.05.21c-1.56,0-3.68-.77-3.68-4V25.69c0-3.26,2.12-4,3.68-4a9.84,9.84,0,0,1,2.05.21,0.31,0.31,0,0,1,.29.3v0.87a0.24,0.24,0,0,1-.26.27h0c-0.46,0-1.34-.1-2-0.1-1.09,0-1.88.58-1.88,2.43V27.6C58.22,29.4,59,30,60.1,30c0.69,0,1.57-.06,2-0.1h0a0.24,0.24,0,0,1,.26.27v0.87A0.31,0.31,0,0,1,62.13,31.37Z"/><path class="cls-5" d="M70.8,31.47H69.06a0.3,0.3,0,0,1-.3-0.14l-3-4.43v4.32a0.26,0.26,0,0,1-.26.26H64.24A0.26,0.26,0,0,1,64,31.21V22.07a0.25,0.25,0,0,1,.26-0.25h1.29a0.25,0.25,0,0,1,.26.25V26.2L69,21.93a0.32,0.32,0,0,1,.3-0.1h1.48c0.17,0,.25.07,0.25,0.16a0.37,0.37,0,0,1-.09.21l-3.33,4.3,3.35,4.71a0.36,0.36,0,0,1,.06.16C71,31.43,70.93,31.47,70.8,31.47Z"/><path class="cls-5" d="M81.55,23.32H79.28v7.89a0.26,0.26,0,0,1-.26.26H77.73a0.26,0.26,0,0,1-.26-0.26V23.32H75.19a0.24,0.24,0,0,1-.26-0.23v-1a0.25,0.25,0,0,1,.26-0.25h6.36a0.25,0.25,0,0,1,.26.25v1A0.24,0.24,0,0,1,81.55,23.32Z"/><path class="cls-5" d="M86.56,31.57c-2.14,0-3.71-1.2-3.71-4.06V25.76c0-2.86,1.56-4.06,3.71-4.06s3.71,1.2,3.71,4.06v1.75C90.26,30.38,88.7,31.57,86.56,31.57Zm1.89-5.81c0-1.72-.61-2.48-1.89-2.48s-1.88.77-1.88,2.48v1.75c0,1.72.61,2.48,1.88,2.48s1.89-.77,1.89-2.48V25.76Z"/><path class="cls-5" d="M103.33,31.47H102a0.25,0.25,0,0,1-.21-0.26v-6c0-.09,0-0.13,0-0.13a0.21,0.21,0,0,0-.06.08l-1.25,2.48a0.47,0.47,0,0,1-.42.22H98.72a0.47,0.47,0,0,1-.42-0.22L97,25.11A0.21,0.21,0,0,0,97,25s0,0,0,.13v6a0.25,0.25,0,0,1-.21.26H95.42a0.2,0.2,0,0,1-.22-0.2V22.33a0.52,0.52,0,0,1,.52-0.52h1.07a0.55,0.55,0,0,1,.48.31l2,4a0.27,0.27,0,0,0,.14.18,0.27,0.27,0,0,0,.14-0.18l2-4a0.55,0.55,0,0,1,.48-0.31H103a0.52,0.52,0,0,1,.52.52v8.94A0.2,0.2,0,0,1,103.33,31.47Z"/><path class="cls-5" d="M111,31.39a12.2,12.2,0,0,1-2.47.18c-1.69,0-3-.46-3-2.67V24.37c0-2.21,1.31-2.67,3-2.67a12.2,12.2,0,0,1,2.47.18,0.24,0.24,0,0,1,.26.27V23a0.26,0.26,0,0,1-.26.26h-2.65c-0.75,0-1,.26-1,1.12v1.4h3.52a0.26,0.26,0,0,1,.26.26V27a0.26,0.26,0,0,1-.26.26h-3.52v1.68c0,0.86.27,1.12,1,1.12H111a0.26,0.26,0,0,1,.26.26v0.83A0.24,0.24,0,0,1,111,31.39Z"/><path class="cls-5" d="M119.77,31.47h-1.31a0.7,0.7,0,0,1-.79-0.47l-2.89-6.33a0.14,0.14,0,0,0-.12-0.1s-0.07,0-.07.1v6.54a0.25,0.25,0,0,1-.25.26h-1.1a0.26,0.26,0,0,1-.26-0.26V22.33a0.52,0.52,0,0,1,.52-0.52h1.4a0.55,0.55,0,0,1,.57.42l3,6.68a0.14,0.14,0,0,0,.1.1,0.1,0.1,0,0,0,.06-0.12V22.06a0.24,0.24,0,0,1,.25-0.25H120a0.24,0.24,0,0,1,.25.25v8.89A0.52,0.52,0,0,1,119.77,31.47Z"/><path class="cls-5" d="M125.75,31.57c-2.09,0-3.58-.91-3.58-3.68V22.06a0.25,0.25,0,0,1,.26-0.25h1.29a0.25,0.25,0,0,1,.26.25V27.9c0,1.48.36,2.18,1.77,2.18s1.77-.7,1.77-2.18V22.06a0.25,0.25,0,0,1,.26-0.25h1.29a0.25,0.25,0,0,1,.26.25V27.9C129.33,30.66,127.84,31.57,125.75,31.57Z"/><polyline class="cls-6" points="32.83 22.04 27.57 26.84 32.84 31.63"/></g></g></svg>