<svg id="Layer_1" data-name="Layer 1" xmlns="http://www.w3.org/2000/svg" xmlns:xlink="http://www.w3.org/1999/xlink" viewBox="0 0 90.77 44.46">
  <defs>
    <style>
      .cls-1, .cls-2, .cls-5 {
        fill: #8c908a;
      }

      .cls-1 {
        clip-rule: evenodd;
      }

      .cls-2 {
        fill-rule: evenodd;
      }

      .cls-3 {
        clip-path: url(#clip-path);
      }

      .cls-4 {
        fill: #d2dbe2;
      }

      .cls-6 {
        fill: #3c3f3b;
      }

      .cls-7 {
        fill: #1d1d1b;
      }
    </style>
    <clipPath id="clip-path">
      <path class="cls-1" d="M3.21,20.93c0,0.25.19,0.26,0.41,0.31a7.34,7.34,0,0,1,1.21.34A36.91,36.91,0,0,1,9.16,24a6.78,6.78,0,0,0,2.36.82,7.33,7.33,0,0,0,2.26-.16,2,2,0,0,0,.34-0.11,5.45,5.45,0,0,0,.55,2.24,10.5,10.5,0,0,0,1.49,1.8A3.5,3.5,0,0,1,17,30.77c0,0.25-.11.66,0.29,0.61a6.31,6.31,0,0,0,1.15-.26,4.51,4.51,0,0,0,3-3,11.25,11.25,0,0,0,.19-4.43,38.41,38.41,0,0,1,4.92-.62,38.21,38.21,0,0,1,4.76.27A79.38,79.38,0,0,1,41.42,25a64.66,64.66,0,0,1,9.66,2.87c1.58,0.63,3.17,1.27,4.68,2a31.14,31.14,0,0,0,4.58,1.94c1.44,0.47,2.9.84,4.38,1.19-1.92,2.8-5.61,3.77-8.83,4a0.27,0.27,0,0,0-.29.27,0.44,0.44,0,0,0,.46.31c0.38,0.1.76,0.16,1.15,0.23a24.22,24.22,0,0,0,2.48.3,17.78,17.78,0,0,0,2.6,0,13.31,13.31,0,0,0,2.41-.34A23.46,23.46,0,0,0,69.51,36a13,13,0,0,0,2.08-1.33c0.25-.19,1-0.64,1-0.64l1.15,0.11a47.29,47.29,0,0,1,5,.69,16.31,16.31,0,0,1,2.38.65,22,22,0,0,0,2.37.79c0.69,0.17,1.72.51,2.32-.05a1.76,1.76,0,0,0,.25-0.45c0.11-.17.28-0.29,0.39-0.48a1.18,1.18,0,0,0,0-1.13,3.7,3.7,0,0,0-.76-1c-0.14-.13-0.31-0.25-0.46-0.37L85,32.68c-0.14-.1-0.09-0.09,0-0.24a4,4,0,0,0,0-2.31,11.38,11.38,0,0,0-2.41-4.27A25,25,0,0,0,79,22.36a40.64,40.64,0,0,0-8.48-5.22,48.34,48.34,0,0,0-4.75-1.89l-0.57-.19a0.61,0.61,0,0,1-.37-0.45c-0.17-.36-0.33-0.72-0.53-1.06a18.19,18.19,0,0,0-1.36-2.09A16.4,16.4,0,0,0,59.34,8a19.41,19.41,0,0,0-2.09-1.22c-0.25-.13-0.72-0.46-0.84,0a1.16,1.16,0,0,0,.13.5,4.8,4.8,0,0,1,.13.62,4.45,4.45,0,0,1-.22,2.39,4.9,4.9,0,0,1-1.56,1.87,8.17,8.17,0,0,1-1.06.67,1.16,1.16,0,0,1-.45.21H52.6c-0.83,0-1.67,0-2.5.09a59.12,59.12,0,0,0-10,1.5c-3.31.79-6.6,1.65-9.86,2.65s-6.61,2-9.93,3c-1.54.45-3.11,0.93-4.67,0.31-0.81-.31-1.6-0.66-2.42-0.91a8.69,8.69,0,0,0-2.34-.33A17.81,17.81,0,0,0,6,20c-0.81.2-1.6,0.44-2.39,0.68C3.45,20.68,3.19,20.73,3.21,20.93Z"/>
    </clipPath>
  </defs>
  <title>a1</title>
  <g id="a1">
    <g>
      <path class="cls-2" d="M3.21,20.93c0,0.25.19,0.26,0.41,0.31a7.34,7.34,0,0,1,1.21.34A36.91,36.91,0,0,1,9.16,24a6.78,6.78,0,0,0,2.36.82,7.33,7.33,0,0,0,2.26-.16,2,2,0,0,0,.34-0.11,5.45,5.45,0,0,0,.55,2.24,10.5,10.5,0,0,0,1.49,1.8A3.5,3.5,0,0,1,17,30.77c0,0.25-.11.66,0.29,0.61a6.31,6.31,0,0,0,1.15-.26,4.51,4.51,0,0,0,3-3,11.25,11.25,0,0,0,.19-4.43,38.41,38.41,0,0,1,4.92-.62,38.21,38.21,0,0,1,4.76.27A79.38,79.38,0,0,1,41.42,25a64.66,64.66,0,0,1,9.66,2.87c1.58,0.63,3.17,1.27,4.68,2a31.14,31.14,0,0,0,4.58,1.94c1.44,0.47,2.9.84,4.38,1.19-1.92,2.8-5.61,3.77-8.83,4a0.27,0.27,0,0,0-.29.27,0.44,0.44,0,0,0,.46.31c0.38,0.1.76,0.16,1.15,0.23a24.22,24.22,0,0,0,2.48.3,17.78,17.78,0,0,0,2.6,0,13.31,13.31,0,0,0,2.41-.34A23.46,23.46,0,0,0,69.51,36a13,13,0,0,0,2.08-1.33c0.25-.19,1-0.64,1-0.64l1.15,0.11a47.29,47.29,0,0,1,5,.69,16.31,16.31,0,0,1,2.38.65,22,22,0,0,0,2.37.79c0.69,0.17,1.72.51,2.32-.05a1.76,1.76,0,0,0,.25-0.45c0.11-.17.28-0.29,0.39-0.48a1.18,1.18,0,0,0,0-1.13,3.7,3.7,0,0,0-.76-1c-0.14-.13-0.31-0.25-0.46-0.37L85,32.68c-0.14-.1-0.09-0.09,0-0.24a4,4,0,0,0,0-2.31,11.38,11.38,0,0,0-2.41-4.27A25,25,0,0,0,79,22.36a40.64,40.64,0,0,0-8.48-5.22,48.34,48.34,0,0,0-4.75-1.89l-0.57-.19a0.61,0.61,0,0,1-.37-0.45c-0.17-.36-0.33-0.72-0.53-1.06a18.19,18.19,0,0,0-1.36-2.09A16.4,16.4,0,0,0,59.34,8a19.41,19.41,0,0,0-2.09-1.22c-0.25-.13-0.72-0.46-0.84,0a1.16,1.16,0,0,0,.13.5,4.8,4.8,0,0,1,.13.62,4.45,4.45,0,0,1-.22,2.39,4.9,4.9,0,0,1-1.56,1.87,8.17,8.17,0,0,1-1.06.67,1.16,1.16,0,0,1-.45.21H52.6c-0.83,0-1.67,0-2.5.09a59.12,59.12,0,0,0-10,1.5c-3.31.79-6.6,1.65-9.86,2.65s-6.61,2-9.93,3c-1.54.45-3.11,0.93-4.67,0.31-0.81-.31-1.6-0.66-2.42-0.91a8.69,8.69,0,0,0-2.34-.33A17.81,17.81,0,0,0,6,20c-0.81.2-1.6,0.44-2.39,0.68C3.45,20.68,3.19,20.73,3.21,20.93Z"/>
      <g class="cls-3">
        <path class="cls-4" d="M21.6,23.68s11.75-5.06,20.62-2.53S55.49,24.47,58.53,26s8.71,4.89,13,5.31c6.54,0.64,8.93,1.1,15.17,4.88s5,4.5,5,4.5L46.37,43.46,24.59,31.31Z"/>
        <path class="cls-5" d="M72.55,34a16.19,16.19,0,0,0,2.3-4.63L67.4,28.29s-0.8,3.3-2.67,4.72S53,34.33,53,34.33l-0.38,6.42,16.9-.09Z"/>
        <path class="cls-6" d="M90.44,32.56s-10.3.59-17.78-5.54c-6.16-5-12.36-8.64-22-8.85s-18.23-1.41-31.91,4.36A242,242,0,0,0-4.33,33.65l0.86-18L50.63-4.41l35.5,21.17Z"/>
      </g>
    </g>
    <ellipse class="cls-5" cx="76.57" cy="29.39" rx="1.46" ry="1.4"/>
    <ellipse class="cls-7" cx="76.57" cy="29.39" rx="0.82" ry="0.79"/>
  </g>
</svg>
