<svg id="Layer_1" data-name="Layer 1" xmlns="http://www.w3.org/2000/svg" xmlns:xlink="http://www.w3.org/1999/xlink" viewBox="0 0 90.77 44.46">
  <defs>
    <style>
      .cls-1 {
        fill: none;
      }

      .cls-2 {
        fill: #a86d9f;
      }

      .cls-3 {
        clip-path: url(#clip-path);
      }

      .cls-4 {
        fill: #c39ac6;
      }

      .cls-5 {
        clip-path: url(#clip-path-2);
      }

      .cls-6 {
        fill: #043c52;
      }

      .cls-7 {
        clip-path: url(#clip-path-3);
      }

      .cls-8 {
        clip-path: url(#clip-path-4);
      }

      .cls-9 {
        clip-path: url(#clip-path-5);
      }

      .cls-10 {
        clip-path: url(#clip-path-6);
      }
    </style>
    <clipPath id="clip-path">
      <rect class="cls-1" x="-4.95" width="95.73" height="44.47"/>
    </clipPath>
    <clipPath id="clip-path-2">
      <path class="cls-2" d="M91.37,26.84S75,27.94,68.47,30.24c0,0-5.78,1.93-7.41-2S62,22.14,65.15,21s22.25-6.31,29.18-1.82C99.59,22.57,94.17,26.86,91.37,26.84Z"/>
    </clipPath>
    <clipPath id="clip-path-3">
      <path class="cls-2" d="M55.84,6.28s11.58-11.59,17.61-15c0,0,5.26-3.09,3.38-6.88s-5.24-3.33-8.18-1.7S49.27-4.69,48.1,3.48C47.22,9.67,54,8.41,55.84,6.28Z"/>
    </clipPath>
    <clipPath id="clip-path-4">
      <path class="cls-2" d="M71.74,46.29S59.15,35.8,55.21,30.1c0,0-3.54-5-7.16-2.75s-2.85,5.51-1,8.29S61.38,53.8,69.63,54.23C75.89,54.56,74,47.91,71.74,46.29Z"/>
    </clipPath>
    <clipPath id="clip-path-5">
      <path class="cls-2" d="M28.79,5.54S43.86,12,50.73,12.9c0,0,6,.9,5.7,5.12s-3.62,5-7,4.62S26.79,18.17,22.66,11C19.52,5.6,26.3,4.24,28.79,5.54Z"/>
    </clipPath>
    <clipPath id="clip-path-6">
      <path class="cls-2" d="M12.6,39.77s15.54-5.2,22.47-5.56c0,0,6.09-.41,6.1-4.65s-3.2-5.32-6.56-5.17S11.63,27,6.94,33.81C3.37,39,10,40.86,12.6,39.77Z"/>
    </clipPath>
  </defs>
  <title>a10</title>
  <g id="a10">
    <g class="cls-3">
      <g>
        <path class="cls-4" d="M66-17.44c-3,2-18.16,12.16-19.38,20.7-0.48,3.37,1,4.89,2,5.49,2.13,1.36,5.25.78,7.23-.5a5.39,5.39,0,0,0,1.12-.95C57.6,6.64,67.34-3,73.18-6.81q0.53-.34,1-0.61l0.26-.16c2.94-1.9,5.46-5.18,3.72-8.68a6.35,6.35,0,0,0-3.78-3.48c-1.88-.58-4.06-0.2-6.48,1.13C67.45-18.36,66.77-17.94,66-17.44Z"/>
        <g>
          <path class="cls-4" d="M66.78,18.91c3.46-1,21.11-5.69,28.36-1,2.86,1.85,3,4,2.85,5.09-0.37,2.5-2.86,4.46-5.13,5.11a5.4,5.4,0,0,1-1.45.22c-0.94.07-14.62,1.05-21.33,3q-0.6.17-1.12,0.35l-0.3.09c-3.37,1-7.5.7-9-2.9a6.33,6.33,0,0,1-.15-5.13c0.79-1.8,2.51-3.19,5.11-4.13C65.13,19.4,65.89,19.16,66.78,18.91Z"/>
          <g>
            <path class="cls-2" d="M91.37,26.84S75,27.94,68.47,30.24c0,0-5.78,1.93-7.41-2S62,22.14,65.15,21s22.25-6.31,29.18-1.82C99.59,22.57,94.17,26.86,91.37,26.84Z"/>
            <g class="cls-5">
              <circle class="cls-6" cx="82.5" cy="18.78" r="0.69" transform="translate(-1.99 23.39) rotate(-15.94)"/>
              <circle class="cls-6" cx="89.89" cy="18.03" r="0.69" transform="translate(-1.49 25.39) rotate(-15.94)"/>
              <circle class="cls-6" cx="83.93" cy="23.96" r="0.69" transform="translate(-3.35 23.98) rotate(-15.94)"/>
              <circle class="cls-6" cx="84" cy="21.12" r="0.69" transform="translate(-2.57 23.89) rotate(-15.94)"/>
              <circle class="cls-6" cx="87.27" cy="25.01" r="0.69" transform="translate(-3.51 24.94) rotate(-15.94)"/>
              <circle class="cls-6" cx="88.87" cy="20.49" r="0.69" transform="translate(-2.21 25.2) rotate(-15.94)"/>
              <circle class="cls-6" cx="73.7" cy="20.7" r="0.69" transform="matrix(0.96, -0.27, 0.27, 0.96, -2.85, 21.04)"/>
              <circle class="cls-6" cx="86.68" cy="22.36" r="0.69" transform="translate(-2.81 24.67) rotate(-15.94)"/>
              <circle class="cls-6" cx="81.37" cy="22.04" r="0.69" transform="translate(-2.92 23.2) rotate(-15.94)"/>
              <circle class="cls-6" cx="62.69" cy="27.16" r="0.69" transform="translate(-5.05 18.27) rotate(-15.94)"/>
              <circle class="cls-6" cx="82.5" cy="26.38" r="0.69" transform="translate(-4.07 23.68) rotate(-15.94)"/>
              <circle class="cls-6" cx="89.45" cy="25.72" r="0.69" transform="translate(-3.62 25.56) rotate(-15.94)"/>
              <circle class="cls-6" cx="80.49" cy="24.62" r="0.69" transform="translate(-3.67 23.06) rotate(-15.94)"/>
              <circle class="cls-6" cx="79.7" cy="19.58" r="0.69" transform="translate(-2.31 22.65) rotate(-15.94)"/>
              <circle class="cls-6" cx="76.3" cy="19.52" r="0.69" transform="matrix(0.96, -0.27, 0.27, 0.96, -2.43, 21.71)"/>
              <circle class="cls-6" cx="77.97" cy="22.14" r="0.69" transform="translate(-3.08 22.27) rotate(-15.94)"/>
              <circle class="cls-6" cx="71.05" cy="20.17" r="0.69" transform="translate(-2.81 20.29) rotate(-15.94)"/>
              <circle class="cls-6" cx="85.05" cy="26.19" r="0.69" transform="translate(-3.92 24.37) rotate(-15.94)"/>
              <circle class="cls-6" cx="79.45" cy="26.92" r="0.69" transform="translate(-4.34 22.86) rotate(-15.94)"/>
              <circle class="cls-6" cx="89.76" cy="23.27" r="0.69" transform="translate(-2.94 25.55) rotate(-15.94)"/>
              <circle class="cls-6" cx="86.22" cy="18.86" r="0.69" transform="translate(-1.86 24.41) rotate(-15.94)"/>
              <circle class="cls-6" cx="74.57" cy="23.16" r="0.69" transform="translate(-3.49 21.38) rotate(-15.94)"/>
              <circle class="cls-6" cx="76.6" cy="27.58" r="0.69" transform="translate(-4.63 22.1) rotate(-15.94)"/>
              <circle class="cls-6" cx="74.14" cy="26" r="0.69" transform="translate(-4.29 21.37) rotate(-15.94)"/>
              <circle class="cls-6" cx="60.94" cy="24.85" r="0.69" transform="translate(-4.48 17.7) rotate(-15.94)"/>
              <circle class="cls-6" cx="77.33" cy="24.98" r="0.69" transform="translate(-3.89 22.2) rotate(-15.94)"/>
              <circle class="cls-6" cx="71.64" cy="24.49" r="0.69" transform="translate(-3.97 20.62) rotate(-15.94)"/>
              <circle class="cls-6" cx="67.39" cy="20.29" r="0.69" transform="translate(-2.98 19.29) rotate(-15.94)"/>
              <circle class="cls-6" cx="70.81" cy="27.44" r="0.69" transform="translate(-4.81 20.51) rotate(-15.94)"/>
              <circle class="cls-6" cx="70.03" cy="22.4" r="0.69" transform="translate(-3.46 20.1) rotate(-15.94)"/>
              <circle class="cls-6" cx="66.62" cy="22.34" r="0.69" transform="translate(-3.57 19.16) rotate(-15.94)"/>
              <circle class="cls-6" cx="68.3" cy="24.96" r="0.69" transform="translate(-4.23 19.72) rotate(-15.94)"/>
              <circle class="cls-6" cx="63.71" cy="23.41" r="0.69" transform="translate(-3.98 18.4) rotate(-15.94)"/>
              <circle class="cls-6" cx="69.13" cy="29.92" r="0.69" transform="translate(-5.56 20.14) rotate(-15.94)"/>
              <circle class="cls-6" cx="64.9" cy="25.98" r="0.69" transform="translate(-4.64 18.83) rotate(-15.94)"/>
              <circle class="cls-6" cx="64.46" cy="28.82" r="0.69" transform="matrix(0.96, -0.27, 0.27, 0.96, -5.44, 18.82)"/>
              <circle class="cls-6" cx="67.66" cy="27.8" r="0.69" transform="translate(-5.03 19.65) rotate(-15.94)"/>
              <circle class="cls-6" cx="73.45" cy="28.87" r="0.69" transform="matrix(0.96, -0.27, 0.27, 0.96, -5.1, 21.29)"/>
            </g>
          </g>
        </g>
        <g>
          <path class="cls-2" d="M55.84,6.28s11.58-11.59,17.61-15c0,0,5.26-3.09,3.38-6.88s-5.24-3.33-8.18-1.7S49.27-4.69,48.1,3.48C47.22,9.67,54,8.41,55.84,6.28Z"/>
          <g class="cls-7">
            <circle class="cls-6" cx="50.16" cy="-0.62" r="0.69" transform="translate(8.4 27.18) rotate(-32.94)"/>
            <circle class="cls-6" cx="49.32" cy="4.95" r="0.69" transform="translate(5.24 27.61) rotate(-32.94)"/>
            <circle class="cls-6" cx="57.15" cy="2" r="0.69" transform="translate(8.1 31.4) rotate(-32.94)"/>
            <circle class="cls-6" cx="52.69" cy="0.23" r="0.69" transform="translate(8.34 28.69) rotate(-32.94)"/>
            <circle class="cls-6" cx="50.73" cy="2.67" r="0.69" transform="translate(6.7 28.01) rotate(-32.94)"/>
            <circle class="cls-6" cx="55.54" cy="-0.19" r="0.69" transform="translate(9.03 30.17) rotate(-32.94)"/>
            <circle class="cls-6" cx="54.38" cy="6.05" r="0.69" transform="translate(5.46 30.54) rotate(-32.94)"/>
            <circle class="cls-6" cx="56.26" cy="4.1" r="0.69" transform="translate(6.81 31.25) rotate(-32.94)"/>
            <circle class="cls-6" cx="59.51" cy="1.1" r="0.69" transform="translate(8.97 32.53) rotate(-32.94)"/>
            <circle class="cls-6" cx="54.2" cy="2.73" r="0.69" transform="translate(7.23 29.91) rotate(-32.94)"/>
            <circle class="cls-6" cx="51.98" cy="5.54" r="0.69" transform="translate(5.34 29.16) rotate(-32.94)"/>
          </g>
        </g>
      </g>
      <g>
        <path class="cls-4" d="M47.18,38.29c2.22,2.83,13.74,17,22.37,17.44,3.41,0.18,4.78-1.46,5.3-2.45C76,51,75.16,48,73.71,46.13a5.39,5.39,0,0,0-1-1c-0.72-.6-11.22-9.43-15.52-14.91q-0.39-.49-0.7-0.95L56.26,29c-2.16-2.75-5.65-5-9-2.93a6.34,6.34,0,0,0-3.14,4.06c-0.42,1.92.16,4.06,1.71,6.34C46.13,36.92,46.61,37.56,47.18,38.29Z"/>
        <g>
          <path class="cls-2" d="M71.74,46.29S59.15,35.8,55.21,30.1c0,0-3.54-5-7.16-2.75s-2.85,5.51-1,8.29S61.38,53.8,69.63,54.23C75.89,54.56,74,47.91,71.74,46.29Z"/>
          <g class="cls-8">
            <circle class="cls-6" cx="64.03" cy="44.25" r="0.69" transform="matrix(0.79, -0.62, 0.62, 0.79, -13.66, 48.95)"/>
            <circle class="cls-6" cx="53.84" cy="40.9" r="0.69" transform="matrix(0.79, -0.62, 0.62, 0.79, -13.76, 41.95)"/>
            <circle class="cls-6" cx="60.83" cy="44.31" r="0.69" transform="translate(-14.38 46.99) rotate(-38.11)"/>
            <circle class="cls-6" cx="48.73" cy="29.21" r="0.69" transform="translate(-7.64 36.3) rotate(-38.11)"/>
            <circle class="cls-6" cx="64.3" cy="41.46" r="0.69" transform="translate(-11.88 48.52) rotate(-38.11)"/>
            <circle class="cls-6" cx="61.64" cy="41.7" r="0.69" transform="translate(-12.6 46.93) rotate(-38.11)"/>
            <circle class="cls-6" cx="55.25" cy="43.37" r="0.69" transform="matrix(0.79, -0.62, 0.62, 0.79, -14.99, 43.35)"/>
            <circle class="cls-6" cx="58.14" cy="42.24" r="0.69" transform="translate(-13.67 44.89) rotate(-38.11)"/>
            <circle class="cls-6" cx="51.38" cy="39.77" r="0.69" transform="translate(-13.59 40.19) rotate(-38.11)"/>
            <circle class="cls-6" cx="66.25" cy="43.1" r="0.69" transform="translate(-12.48 50.08) rotate(-38.11)"/>
            <circle class="cls-6" cx="62.15" cy="39.23" r="0.69" transform="translate(-10.96 46.72) rotate(-38.11)"/>
            <circle class="cls-6" cx="55.99" cy="39.41" r="0.69" transform="translate(-12.39 42.96) rotate(-38.11)"/>
            <circle class="cls-6" cx="60.22" cy="37.03" r="0.69" transform="translate(-10.02 45.06) rotate(-38.11)"/>
            <circle class="cls-6" cx="57.31" cy="36.86" r="0.69" transform="translate(-10.53 43.23) rotate(-38.11)"/>
            <circle class="cls-6" cx="45.94" cy="30.05" r="0.69" transform="translate(-8.75 34.76) rotate(-38.11)"/>
            <circle class="cls-6" cx="59.29" cy="39.56" r="0.69" transform="translate(-11.78 45.03) rotate(-38.11)"/>
            <circle class="cls-6" cx="54.4" cy="36.62" r="0.69" transform="translate(-11 41.38) rotate(-38.11)"/>
            <circle class="cls-6" cx="48.49" cy="37.53" r="0.69" transform="translate(-12.82 37.93) rotate(-38.11)"/>
            <circle class="cls-6" cx="55.46" cy="33.75" r="0.69" transform="translate(-9.01 41.42) rotate(-38.11)"/>
            <circle class="cls-6" cx="51.86" cy="37.36" r="0.69" transform="translate(-12 39.97) rotate(-38.11)"/>
            <circle class="cls-6" cx="49.07" cy="35.42" r="0.69" transform="translate(-11.4 37.84) rotate(-38.11)"/>
            <circle class="cls-6" cx="51.96" cy="34.28" r="0.69" transform="translate(-10.08 39.38) rotate(-38.11)"/>
            <circle class="cls-6" cx="47.34" cy="32.84" r="0.69" transform="translate(-10.17 36.22) rotate(-38.11)"/>
            <circle class="cls-6" cx="55.56" cy="30.75" r="0.69" transform="translate(-7.13 40.84) rotate(-38.11)"/>
            <circle class="cls-6" cx="49.82" cy="31.46" r="0.69" transform="translate(-8.79 37.45) rotate(-38.11)"/>
            <circle class="cls-6" cx="51.13" cy="28.91" r="0.69" transform="translate(-6.94 37.72) rotate(-38.11)"/>
            <circle class="cls-6" cx="53.12" cy="31.61" r="0.69" transform="translate(-8.18 39.52) rotate(-38.11)"/>
            <circle class="cls-6" cx="58.44" cy="34.14" r="0.69" transform="translate(-8.61 43.35) rotate(-38.11)"/>
          </g>
        </g>
      </g>
      <path class="cls-4" d="M47.07,23.76c-3.54-.69-21.39-4.52-25.71-12-1.71-2.95-.87-4.92-0.22-5.83C22.61,3.89,25.72,3.27,28,3.72a5.4,5.4,0,0,1,1.39.46c0.87,0.37,13.5,5.7,20.35,7q0.62,0.12,1.16.19l0.31,0.05c3.44,0.67,7,2.78,6.69,6.67a6.34,6.34,0,0,1-2.2,4.63C54.2,24,52,24.48,49.29,24.13,48.77,24.07,48,23.94,47.07,23.76Z"/>
      <g>
        <path class="cls-2" d="M28.79,5.54S43.86,12,50.73,12.9c0,0,6,.9,5.7,5.12s-3.62,5-7,4.62S26.79,18.17,22.66,11C19.52,5.6,26.3,4.24,28.79,5.54Z"/>
        <g class="cls-9">
          <circle class="cls-6" cx="33.02" cy="16.73" r="0.69" transform="translate(10.26 45.93) rotate(-78.94)"/>
          <circle class="cls-6" cx="26.09" cy="14.05" r="0.69" transform="translate(7.3 36.96) rotate(-78.94)"/>
          <circle class="cls-6" cx="34.1" cy="11.47" r="0.69" transform="translate(16.3 42.74) rotate(-78.94)"/>
          <circle class="cls-6" cx="32.75" cy="13.97" r="0.69" transform="translate(12.75 43.43) rotate(-78.94)"/>
          <circle class="cls-6" cx="23.24" cy="9.2" r="0.69" transform="translate(9.75 30.24) rotate(-78.94)"/>
          <circle class="cls-6" cx="31.6" cy="9.02" r="0.69" transform="translate(16.69 38.3) rotate(-78.94)"/>
          <circle class="cls-6" cx="28.12" cy="12.32" r="0.69" transform="translate(10.63 37.56) rotate(-78.94)"/>
          <circle class="cls-6" cx="41.72" cy="19.02" r="0.69" transform="translate(15.05 56.32) rotate(-78.94)"/>
          <circle class="cls-6" cx="25.4" cy="10.79" r="0.69" transform="translate(9.93 33.64) rotate(-78.94)"/>
          <circle class="cls-6" cx="30.93" cy="11.65" r="0.69" transform="translate(13.56 39.77) rotate(-78.94)"/>
          <circle class="cls-6" cx="27.53" cy="6.3" r="0.69" transform="translate(16.06 32.1) rotate(-78.94)"/>
          <circle class="cls-6" cx="35.51" cy="14.35" r="0.69" transform="translate(14.61 46.45) rotate(-78.94)"/>
          <circle class="cls-6" cx="54.47" cy="18.26" r="0.69" transform="translate(26.1 68.22) rotate(-78.94)"/>
          <circle class="cls-6" cx="36.47" cy="9.97" r="0.69" transform="translate(19.69 43.85) rotate(-78.94)"/>
          <circle class="cls-6" cx="29.99" cy="7.4" r="0.69" transform="translate(16.97 35.41) rotate(-78.94)"/>
          <circle class="cls-6" cx="37.47" cy="12.45" r="0.69" transform="translate(18.06 46.83) rotate(-78.94)"/>
          <circle class="cls-6" cx="35.87" cy="17.29" r="0.69" transform="translate(12.02 49.18) rotate(-78.94)"/>
          <circle class="cls-6" cx="38.88" cy="18.89" r="0.69" transform="translate(12.88 53.42) rotate(-78.94)"/>
          <circle class="cls-6" cx="38.58" cy="15.8" r="0.69" transform="translate(15.67 50.63) rotate(-78.94)"/>
          <circle class="cls-6" cx="43.85" cy="20.7" r="0.69" transform="translate(15.12 59.76) rotate(-78.94)"/>
          <circle class="cls-6" cx="34.13" cy="8.98" r="0.69" transform="translate(18.77 40.75) rotate(-78.94)"/>
          <circle class="cls-6" cx="39.44" cy="10.87" r="0.69" transform="translate(21.2 47.49) rotate(-78.94)"/>
          <circle class="cls-6" cx="28.59" cy="9.44" r="0.69" transform="translate(13.84 35.69) rotate(-78.94)"/>
          <circle class="cls-6" cx="29.74" cy="14.98" r="0.69" transform="translate(9.34 41.29) rotate(-78.94)"/>
          <circle class="cls-6" cx="42.07" cy="16.43" r="0.69" transform="translate(17.87 54.57) rotate(-78.94)"/>
          <circle class="cls-6" cx="42.28" cy="11.58" r="0.69" transform="translate(22.8 50.85) rotate(-78.94)"/>
          <circle class="cls-6" cx="43.75" cy="14.1" r="0.69" transform="translate(21.52 54.34) rotate(-78.94)"/>
          <circle class="cls-6" cx="54.98" cy="21.12" r="0.69" transform="translate(23.7 71.03) rotate(-78.94)"/>
          <circle class="cls-6" cx="40.44" cy="13.56" r="0.69" transform="translate(19.37 50.65) rotate(-78.94)"/>
          <circle class="cls-6" cx="45.29" cy="16.58" r="0.69" transform="translate(20.33 57.85) rotate(-78.94)"/>
          <circle class="cls-6" cx="47.16" cy="22.25" r="0.69" transform="translate(16.27 64.26) rotate(-78.94)"/>
          <circle class="cls-6" cx="47.37" cy="14.33" r="0.69" transform="translate(24.21 58.07) rotate(-78.94)"/>
          <circle class="cls-6" cx="45.77" cy="19.17" r="0.69" transform="translate(18.17 60.42) rotate(-78.94)"/>
          <circle class="cls-6" cx="48.78" cy="20.77" r="0.69" transform="translate(19.03 64.66) rotate(-78.94)"/>
          <circle class="cls-6" cx="48.48" cy="17.68" r="0.69" transform="translate(21.82 61.87) rotate(-78.94)"/>
          <circle class="cls-6" cx="51.87" cy="21.14" r="0.69" transform="translate(21.16 67.99) rotate(-78.94)"/>
          <circle class="cls-6" cx="50" cy="12.88" r="0.69" transform="translate(27.76 59.49) rotate(-78.94)"/>
          <circle class="cls-6" cx="25.48" cy="7.66" r="0.69" transform="translate(13.08 31.2) rotate(-78.94)"/>
          <circle class="cls-6" cx="51.97" cy="18.31" r="0.69" transform="translate(24.03 65.81) rotate(-78.94)"/>
          <circle class="cls-6" cx="53.66" cy="15.99" r="0.69" transform="translate(27.67 65.58) rotate(-78.94)"/>
          <circle class="cls-6" cx="50.34" cy="15.44" r="0.69" transform="translate(25.53 61.89) rotate(-78.94)"/>
          <circle class="cls-6" cx="45.67" cy="11.86" r="0.69" transform="translate(25.26 54.4) rotate(-78.94)"/>
        </g>
      </g>
      <path class="cls-4" d="M32.3,23.09c-3.58.4-21.69,2.77-26.6,9.87-1.94,2.8-1.27,4.83-.69,5.79,1.3,2.17,4.35,3,6.69,2.78a5.4,5.4,0,0,0,1.42-.35C14,40.88,27,36.59,34,35.81q0.62-.07,1.17-0.1l0.31,0c3.48-.39,7.2-2.2,7.21-6.11a6.34,6.34,0,0,0-1.82-4.8c-1.42-1.36-3.54-2-6.3-1.88C34,22.92,33.22,23,32.3,23.09Z"/>
      <g>
        <path class="cls-2" d="M12.6,39.77s15.54-5.2,22.47-5.56c0,0,6.09-.41,6.1-4.65s-3.2-5.32-6.56-5.17S11.63,27,6.94,33.81C3.37,39,10,40.86,12.6,39.77Z"/>
        <g class="cls-10">
          <circle class="cls-6" cx="17.73" cy="28.96" r="0.69" transform="translate(-3.13 2.16) rotate(-6.42)"/>
          <circle class="cls-6" cx="10.61" cy="31.07" r="0.69" transform="translate(-3.41 1.38) rotate(-6.42)"/>
          <circle class="cls-6" cx="18.38" cy="34.29" r="0.69" transform="translate(-3.72 2.27) rotate(-6.42)"/>
          <circle class="cls-6" cx="17.23" cy="31.69" r="0.69" transform="translate(-3.44 2.13) rotate(-6.42)"/>
          <circle class="cls-6" cx="7.36" cy="35.67" r="0.69" transform="translate(-3.94 1.05) rotate(-6.42)"/>
          <circle class="cls-6" cx="15.69" cy="36.53" r="0.69" transform="translate(-3.99 1.98) rotate(-6.42)"/>
          <circle class="cls-6" cx="12.49" cy="32.96" r="0.69" transform="translate(-3.61 1.6) rotate(-6.42)"/>
          <circle class="cls-6" cx="26.59" cy="27.38" r="0.69" transform="translate(-2.9 3.15) rotate(-6.42)"/>
          <circle class="cls-6" cx="9.65" cy="34.26" r="0.69" transform="translate(-3.77 1.29) rotate(-6.42)"/>
          <circle class="cls-6" cx="15.23" cy="33.86" r="0.69" transform="translate(-3.69 1.92) rotate(-6.42)"/>
          <circle class="cls-6" cx="11.4" cy="38.91" r="0.69" transform="translate(-4.28 1.52) rotate(-6.42)"/>
          <circle class="cls-6" cx="20.01" cy="31.53" r="0.69" transform="translate(-3.4 2.44) rotate(-6.42)"/>
          <circle class="cls-6" cx="39.24" cy="29.17" r="0.69" transform="translate(-3.02 4.57) rotate(-6.42)"/>
          <circle class="cls-6" cx="20.62" cy="35.98" r="0.69" transform="translate(-3.89 2.53) rotate(-6.42)"/>
          <circle class="cls-6" cx="13.95" cy="38.01" r="0.69" transform="translate(-4.16 1.8) rotate(-6.42)"/>
          <circle class="cls-6" cx="21.81" cy="33.59" r="0.69" transform="translate(-3.62 2.65) rotate(-6.42)"/>
          <circle class="cls-6" cx="20.61" cy="28.63" r="0.69" transform="translate(-3.07 2.49) rotate(-6.42)"/>
          <circle class="cls-6" cx="23.74" cy="27.28" r="0.69" transform="translate(-2.9 2.83) rotate(-6.42)"/>
          <circle class="cls-6" cx="23.19" cy="30.34" r="0.69" transform="translate(-3.25 2.78) rotate(-6.42)"/>
          <circle class="cls-6" cx="28.85" cy="25.88" r="0.69" transform="translate(-2.71 3.39) rotate(-6.42)"/>
          <circle class="cls-6" cx="18.2" cy="36.77" r="0.69" transform="translate(-4 2.27) rotate(-6.42)"/>
          <circle class="cls-6" cx="23.65" cy="35.32" r="0.69" transform="translate(-3.8 2.87) rotate(-6.42)"/>
          <circle class="cls-6" cx="12.72" cy="35.87" r="0.69" transform="translate(-3.93 1.65) rotate(-6.42)"/>
          <circle class="cls-6" cx="14.32" cy="30.44" r="0.69" transform="translate(-3.31 1.79) rotate(-6.42)"/>
          <circle class="cls-6" cx="26.73" cy="29.99" r="0.69" transform="translate(-3.19 3.18) rotate(-6.42)"/>
          <circle class="cls-6" cx="26.54" cy="34.84" r="0.69" transform="translate(-3.73 3.19) rotate(-6.42)"/>
          <circle class="cls-6" cx="28.21" cy="32.45" r="0.69" transform="translate(-3.45 3.36) rotate(-6.42)"/>
          <circle class="cls-6" cx="39.98" cy="26.36" r="0.69" transform="translate(-2.7 4.64) rotate(-6.42)"/>
          <circle class="cls-6" cx="24.87" cy="32.72" r="0.69" transform="translate(-3.5 2.99) rotate(-6.42)"/>
          <circle class="cls-6" cx="29.94" cy="30.1" r="0.69" transform="translate(-3.18 3.54) rotate(-6.42)"/>
          <circle class="cls-6" cx="32.27" cy="24.6" r="0.69" transform="translate(-2.55 3.76) rotate(-6.42)"/>
          <circle class="cls-6" cx="31.83" cy="32.51" r="0.69" transform="translate(-3.44 3.76) rotate(-6.42)"/>
          <circle class="cls-6" cx="30.64" cy="27.56" r="0.69" transform="translate(-2.89 3.6) rotate(-6.42)"/>
          <circle class="cls-6" cx="33.76" cy="26.21" r="0.69" transform="translate(-2.72 3.94) rotate(-6.42)"/>
          <circle class="cls-6" cx="33.21" cy="29.26" r="0.69" transform="translate(-3.06 3.9) rotate(-6.42)"/>
          <circle class="cls-6" cx="36.87" cy="26.09" r="0.69" transform="translate(-2.69 4.29) rotate(-6.42)"/>
          <circle class="cls-6" cx="34.34" cy="34.17" r="0.69" transform="translate(-3.61 4.05) rotate(-6.42)"/>
          <circle class="cls-6" cx="9.48" cy="37.39" r="0.69" transform="translate(-4.12 1.29) rotate(-6.42)"/>
          <circle class="cls-6" cx="36.75" cy="28.91" r="0.69" transform="translate(-3 4.29) rotate(-6.42)"/>
          <circle class="cls-6" cx="38.23" cy="31.37" r="0.69" transform="translate(-3.27 4.47) rotate(-6.42)"/>
          <circle class="cls-6" cx="34.89" cy="31.64" r="0.69" transform="translate(-3.32 4.1) rotate(-6.42)"/>
          <circle class="cls-6" cx="29.94" cy="34.83" r="0.69" transform="translate(-3.71 3.57) rotate(-6.42)"/>
        </g>
      </g>
    </g>
  </g>
</svg>
