<svg id="Layer_1" data-name="Layer 1" xmlns="http://www.w3.org/2000/svg" viewBox="0 0 90.77 44.46">
  <defs>
    <style>
      .cls-1 {
        fill: #fff;
      }
    </style>
  </defs>
  <title>a11</title>
  <g id="a11">
    <path class="cls-1" d="M57.7,41.12H37.4L27.25,23.54,37.4,6H57.7L67.85,23.54ZM38,40.12H57.13L66.7,23.54,57.13,7H38L28.4,23.54Z"/>
    <path class="cls-1" d="M51.38,27.51a4.94,4.94,0,0,1-1.17,1.85,4.47,4.47,0,0,1-1.75,1,7.32,7.32,0,0,1-4.32,0,4.47,4.47,0,0,1-1.75-1,4.94,4.94,0,0,1-1.17-1.85,7.84,7.84,0,0,1-.43-2.76V22.54a7.84,7.84,0,0,1,.43-2.76,5,5,0,0,1,1.17-1.85,4.48,4.48,0,0,1,1.75-1,7.32,7.32,0,0,1,4.32,0,4.48,4.48,0,0,1,1.75,1,5,5,0,0,1,1.17,1.85,7.84,7.84,0,0,1,.43,2.76v2.22A7.84,7.84,0,0,1,51.38,27.51Zm-2.76-5a4.11,4.11,0,0,0-.57-2.45,2.06,2.06,0,0,0-1.75-.75,2,2,0,0,0-1.74.75A4.15,4.15,0,0,0,44,22.53v2.23a4.15,4.15,0,0,0,.56,2.45,2,2,0,0,0,1.74.75,2.06,2.06,0,0,0,1.75-.75,4.11,4.11,0,0,0,.57-2.45V22.53Z"/>
    <path class="cls-1" d="M57,26.86a1.44,1.44,0,0,1-.23.82,2.37,2.37,0,0,1-.66.64l-0.66.44L55,29.07a2.92,2.92,0,0,0-.36.31,1.21,1.21,0,0,0-.23.32,0.85,0.85,0,0,0-.08.37v0h2.45a0.16,0.16,0,0,1,.11,0,0.14,0.14,0,0,1,0,.1V31a0.16,0.16,0,0,1-.15.15H53.32A0.16,0.16,0,0,1,53.17,31V30.26a2.16,2.16,0,0,1,.31-1.15,2.76,2.76,0,0,1,.75-0.82l0.71-.5,0.41-.29a1.77,1.77,0,0,0,.24-0.2,0.47,0.47,0,0,0,.11-0.18,0.81,0.81,0,0,0,0-.23,0.39,0.39,0,0,0-.17-0.36,1.35,1.35,0,0,0-.65-0.11c-0.24,0-.49,0-0.76,0l-0.76.07h0a0.12,0.12,0,0,1-.1,0,0.16,0.16,0,0,1,0-.11v-0.6a0.12,0.12,0,0,1,0-.1l0.1-.05a5.57,5.57,0,0,1,.77-0.17A5.76,5.76,0,0,1,55,25.38a2.44,2.44,0,0,1,1.52.37A1.35,1.35,0,0,1,57,26.86Z"/>
  </g>
</svg>
