<svg id="Layer_1" data-name="Layer 1" xmlns="http://www.w3.org/2000/svg" viewBox="0 0 90.77 44.46">
  <defs>
    <style>
      .cls-1 {
        fill: #fff;
      }
    </style>
  </defs>
  <title>a12</title>
  <g id="a12">
    <circle class="cls-1" cx="46.99" cy="24.39" r="4.87"/>
    <circle class="cls-1" cx="41.91" cy="8.52" r="2.56"/>
    <circle class="cls-1" cx="36.8" cy="35.53" r="2.56"/>
    <circle class="cls-1" cx="62.04" cy="27.62" r="2.56"/>
    <path class="cls-1" d="M53.74,40.26A9.93,9.93,0,0,1,48,37.82a31.83,31.83,0,0,1-8-10A31.84,31.84,0,0,1,36,15.69c-0.29-3.82.65-6.52,2.67-7.62s4.8-.4,7.83,1.94a31.83,31.83,0,0,1,8,10,31.84,31.84,0,0,1,3.94,12.17c0.29,3.82-.66,6.52-2.67,7.62A4.33,4.33,0,0,1,53.74,40.26ZM40.77,8.6A3.29,3.29,0,0,0,39.18,9c-1.62.87-2.4,3.29-2.14,6.64a30.82,30.82,0,0,0,3.82,11.77A30.82,30.82,0,0,0,48.61,37c2.66,2,5.11,2.72,6.73,1.84s2.4-3.29,2.14-6.64a30.82,30.82,0,0,0-3.82-11.77,30.82,30.82,0,0,0-7.75-9.64A9,9,0,0,0,40.77,8.6Z"/>
    <path class="cls-1" d="M40.78,40.26a4.33,4.33,0,0,1-2.08-.51c-2-1.09-3-3.8-2.67-7.62A31.84,31.84,0,0,1,40,20a31.83,31.83,0,0,1,8-10c3-2.34,5.82-3,7.83-1.94s3,3.8,2.67,7.62a31.84,31.84,0,0,1-3.94,12.17,31.83,31.83,0,0,1-8,10A9.93,9.93,0,0,1,40.78,40.26Zm13-31.66a9,9,0,0,0-5.14,2.22,30.82,30.82,0,0,0-7.75,9.64h0A30.82,30.82,0,0,0,37,32.22c-0.26,3.34.52,5.76,2.14,6.64s4.07,0.2,6.73-1.84a30.82,30.82,0,0,0,7.75-9.64,30.82,30.82,0,0,0,3.82-11.77C57.73,12.27,57,9.85,55.34,9A3.29,3.29,0,0,0,53.75,8.6Z"/>
    <path class="cls-1" d="M47.26,32.21c-10.1,0-18-3.64-18-8.3s7.91-8.3,18-8.3,18,3.64,18,8.3S57.36,32.21,47.26,32.21Zm0-15.57c-9.21,0-17,3.33-17,7.28s7.78,7.27,17,7.27,17-3.33,17-7.27S56.47,16.64,47.26,16.64Z"/>
  </g>
</svg>
