<svg id="Layer_1" data-name="Layer 1" xmlns="http://www.w3.org/2000/svg" xmlns:xlink="http://www.w3.org/1999/xlink" viewBox="0 0 90.77 44.46">
  <defs>
    <style>
      .cls-1 {
        fill: #fff;
      }

      .cls-2 {
        clip-path: url(#clip-path);
      }

      .cls-3 {
        fill: #1f1e1b;
      }

      .cls-4 {
        fill: #d2dbe2;
      }

      .cls-5 {
        fill: #abacb1;
      }

      .cls-6 {
        fill: #fdeb38;
      }

      .cls-7 {
        fill: #1d1d1b;
      }
    </style>
    <clipPath id="clip-path">
      <path class="cls-1" d="M38.16,35.09S36.43,24.3,35.78,22.85s-7.47-9.64-6.5-10.27c0,0-1.19-1.24-.32-1.76,0,0-1.95-1.35-.65-1.45,0,0-1.62-1.56-.65-1.76,0,0-1.41-1.45-.22-1.56,0,0-.81-1.31,0-1.46a0.87,0.87,0,0,1,1,.43s-0.52-1.28.37-.78,10,8,11.31,9,6.32,4.63,6.69,6.55,0.74,6,1.56,7.48c0,0,4.61-4.13,7.21-5.06a3.21,3.21,0,0,1,1.19-1.71s0.3-1.64,1.19-2a3.33,3.33,0,0,1,.89-1.78,1.92,1.92,0,0,1,.82-1.64s0.07-1.5,1.12-1.71c0,0-.07-2,1-1.78a1.25,1.25,0,0,1,1-1.57s-0.14-1.58.86-1.23c0,0,.07-2.19,1.15-1.37,0,0,.43-1.85,1.07-0.48,0,0,.57-1,0.93.14s2.86,8.84-1,16.44c0,0-1.36,2.67-2.08,2.95S55,30.56,54.3,34.81c0,0-.36.75,2.79,0.62s3.58-.34,5.15,1.3a7.2,7.2,0,0,0,.93.69c0.29,0.14,3.65-.14,3.51,2.26L65,39.47c-0.5-.07-2.86-0.41-3.36,0S57.3,42.62,49.86,43s-10.95-1.1-10.95-1.1l-1.79.34a1.37,1.37,0,0,1-1.5.14A34.46,34.46,0,0,0,30.54,41a11.37,11.37,0,0,1-5.3-.48c-2.36-1-2.22-2.4-1.86-2.81a1.07,1.07,0,0,1,1.22-1.23c1.43-.07,8.8.82,8.8,0.82a21.25,21.25,0,0,1,4.37-1.1A0.87,0.87,0,0,1,38.16,35.09Z"/>
    </clipPath>
  </defs>
  <title>a2</title>
  <g id="a2">
    <g>
      <path class="cls-1" d="M38.16,35.09S36.43,24.3,35.78,22.85s-7.47-9.64-6.5-10.27c0,0-1.19-1.24-.32-1.76,0,0-1.95-1.35-.65-1.45,0,0-1.62-1.56-.65-1.76,0,0-1.41-1.45-.22-1.56,0,0-.81-1.31,0-1.46a0.87,0.87,0,0,1,1,.43s-0.52-1.28.37-.78,10,8,11.31,9,6.32,4.63,6.69,6.55,0.74,6,1.56,7.48c0,0,4.61-4.13,7.21-5.06a3.21,3.21,0,0,1,1.19-1.71s0.3-1.64,1.19-2a3.33,3.33,0,0,1,.89-1.78,1.92,1.92,0,0,1,.82-1.64s0.07-1.5,1.12-1.71c0,0-.07-2,1-1.78a1.25,1.25,0,0,1,1-1.57s-0.14-1.58.86-1.23c0,0,.07-2.19,1.15-1.37,0,0,.43-1.85,1.07-0.48,0,0,.57-1,0.93.14s2.86,8.84-1,16.44c0,0-1.36,2.67-2.08,2.95S55,30.56,54.3,34.81c0,0-.36.75,2.79,0.62s3.58-.34,5.15,1.3a7.2,7.2,0,0,0,.93.69c0.29,0.14,3.65-.14,3.51,2.26L65,39.47c-0.5-.07-2.86-0.41-3.36,0S57.3,42.62,49.86,43s-10.95-1.1-10.95-1.1l-1.79.34a1.37,1.37,0,0,1-1.5.14A34.46,34.46,0,0,0,30.54,41a11.37,11.37,0,0,1-5.3-.48c-2.36-1-2.22-2.4-1.86-2.81a1.07,1.07,0,0,1,1.22-1.23c1.43-.07,8.8.82,8.8,0.82a21.25,21.25,0,0,1,4.37-1.1A0.87,0.87,0,0,1,38.16,35.09Z"/>
      <g class="cls-2">
        <path class="cls-3" d="M30.62,13.77s-3.87-7-2.93-8.31,4.79-.58,5.67,0,7.55,8.31,7.55,8.31l-5.24,1.5Z"/>
        <path class="cls-1" d="M30.44,4.87S29,4.93,28.68,5.45s0,1.23,2,1.05c3.09-.27,3.42-1.69,3.42-1.69Z"/>
        <path class="cls-4" d="M57.44,42.11s-6.94-1.06-3.21-7L67,27.41,69.9,15.76S65.32,14.25,62.6,17a13.67,13.67,0,0,0-3.44,6.1s-7-2-18,15.42c0,0,2.29.34,1.5,1.64s-4.18,1.78-4.18,1.78S45.06,45,57.44,42.11Z"/>
        <path class="cls-3" d="M68,15.69s-1.43-9.93-8.37-1.37L64,6.58s0.5,2.81,4.15,2.74A13,13,0,0,1,68,15.69Z"/>
        <path class="cls-5" d="M48.42,27.24L48.14,16.93l-8.8-4.73S33,6.79,30.83,9s0.72,6.37.72,6.37,4.15,4.86,4.51,6.23,2.79,9.93,2.79,12.95a5.18,5.18,0,0,0-1.57,1.64s2.93-.41,3.36,1.71C40.63,38,46.71,28.75,48.42,27.24Z"/>
        <path class="cls-6" d="M62.09,39.14s0.71-1-2-.92a7.43,7.43,0,0,1,3.07-.8L66.32,37l3,2.95L68,41l-5.19-.61Z"/>
      </g>
    </g>
    <ellipse class="cls-7" cx="59.91" cy="36.82" rx="0.63" ry="0.61"/>
  </g>
</svg>
