<svg id="Layer_1" data-name="Layer 1" xmlns="http://www.w3.org/2000/svg" xmlns:xlink="http://www.w3.org/1999/xlink" viewBox="0 0 90.77 44.46">
  <defs>
    <style>
      .cls-1 {
        fill: none;
      }

      .cls-2 {
        fill: #1d9ebf;
      }

      .cls-3 {
        fill: #d2dbe2;
      }

      .cls-4 {
        clip-path: url(#clip-path);
      }

      .cls-5 {
        clip-path: url(#clip-path-2);
      }

      .cls-6 {
        fill: #444151;
      }

      .cls-7 {
        clip-path: url(#clip-path-3);
      }

      .cls-8 {
        fill: #95bac7;
      }

      .cls-9 {
        fill: #fff;
      }

      .cls-10 {
        fill: #1d1d1b;
      }
    </style>
    <clipPath id="clip-path">
      <path class="cls-1" d="M16.4,27.42a29.51,29.51,0,0,0-2.64-2.56c-1.08-.84-2.36-1.92-2.45-2.62S15.4,23,17,23.56a17.63,17.63,0,0,0,7.39,1.32c3.14,0,15.39-3.84,15.94-4.1,0,0-.14-1.91-0.15-2.38a3.49,3.49,0,0,0-.1-1.21c-0.15-.46-0.05-0.42.24-0.35s6.15,1.94,8.57,1.39,11.29-3.72,19.78-4.45,8.78-.68,8.81-0.61a0.31,0.31,0,0,1,.05.42,4.07,4.07,0,0,1-.48.61s1,0,.9.23a15.53,15.53,0,0,1-3.82,5.15c-2.34,2.07-7.53,5.75-9.14,6.87S59,31,47.91,32.06l-1,3.68a0.64,0.64,0,0,1-.7-0.24,3.17,3.17,0,0,0-.63-0.87,12.27,12.27,0,0,1-.92-2.06,15.22,15.22,0,0,1-5.48.07c-2.5-.55-3.11-1.27-5.37-1.49a15.15,15.15,0,0,1-5.25-1.4C26.78,29,25.89,29,25.26,29.22,24.61,29.58,14,31.73,13,31.3c-1-.27-0.64-1.06-0.21-1.35S15.57,27.87,16.4,27.42Z"/>
    </clipPath>
    <clipPath id="clip-path-2">
      <path class="cls-2" d="M16.4,27.42a29.51,29.51,0,0,0-2.64-2.56c-1.08-.84-2.36-1.92-2.45-2.62S15.4,23,17,23.56a17.63,17.63,0,0,0,7.39,1.32c3.14,0,15.39-3.84,15.94-4.1,0,0-.14-1.91-0.15-2.38a3.49,3.49,0,0,0-.1-1.21c-0.15-.46-0.05-0.42.24-0.35s6.15,1.94,8.57,1.39,11.29-3.72,19.78-4.45,8.78-.68,8.81-0.61a0.31,0.31,0,0,1,.05.42,4.07,4.07,0,0,1-.48.61s1,0,.9.23a15.53,15.53,0,0,1-3.82,5.15c-2.34,2.07-7.53,5.75-9.14,6.87S59,31,47.91,32.06l-1,3.68a0.64,0.64,0,0,1-.7-0.24,3.17,3.17,0,0,0-.63-0.87,12.27,12.27,0,0,1-.92-2.06,15.22,15.22,0,0,1-5.48.07c-2.5-.55-3.11-1.27-5.37-1.49a15.15,15.15,0,0,1-5.25-1.4C26.78,29,25.89,29,25.26,29.22,24.61,29.58,14,31.73,13,31.3c-1-.27-0.64-1.06-0.21-1.35S15.57,27.87,16.4,27.42Z"/>
    </clipPath>
    <clipPath id="clip-path-3">
      <path class="cls-3" d="M20.79,27c-0.06.81,29.92,2.89,44.65-9.34,5.5-4,12.18-2.69,13.5-3.59l0.22,0.11q-1.53,5.52-3.1,11A122,122,0,0,1,46.43,36.78a129.77,129.77,0,0,1-26.56-5.31Z"/>
    </clipPath>
  </defs>
  <title>a3</title>
  <g id="a3">
    <g>
      <path class="cls-2" d="M16.4,27.42a29.51,29.51,0,0,0-2.64-2.56c-1.08-.84-2.36-1.92-2.45-2.62S15.4,23,17,23.56a17.63,17.63,0,0,0,7.39,1.32c3.14,0,15.39-3.84,15.94-4.1,0,0-.14-1.91-0.15-2.38a3.49,3.49,0,0,0-.1-1.21c-0.15-.46-0.05-0.42.24-0.35s6.15,1.94,8.57,1.39,11.29-3.72,19.78-4.45,8.78-.68,8.81-0.61a0.31,0.31,0,0,1,.05.42,4.07,4.07,0,0,1-.48.61s1,0,.9.23a15.53,15.53,0,0,1-3.82,5.15c-2.34,2.07-7.53,5.75-9.14,6.87S59,31,47.91,32.06l-1,3.68a0.64,0.64,0,0,1-.7-0.24,3.17,3.17,0,0,0-.63-0.87,12.27,12.27,0,0,1-.92-2.06,15.22,15.22,0,0,1-5.48.07c-2.5-.55-3.11-1.27-5.37-1.49a15.15,15.15,0,0,1-5.25-1.4C26.78,29,25.89,29,25.26,29.22,24.61,29.58,14,31.73,13,31.3c-1-.27-0.64-1.06-0.21-1.35S15.57,27.87,16.4,27.42Z"/>
      <g class="cls-5">
        <g>
          <path class="cls-6" d="M49.53,25.71l-0.82-.23a8.48,8.48,0,0,0-.59-6.42l0.74-.43A9.35,9.35,0,0,1,49.53,25.71Z"/>
          <path class="cls-6" d="M53.51,24.5l-0.83-.21a8.36,8.36,0,0,0-.77-6.36l0.75-.42A9.18,9.18,0,0,1,53.51,24.5Z"/>
          <path class="cls-6" d="M57.34,23.67l-0.83-.2a8.39,8.39,0,0,0-.77-6.36l0.75-.42A9.2,9.2,0,0,1,57.34,23.67Z"/>
          <path class="cls-6" d="M61.14,22.72l-0.83-.2a8.4,8.4,0,0,0-.77-6.36l0.74-.42A9.21,9.21,0,0,1,61.14,22.72Z"/>
          <path class="cls-6" d="M64.92,21.63l-0.83-.19a8.43,8.43,0,0,0-.76-6.36l0.74-.43A9.25,9.25,0,0,1,64.92,21.63Z"/>
          <path class="cls-6" d="M45.85,26.39L45,26.16a7.5,7.5,0,0,0-.73-6L45,19.74A8.31,8.31,0,0,1,45.85,26.39Z"/>
          <path class="cls-6" d="M41.91,27.4l-0.81-.27a7.1,7.1,0,0,0-.59-5.82l0.73-.45A8,8,0,0,1,41.91,27.4Z"/>
          <path class="cls-6" d="M38,27.78l-0.79-.33a5.33,5.33,0,0,0-.47-5l0.7-.49A6.22,6.22,0,0,1,38,27.78Z"/>
          <path class="cls-6" d="M34,28.06l-0.79-.34a5.53,5.53,0,0,0-.4-5.07l0.7-.49A6.43,6.43,0,0,1,34,28.06Z"/>
          <path class="cls-6" d="M30.26,27.73l-0.8-.32a4.93,4.93,0,0,0-.59-4.74l0.72-.46A5.81,5.81,0,0,1,30.26,27.73Z"/>
          <path class="cls-6" d="M26.38,28l-0.8-.3a5.69,5.69,0,0,0-.63-5.13l0.74-.44A6.58,6.58,0,0,1,26.38,28Z"/>
        </g>
        <g>
          <path class="cls-3" d="M20.79,27c-0.06.81,29.92,2.89,44.65-9.34,5.5-4,12.18-2.69,13.5-3.59l0.22,0.11q-1.53,5.52-3.1,11A122,122,0,0,1,46.43,36.78a129.77,129.77,0,0,1-26.56-5.31Z"/>
          <g class="cls-7">
            <path class="cls-8" d="M65.44,22.54a1.26,1.26,0,0,0-.21-0.33c-0.46-.56-1.8-1.43-5.33-0.06-4.68,1.53-16.59,9.67-39.68,5.62l-0.55-1.72a116.61,116.61,0,0,0,45.17-9.39Z"/>
          </g>
        </g>
        <path class="cls-8" d="M63.81,18.72c0-.06-2.07,6.8,6.08,5.73q4.63-4.25,9.12-9l0-3-1.62,1.41C69.35,14.34,67,16.44,63.81,18.72Z"/>
        <path class="cls-6" d="M44.63,32.57a9.39,9.39,0,0,1,3.28-.52l1.47,1.08q-1.17,2.17-2.34,4.3L45.16,36.1Z"/>
        <path class="cls-6" d="M21.27,26a102.35,102.35,0,0,0,14.11-2.58c5.22-1.31,11-3.53,14.14-4.49,6.49-2.08,14.74-4,29.28-5.52l-0.72-.79a111.4,111.4,0,0,1-13.29,1,115.1,115.1,0,0,1-15,3.58l-1.35,1.18q-4,1.37-8.1,2.44a115.27,115.27,0,0,1-18.76,3.37Z"/>
        <path class="cls-6" d="M39.54,21.41L39.19,16q5.2,1.37,10.36,2.3Q44.57,20.09,39.54,21.41Z"/>
        <path class="cls-6" d="M26.23,29.29s-4.9-.12-5.12-2,3.29-2.42,3.29-2.43l-0.58-3A122.81,122.81,0,0,1,7.9,18.45l2.52,16.7A111.55,111.55,0,0,0,26,32.58Z"/>
      </g>
    </g>
    <g>
      <ellipse class="cls-9" cx="71.14" cy="16.01" rx="1.95" ry="1.87"/>
      <ellipse class="cls-10" cx="71.14" cy="16.01" rx="0.89" ry="0.93"/>
    </g>
    <path class="cls-6" d="M63.41,19.61s1.4,2.69-1.2,3.29A5.53,5.53,0,0,1,58,22.4S59,19.41,63.41,19.61Z"/>
  </g>
</svg>
