<svg id="Layer_1" data-name="Layer 1" xmlns="http://www.w3.org/2000/svg" viewBox="0 0 90.77 44.46">
  <defs>
    <style>
      .cls-1 {
        fill: #f5d5d4;
      }
    </style>
  </defs>
  <title>a4</title>
  <g id="a4">
    <path class="cls-1" d="M50.16,44.13a3.3,3.3,0,0,0-.58-2.2A4.7,4.7,0,0,1,48.93,41c-0.45-1.12.62-2.68-.29-3.62-1.18-1.21-2.33,1.41-3.55,1.6-1,.16-1.24-0.84-1-1.66,0.14-.47.83-0.88,0.55-1.23s-2.83.25-3.25,0.34c-0.73.16-1.46,0.09-2.18,0.23s-1.89.72-2-.57,1.64-1,1.79-1.94c0.18-1.18-2.36-.39-3-0.3a9.73,9.73,0,0,1-3.1.18,7.46,7.46,0,0,0-1.5-.08c-0.53,0-1.34.35-1.82,0-0.81-.53-0.21-1,0.46-1,0.44,0,1.35.21,1-.68s-3.49-.33-4.35-0.6A6,6,0,0,1,24,30c-1.28-1.62.21-2.48,1.56-1.2a3.26,3.26,0,0,0,1.3,1.11c1.08,0.15.15-.5,0.4-0.93s0.64,0.18,1,.16c0.89-.08.4-1,0-1.34a10.89,10.89,0,0,0-3.8-1.29,3.57,3.57,0,0,1-2.33-1.89,3.43,3.43,0,0,1-.71-2.4c0.08-.52.31-1.1,1-0.76,0.46,0.24,1.61,2.67,1.92,1.22,0.1-.49-1.45-4-0.15-4,0.78,0,.65,2.77,1.78,2.19,0.54-.28-0.22-2.59,1-1.45a2.65,2.65,0,0,1,.12,3.4,1.52,1.52,0,0,0-.66,1.33c0,0.65.12,1.72,1.06,1.54,1.28-.25.19-2.86,1.2-2.49a4.53,4.53,0,0,1,1.55,2.44c0,0.52-.53.73-0.52,1.11,0,0.6.81,0.79,1.22,1.1a3.54,3.54,0,0,1,1.13,1.52,2.26,2.26,0,0,0,.64,1.16c1.66,0.26-.84-2.34.13-2.61,0.57-.16.38,0.94,0.7-0.09,0.09-.29-0.24-0.93.45-0.6,1.27,0.61-.5,2.63,1.46,2.59,0.26,0,.28-0.49.62-0.1a1.08,1.08,0,0,1,0,.68c-0.15.72-.9,1,0.07,1.41,0.59,0.25,2.21.45,2.75-.1,1-1-1.44-2.27-2-2.75a5,5,0,0,1-1-1.07,7.26,7.26,0,0,1-.3-1.1C35,25.51,32.75,25,32.9,23.39c0.18-1.93,1.41.69,1.83,0.9C36.11,25,34.3,22,34.44,21.57a0.81,0.81,0,0,1,1.29-.33c0.51,0.39.34,1.53,0.93,1.8S36.89,21,38,22.24a2.53,2.53,0,0,1,.29,1.92c-0.09.76-1.07,1.78-.69,2.48,0.57,1.06,3.76.94,2.82-.54-0.3-.47-1.51-0.82-1.1-1.66s0.92,0.19,1.25.48c1.26,1.07.16-1.31,0.62-1.91,1.15-1.51,1.55,1.59,1.83,1.58s0.51-1.31,1.16-.6c0.35,0.38-.12,1.31-0.31,1.59a11.34,11.34,0,0,0-.77,1.86,9.12,9.12,0,0,1-1.26,1.41c-0.85,1.12-1.06,2.26.06,3.26,1.55,1.38,2.56-.41,2.52-1.9,0-.4-0.46-1.58-0.14-2,0.55-.64.69,0.15,0.85,0.57,0.27,0.67.26,0.76,0.94,0.86,0.39,0.06.69-.21,1,0.25s-0.27,1-.54,1.38c-0.81,1-1.55,2.44.42,2.72a4.43,4.43,0,0,0,1.71,0c1-.4.48-0.93,0.19-1.65-0.14-.34-0.41-0.44-0.18-0.83a1.28,1.28,0,0,1,.61-0.22A1.32,1.32,0,0,0,49.26,30a9.81,9.81,0,0,0-2.2-2.94c-0.33-.35-2.18-1.61-1.58-2.39,0.37-.48,1.28.39,1.27-0.55,0-.5-1.2-0.94-1.52-1.15A20,20,0,0,1,41.9,20.4c-0.5-.5-0.9-1.09-1.38-1.6a6.81,6.81,0,0,0-1.87-1.07c-0.8-.48-2.18-1.73-1.82-2.84,0.53-1.64,1.8,2,3,.95S38.79,14,38.31,13.49a4.73,4.73,0,0,1-1-4.18c0.82-2,1.59.58,1.85,1.4,0.1,0.32.49,1.29,1,1.06s0.12-2,.09-2.39S40.63,5.28,41.8,7c0.38,0.56-.59,4.29.91,3.6,0.79-.36,0-3.49,1.5-3,1.19,0.42,0,3-.37,3.65-0.77,1.22-2,1.37-2.21,3-0.06.36-.34,1.5,0.08,1.71,0.61,0.3.46-1.37,0.89-1.6,1.06-.58-0.07,2.91.23,3.23a1.85,1.85,0,0,0,2-.35c0.31-.62-0.45-0.76-0.69-1.15s-0.26-1.54.29-1.74,0.73,0.48,1.19.65c1.54,0.55.2-2.88,1.29-3.29,0.93-.35.59,0.82,1,1.07s0.44-.73.64-1c1.13-1.5,1.22,1.63,1.1,2.25a6,6,0,0,1-.67,1.8c-0.29.52-.55,1.19-0.91,1.72a3.87,3.87,0,0,1-1.74,1.3,11.59,11.59,0,0,1-1.72.42c-0.69.18-.82,0.15-0.52,0.68,0.51,0.91,2.2,1.35,3.1,1.53,1.38,0.28,2.34.32,2.56-1.1,0.12-.73.9-3.31,1.86-1.93,0.35,0.5,0,.79.64,1a3.69,3.69,0,0,0,2-.17c1.52-.73-0.16-1.1-0.76-1.79C53,17,51.79,14.61,53.1,14.31c1.15-.27,1,2.83,1.88,1.23,0.29-.53.26-1.56,1.11-1.6s0.5,0.7.71,1.23c0.62,1.57,2.31-.31,1.12-1.36-0.86-.76-1.79-0.73-2-2.1-0.1-.53-0.12-1.66.64-1.51,0.39,0.08.54,1,1.09,0.89,1.14-.18-0.27-2.78.17-3.57,1-1.8,1.71,1.83,1.86,1.81,0.47-.07.55-2.78,1.78-1.19a2,2,0,0,1,.07,1.46,2.39,2.39,0,0,1-1,2c-0.39.33-.55,0.31-0.46,0.91a0.73,0.73,0,0,0,1,.73c1.22-.4,1-2.29,2.3-2.39s0.33,1.94-.22,2.44c-0.9.81-2.4,0.78-2.42,2.19,0,0.93.28,0.86,1,.91,0.4,0,1.24.18,1,.84s-2.16,1-2.8,1.31a12.36,12.36,0,0,0-2.06,1.39c-1.21,1,.61.72,1.36,0.69,0.33,0,1.23-.21,1.45.09,0.4,0.56-.42.74-0.75,0.84a2,2,0,0,0-1.19.46c-0.26.44,0.28,1.39,0.34,1.84s0.11,1.46-.43,1.48-0.54-1-1-1.21c-1-.38-1.78,2.35-2.22.18-0.11-.55.34-2.27-0.08-2.55s-1.86.46-2.34,0.63c-0.68.24-1.37,0.46-2,.76a1.44,1.44,0,0,0-1,.88c-0.13.76,0.33,0.28,0.84,0.19,1.63-.32.66,1.09,0.24,1.84-0.16.29-.7,1-0.47,1.3s1-.36,1.33-0.56a2.91,2.91,0,0,1,1.35-.81c0.71,0.17.37,0.94,0.11,1.34-0.72,1.12-1.92,1.48-2.06,3a14.81,14.81,0,0,0,.63,5.67c0.38,1.22.7,1.67,2,1.06,0.56-.27,1.91-0.88,1.35-1.57a11.22,11.22,0,0,0-1.42-.78,1.31,1.31,0,0,1-.6-1.22c0-.55,0-1.32.79-1.2,0.5,0.08.6,1,1.15,0.37,0.28-.32.25-3,1.44-2.29,1,0.65-1.24,2.62.1,3.09,1.17,0.41,1.77-1.93,2.77-1.66s-0.77,2.11-1,2.48c-0.67,1.17.1,1.59,1.14,0.94,0.84-.52,1.24-2,2.25-1.63s1.37,1.24,2.43.55c0.38-.25,1-1.15.52-1.53a6.37,6.37,0,0,0-1.47-.15c-1-.15-2.86-0.45-3.23-1.49-0.67-1.88,1.4-.12,1.76-0.29,0.91-.41-0.24-2.43.89-2.85,1.66-.62.22,2.73,1.1,2.81,0.55,0,1.05-2.61,1.68-.53,0.12,0.41,0,1.07.5,1.26s1.23-.61,1.45-1.08c0.8-1.77-1-1.73-1.85-2.8-0.73-.92-0.59-3.47.82-2.07,0.32,0.32.79,1.38,1.26,0.89a1.47,1.47,0,0,0,0-1.1c-0.09-.5-1-2.85.44-2.39,0.79,0.25.64,1.74,1,2.28,1,1.51.24-2.26,1.45-1.6,0.91,0.49.42,2.87,0,3.53-0.61,1.07-2,1.85-1.18,3.22,0.67,1.14,1.89-.38,2.25-1.18,0.47-1,.46-2.38,1.56-3.07,1.52-1,.17,1,0.6,1.35,0.9,0.8,1.26-2.28,1.56.15a2.91,2.91,0,0,1-.72,2.72c-0.61.64-1,.14-1.59,0.4-0.23.09-.49,0.66-0.78,0.85-1.78,1.15-4.15,1.29-5.64,2.94-0.28.31-.86,0.72-0.17,1,0.49,0.21,1.57-.68,1.91-0.86,0.67-.36,2.89-0.77,1.75.59-0.22.26-1.42,0.7-1.26,1.17s0.75,0.22,1,.26,1.28,0.16,1,.81c-0.15.4-1.12,0.44-1.47,0.48a22.63,22.63,0,0,1-2.78,0c-1.83,0,.93.79,0.8,1.48-0.25,1.31-2.35-.24-2.71-0.56a6.32,6.32,0,0,0-3.16-1.45,8.71,8.71,0,0,0-4.59.44c-1.51.52-3.24,0.87-4.34,2.16s-0.67,2.56-1,3.91c-0.12.57,0.13,0.47-.53,0.64C51.15,44.35,50.16,44.38,50.16,44.13Z"/>
  </g>
</svg>
