<svg id="Layer_1" data-name="Layer 1" xmlns="http://www.w3.org/2000/svg" viewBox="0 0 90.77 44.46">
  <defs>
    <style>
      .cls-1 {
        fill: #156439;
      }

      .cls-2 {
        fill: #444151;
      }

      .cls-3 {
        fill: #45aa34;
      }
    </style>
  </defs>
  <title>a5</title>
  <g id="a5">
    <path class="cls-1" d="M58.34,39.76s0,0.1.21,0A10,10,0,0,0,58.67,38a4,4,0,0,0-1.24-1.46c-0.93-1-.05-1.58-0.35-2.77a3,3,0,0,1-.42-1.34c0.1-.71.74-0.94,1.07-1.48a1.53,1.53,0,0,0-.19-1.85A2.47,2.47,0,0,1,57.1,27c0.25-.83.7-1.14,0.51-2.07-0.11-.52-0.4-0.94-0.52-1.43-0.91,0-.44-0.91-0.43-1.4,0-.73-0.41-0.77-0.6-1.35-0.26-.8.46-1.1,1-1.45,0.38-.23,1.44-1.19.38-1.38-0.24-.87,1.14-0.79,1.63-1.11a1.5,1.5,0,0,0,.69-1.67,1.8,1.8,0,0,1,.88-1.83c0.61-.49,1-0.85.54-1.62-0.28-.53-1.09-0.58-1.27-1C59.71,10,60.73,9.45,61,9,62.34,6,57.61,3.3,55.42,5.32c0,0,1.33-.37,1.44.16a0.63,0.63,0,0,1-.2.72c-0.74.69,1,.93,0.59,1.59-0.23.36-.84,0-1.16,0.32a1.38,1.38,0,0,0-.23.93c-0.44,2.37-2.48,1.17-3.82,2.21-0.79.62-.33,1.51-0.79,2.32-0.34.61-1,.82-1.17,1.61a6.46,6.46,0,0,1-.36,2.35,14,14,0,0,1-2.44,2.33,2.31,2.31,0,0,0-1,1.68c0,0.8.54,1.12,0.72,1.83a4.36,4.36,0,0,1-.55,2.21,5.14,5.14,0,0,0,.07,3.2C47.22,31,49,31.14,50.74,32a1.55,1.55,0,0,1,1,1.34c0,0.71-.25,1,0.33,1.67a8.23,8.23,0,0,0,2.74,1.63c0.84,0.4,3.68,1.77,3.6,3"/>
    <path class="cls-1" d="M66.46,18.5c-0.21,1.63,1.35,1.81,2.41,2.28a4,4,0,0,1,1.4.93,4.22,4.22,0,0,1,.44,1.46,3.28,3.28,0,0,0,1.24,1,3,3,0,0,1,1,1.58c0.16,0.87-.33,1.12-0.5,1.83A2.23,2.23,0,0,0,72.83,29c0.42,1.17.58,2.63-.55,3.38-0.39.26-1,.22-1.29,0.49a1.93,1.93,0,0,0-.35,1.28c-0.38,2.39-4.06,2.17-5.87,2.53A9.31,9.31,0,0,0,60.83,38c-0.57.41-1.75,2-1.46,2.5l-0.44.24-0.15-.61L59.29,39a8.8,8.8,0,0,1,1.17-2.7,2.86,2.86,0,0,1,2.05-1.65c0.84-.25,2-0.28,2.25-1.26,0.22-.79-0.44-1.93.49-2.28,0.74-.28,1.3.71,1.85,0.12s0-1.65-.51-2.14c-0.71-.73-0.34-1-0.5-1.83s-1.5-1.37-1.88-2.25,0.39-2.08.6-2.85c0.26-1,.38-1.92.57-2.9,0.07-.35.19-1.76,0.68-1.76l0.33,0.14Z"/>
    <path class="cls-2" d="M12.85,25.9a8.78,8.78,0,0,0-1.1-1.06,2.18,2.18,0,0,1-1-1.08c0-.33,1.9.07,2.62,0.24a8.58,8.58,0,0,0,3.39.33c1.48-.2,7.36-1.81,7.63-1.81,0,0,0-.9.07-1.12a1.67,1.67,0,0,0,0-.57c0-.22,0-0.2.13-0.15a14.15,14.15,0,0,0,3.88,1.17c1.15,0,5.42-.77,9.46.31s4.21,1.32,4.21,1.32a0.15,0.15,0,0,1,0,.2,1.27,1.27,0,0,1-.26.18,0.76,0.76,0,0,1,.42.29,5.1,5.1,0,0,1-2.12,1.59c-1.23.48-3.88,1.34-4.69,1.65s-3.06,1.12-8.24.84l-0.68,1.65a0.3,0.3,0,0,1-.31-0.15A1.5,1.5,0,0,0,26,29.27a5.83,5.83,0,0,1-.31-1,8,8,0,0,1-2.53-.2,13.46,13.46,0,0,0-2.4-.82,7.08,7.08,0,0,1-2.36-.66,1.87,1.87,0,0,0-1.5-.2C16.6,26.49,11.48,28.06,11,28s-0.24-.46,0-0.64S12.43,26.16,12.85,25.9Z"/>
    <path class="cls-2" d="M27,12.33a6.51,6.51,0,0,0-.71-0.85,1.67,1.67,0,0,1-.65-0.87c0-.27,1.22.05,1.69,0.2a4.51,4.51,0,0,0,2.19.27c1-.16,4.75-1.46,4.92-1.46,0,0,0-.73,0-0.9a1.67,1.67,0,0,0,0-.46c0-.18,0-0.16.09-0.12a7.88,7.88,0,0,0,2.5.94,14.37,14.37,0,0,1,6.1.25,10.28,10.28,0,0,1,2.72,1.06,0.15,0.15,0,0,1,0,.16,0.83,0.83,0,0,1-.17.14,0.5,0.5,0,0,1,.27.23,3.54,3.54,0,0,1-1.37,1.28c-0.8.39-2.5,1.08-3,1.33s-2,.9-5.32.67l-0.44,1.33a0.18,0.18,0,0,1-.2-0.12A1.32,1.32,0,0,0,35.46,15a5.6,5.6,0,0,1-.2-0.82,4.14,4.14,0,0,1-1.64-.16,7.57,7.57,0,0,0-1.55-.66,3.91,3.91,0,0,1-1.52-.53,1,1,0,0,0-1-.16A35.11,35.11,0,0,1,25.77,14c-0.31,0-.16-0.37,0-0.51S26.7,12.54,27,12.33Z"/>
    <g>
      <path class="cls-3" d="M67,16.48c-1.19,1-2.55,2.12-4.46,5.94-2,4.08-2.85,10-3.16,14.45,0.12-.41.26-0.78,0.36-1.06A10.08,10.08,0,0,1,61.27,33a6.58,6.58,0,0,1,1.44-1.48c0.52-.34,1.13-0.49,1.63-0.84,1-.67.34-1.62,1.38-2.22,0.52-.3.75-0.21,0.88-0.87a5.7,5.7,0,0,0-.07-1.94,3,3,0,0,1-.2-1.43,3.63,3.63,0,0,1,.86-1c0.76-1-.39-2.42.3-3.53a2.83,2.83,0,0,0,.73-0.88c0-.39-0.54-0.44-0.29-1s1.24-.4,2-0.39a0.54,0.54,0,0,0,.54-0.6,1.6,1.6,0,0,1,.1-0.91c0.36-.65,1.17-0.51,1.71-0.82,1.08-.62.64-1.63,0.56-2.62a1.43,1.43,0,0,1,.29-1.25A2,2,0,0,0,74,10.66c0.26-.81-1-1.66-1-2.53s0.31-2,1.32-1.94c0,0,.61-0.13.44,0.8s0.66-1.52-.13-2.29a1.75,1.75,0,0,0-.43-0.32c-1.38,1.5-3.09,5.6-4,7.77A9.46,9.46,0,0,1,67,16.48Z"/>
      <path class="cls-3" d="M59.19,42.43A1.1,1.1,0,0,0,60,42a5.08,5.08,0,0,0-.22-1.84,5.8,5.8,0,0,0-.55-1C59.19,40.7,59.18,41.88,59.19,42.43Z"/>
      <path class="cls-3" d="M66.37,15.71a8.43,8.43,0,0,0,2.89-3.94,51.12,51.12,0,0,1,3.17-6.68,2.34,2.34,0,0,1-.34.2c-0.85.41-1.92-.28-2.64,0.53s-0.19,1.87-1.2,2.56-1.11,1.49-1.72,2.34a1,1,0,0,0-.19.44,1.15,1.15,0,0,1-.34.68,5.4,5.4,0,0,1-1.89,1.51c-0.79.26-1.05,0.07-1.32,0.91s-0.19,1.21-1.09,1.49c-0.7.22-1.19,0-1.48,0.82a5,5,0,0,1-.42,1.61,10.14,10.14,0,0,0-1.15,1.24c-0.69,1.32.07,3.1-1.19,4-0.55.41-1.24,0.48-1.52,1.17a3,3,0,0,0,.4,2.58c0.8,1.22,1.25,1.72,0,2.78s-0.83,1.79.29,2.71c0.86,0.71.88,1.43,1.1,2.47a7.6,7.6,0,0,1,.22,3c-0.18,1.21.2,2.53,0.07,3.73L58.18,42c0-3,.26-13.6,3.47-20C63.66,18,65.1,16.77,66.37,15.71Z"/>
      <path class="cls-1" d="M59.15,38.89a1.27,1.27,0,0,0,.11.27c0-.69.07-1.46,0.13-2.28A4.28,4.28,0,0,0,59.15,38.89Z"/>
      <path class="cls-1" d="M72.43,5.09a51.12,51.12,0,0,0-3.17,6.68,8.43,8.43,0,0,1-2.89,3.94C65.1,16.77,63.66,18,61.66,22c-3.21,6.42-3.47,17-3.47,20a1.61,1.61,0,0,0,1,.44c0-.56,0-1.73.07-3.28a1.27,1.27,0,0,1-.11-0.27,4.28,4.28,0,0,1,.24-2c0.32-4.42,1.12-10.38,3.16-14.45,1.91-3.82,3.26-4.95,4.46-5.94a9.46,9.46,0,0,0,3.17-4.32c0.9-2.17,2.61-6.26,4-7.77C73.49,4,73,4.66,72.43,5.09Z"/>
    </g>
  </g>
</svg>
