<svg xmlns="http://www.w3.org/2000/svg" viewBox="0 0 90.77 44.46">
  <defs>
    <style>
      .cls-1 {
        isolation: isolate;
      }

      .cls-2 {
        fill: none;
      }

      .cls-3 {
        fill: #d4564a;
      }

      .cls-4 {
        fill: #fad7cf;
      }

      .cls-5 {
        fill: #d5564a;
        mix-blend-mode: multiply;
      }

      .cls-6 {
        fill: #74151c;
      }
    </style>
  </defs>
  <title>a6</title>
  <g class="cls-1">
    <g id="Layer_1" data-name="Layer 1">
      <g id="a6">
        <g>
          <path class="cls-2" d="M70.08,10.72a1.86,1.86,0,0,1,.22-0.39l-0.74-.22C69.74,10.31,69.91,10.51,70.08,10.72Z"/>
          <path class="cls-2" d="M74.52,23.73a1.85,1.85,0,0,1-.41-0.2c0,0.28,0,.55-0.08.82Z"/>
          <path class="cls-3" d="M72.48,21.69l-6.35,4.7c0.28,0.76.58,1.53,0.89,2.31l6.19-6A9.13,9.13,0,0,1,72.48,21.69Z"/>
          <path class="cls-3" d="M71,18.62L64.33,21.2q0.34,1,.71,2.11l6.43-3.54C71.3,19.4,71.15,19,71,18.62Z"/>
          <path class="cls-3" d="M71.66,20.19l-6.47,3.56q0.37,1.07.78,2.18l6.27-4.64C72,21,71.85,20.58,71.66,20.19Z"/>
          <path class="cls-3" d="M67.2,29.16q0.5,1.24,1,2.51L74,24.35c0-.27.06-0.54,0.08-0.82a3.59,3.59,0,0,1-.6-0.5Z"/>
          <path class="cls-3" d="M60.69,7.5c0.15,0.75.34,1.63,0.56,2.61l8.62,1.39a3.61,3.61,0,0,1,.21-0.77c-0.17-.21-0.35-0.41-0.53-0.61Z"/>
          <path class="cls-3" d="M68.88,9.43C66.38,7.07,63.34,6,60.53,6.68L60.59,7Z"/>
          <path class="cls-3" d="M70.07,15.35l-7.29.75q0.29,1,.62,2.13l7-1.67C70.24,16.15,70.15,15.74,70.07,15.35Z"/>
          <path class="cls-3" d="M69.82,11.94l-8.46-1.36c0.17,0.74.37,1.53,0.58,2.38L69.8,13.2A9.23,9.23,0,0,1,69.82,11.94Z"/>
          <path class="cls-3" d="M69.83,13.65l-7.77-.23q0.27,1.06.6,2.22L70,14.9C69.92,14.47,69.86,14,69.83,13.65Z"/>
          <path class="cls-3" d="M70.64,17.58c-0.06-.19-0.12-0.39-0.17-0.58l-6.94,1.66q0.31,1,.65,2.1l6.66-2.58C70.78,18,70.71,17.79,70.64,17.58Z"/>
          <path class="cls-3" d="M68.52,32.34c2.74-1,4.62-3.65,5.33-7l-5.41,6.84Z"/>
          <path class="cls-4" d="M60,6.82L60.59,7l-0.06-.31-0.37.09Z"/>
          <path class="cls-4" d="M68.2,32.46h0l0.29-.11-0.08-.19Z"/>
          <path class="cls-3" d="M71.47,19.77l2.31-1.27q-0.09-.44-0.21-0.87l-2.57,1C71.15,19,71.3,19.4,71.47,19.77Z"/>
          <path class="cls-5" d="M71.47,19.77l2.31-1.27q-0.09-.44-0.21-0.87l-2.57,1C71.15,19,71.3,19.4,71.47,19.77Z"/>
          <path class="cls-3" d="M70.79,11.63q-0.34-.48-0.71-0.92a3.61,3.61,0,0,0-.21.77Z"/>
          <path class="cls-5" d="M70.79,11.63q-0.34-.48-0.71-0.92a3.61,3.61,0,0,0-.21.77Z"/>
          <path class="cls-3" d="M74.11,23.53c0-.37,0-0.75.05-1.13L73.52,23A3.59,3.59,0,0,0,74.11,23.53Z"/>
          <path class="cls-5" d="M74.11,23.53c0-.37,0-0.75.05-1.13L73.52,23A3.59,3.59,0,0,0,74.11,23.53Z"/>
          <path class="cls-3" d="M72.24,21.29L74,20c0-.33-0.09-0.67-0.16-1l-2.21,1.22C71.85,20.58,72,21,72.24,21.29Z"/>
          <path class="cls-5" d="M72.24,21.29L74,20c0-.33-0.09-0.67-0.16-1l-2.21,1.22C71.85,20.58,72,21,72.24,21.29Z"/>
          <path class="cls-3" d="M69.8,13.2l2,0.06q-0.32-.57-0.67-1.1l-1.34-.21A9.23,9.23,0,0,0,69.8,13.2Z"/>
          <path class="cls-5" d="M69.8,13.2l2,0.06q-0.32-.57-0.67-1.1l-1.34-.21A9.23,9.23,0,0,0,69.8,13.2Z"/>
          <path class="cls-3" d="M70.35,16.56L73,15.92c-0.1-.28-0.21-0.57-0.33-0.84l-2.63.27C70.15,15.74,70.24,16.15,70.35,16.56Z"/>
          <path class="cls-5" d="M70.35,16.56L73,15.92c-0.1-.28-0.21-0.57-0.33-0.84l-2.63.27C70.15,15.74,70.24,16.15,70.35,16.56Z"/>
          <path class="cls-3" d="M70,14.9l2.52-.26q-0.21-.47-0.45-0.92l-2.23-.07C69.86,14,69.92,14.47,70,14.9Z"/>
          <path class="cls-5" d="M70,14.9l2.52-.26q-0.21-.47-0.45-0.92l-2.23-.07C69.86,14,69.92,14.47,70,14.9Z"/>
          <path class="cls-3" d="M73.21,22.7l1-.93q0-.63-0.08-1.27l-1.61,1.19A9.13,9.13,0,0,0,73.21,22.7Z"/>
          <path class="cls-5" d="M73.21,22.7l1-.93q0-.63-0.08-1.27l-1.61,1.19A9.13,9.13,0,0,0,73.21,22.7Z"/>
          <path class="cls-3" d="M70.64,17.58c0.06,0.2.13,0.4,0.2,0.6l2.6-1c0-.15-0.08-0.29-0.12-0.44s-0.09-.26-0.14-0.39L70.47,17C70.53,17.2,70.58,17.39,70.64,17.58Z"/>
          <path class="cls-5" d="M70.64,17.58c0.06,0.2.13,0.4,0.2,0.6l2.6-1c0-.15-0.08-0.29-0.12-0.44s-0.09-.26-0.14-0.39L70.47,17C70.53,17.2,70.58,17.39,70.64,17.58Z"/>
          <path class="cls-6" d="M60.64,7.24l8.59,2.53-0.35-.34L60.59,7Z"/>
          <path class="cls-6" d="M69.56,10.11l-0.33-.34L60.64,7.24,60.69,7.5Z"/>
          <path class="cls-6" d="M60.64,7.24L60.59,7,60,6.82,59.67,7Z"/>
          <path class="cls-6" d="M60.64,7.24l-1-.28-0.33.14,1.35,0.4Z"/>
          <path class="cls-6" d="M69.84,11.72l-8.54-1.37,0.06,0.24,8.46,1.36C69.82,11.86,69.83,11.79,69.84,11.72Z"/>
          <path class="cls-6" d="M69.84,11.72c0-.08,0-0.15,0-0.23L61.25,10.1l0.06,0.24Z"/>
          <path class="cls-6" d="M58.63,9.91l0,0.23,2.76,0.44-0.06-.24Z"/>
          <path class="cls-6" d="M61.25,10.1l-2.58-.41,0,0.23,2.67,0.43Z"/>
          <path class="cls-6" d="M69.84,11.72L71,11.9l-0.19-.26-0.91-.15C69.86,11.56,69.85,11.64,69.84,11.72Z"/>
          <path class="cls-6" d="M69.82,11.94l1.34,0.21L71,11.9l-1.14-.18C69.83,11.79,69.82,11.86,69.82,11.94Z"/>
          <path class="cls-6" d="M69.81,13.42q0-.12,0-0.23L61.94,13,62,13.19Z"/>
          <path class="cls-6" d="M69.81,13.42L62,13.19l0.06,0.23,7.77,0.23C69.82,13.58,69.82,13.5,69.81,13.42Z"/>
          <path class="cls-6" d="M58.75,13.1L62,13.19,61.94,13l-3.19-.09v0.46l3.32,0.1L62,13.19Z"/>
          <path class="cls-6" d="M69.83,13.65l2.23,0.07-0.12-.23-2.13-.06C69.82,13.5,69.82,13.58,69.83,13.65Z"/>
          <path class="cls-6" d="M69.81,13.42l2.13,0.06-0.12-.23-2-.06Q69.81,13.31,69.81,13.42Z"/>
          <path class="cls-6" d="M70,15.12l-7.32.75,0.06,0.22,7.29-.75Z"/>
          <path class="cls-6" d="M70,15.12l0-.23-7.34.75,0.06,0.22Z"/>
          <path class="cls-6" d="M59.15,16.24l0,0.23,3.6-.37-0.06-.22Z"/>
          <path class="cls-6" d="M62.65,15.65L59.13,16l0,0.23,3.56-.36Z"/>
          <path class="cls-6" d="M70,15.12l2.58-.26-0.1-.22L70,14.9Z"/>
          <path class="cls-6" d="M70.07,15.35l2.63-.27-0.1-.22L70,15.12Z"/>
          <path class="cls-6" d="M70.41,16.78l-0.06-.22-7,1.67,0.07,0.22Z"/>
          <path class="cls-6" d="M70.41,16.78l-6.94,1.66,0.07,0.22L70.47,17Z"/>
          <path class="cls-6" d="M59.85,19.31l3.61-.87-0.07-.22-3.6.86,0.11,0.45,3.63-.87-0.07-.22Z"/>
          <path class="cls-6" d="M70.41,16.78l2.7-.65L73,15.92l-2.68.64Z"/>
          <path class="cls-6" d="M70.47,17l2.72-.65-0.08-.22-2.7.65Z"/>
          <path class="cls-6" d="M70.92,18.4L64.26,21l0.07,0.22L71,18.62Z"/>
          <path class="cls-6" d="M70.92,18.4l-0.08-.22-6.66,2.58L64.26,21Z"/>
          <path class="cls-6" d="M60.83,22.31l0.08,0.21,3.42-1.32L64.26,21Z"/>
          <path class="cls-6" d="M64.19,20.76l-3.44,1.33,0.08,0.21L64.26,21Z"/>
          <path class="cls-6" d="M71,18.62l2.57-1-0.06-.22-2.59,1Z"/>
          <path class="cls-6" d="M70.92,18.4l2.59-1-0.06-.22-2.6,1Z"/>
          <path class="cls-6" d="M71.56,20l-0.1-.21L65,23.31l0.07,0.22Z"/>
          <path class="cls-6" d="M71.56,20l-6.45,3.55,0.08,0.22,6.47-3.56Z"/>
          <path class="cls-6" d="M65,23.31L62,25l0.11,0.2,3-1.67Z"/>
          <path class="cls-6" d="M62.08,25.2l0.11,0.2,3-1.65-0.08-.22Z"/>
          <path class="cls-6" d="M71.66,20.19L73.87,19l0-.24L71.56,20Z"/>
          <path class="cls-6" d="M71.56,20l2.26-1.24,0-.24-2.31,1.27Z"/>
          <path class="cls-6" d="M72.36,21.49l-6.31,4.67,0.08,0.22,6.35-4.7Z"/>
          <path class="cls-6" d="M72.36,21.49l-0.12-.2L66,25.94l0.08,0.22Z"/>
          <path class="cls-6" d="M63.61,28l2.44-1.81L66,25.94l-2.5,1.85,0.27,0.37,2.39-1.77-0.08-.22Z"/>
          <path class="cls-6" d="M72.48,21.69l1.61-1.19c0-.09,0-0.17,0-0.26l-1.7,1.26Z"/>
          <path class="cls-6" d="M72.36,21.49l1.7-1.26L74,20l-1.79,1.32Z"/>
          <path class="cls-6" d="M73.36,22.87l-0.15-.17L67,28.7l0.09,0.23Z"/>
          <path class="cls-6" d="M73.36,22.87l-6.25,6.06,0.09,0.23L73.52,23Z"/>
          <path class="cls-6" d="M67,28.7l-1.79,1.73,0.16,0.16,1.72-1.67Z"/>
          <path class="cls-6" d="M65.39,30.59l0.16,0.16,1.65-1.6-0.09-.23Z"/>
          <path class="cls-6" d="M73.52,23l0.65-.63c0-.11,0-0.22,0-0.33l-0.82.79Z"/>
          <path class="cls-6" d="M73.36,22.87l0.82-.79c0-.1,0-0.21,0-0.31l-1,.93Z"/>
          <path class="cls-6" d="M68.34,31.91l0.1,0.24,5.41-6.84c0-.16.06-0.32,0.09-0.48Z"/>
          <path class="cls-6" d="M68.24,31.67l0.1,0.24,5.6-7.08c0-.16.06-0.31,0.08-0.48Z"/>
          <path class="cls-6" d="M68.2,32.46l0.24-.31-0.1-.24-0.5.64Z"/>
          <path class="cls-6" d="M67.48,32.64l0.36-.09,0.5-.64-0.1-.24Z"/>
        </g>
        <path class="cls-4" d="M67.2,29.16l-1.65,1.6-0.16-.16-0.16-.16L67,28.7c-0.31-.78-0.61-1.55-0.89-2.31l-2.39,1.77-0.27-.37L66,25.94q-0.41-1.11-.78-2.18l-3,1.65-0.11-.2L62,25,65,23.31q-0.37-1.08-.71-2.11l-3.42,1.32-0.08-.21-0.08-.21,3.44-1.33q-0.35-1.07-.65-2.1l-3.63.87-0.11-.45,3.6-.86q-0.33-1.1-.62-2.13l-3.6.37,0-.23,0-.23,3.52-.36q-0.32-1.16-.6-2.22l-3.32-.1V12.87L61.94,13c-0.21-.84-0.41-1.64-0.58-2.38l-2.76-.44,0-.23,0-.23,2.58,0.41c-0.22-1-.41-1.85-0.56-2.61l-1.35-.4a4.07,4.07,0,0,0-1.53,1.23,2.31,2.31,0,0,0-2.86,2.48,8,8,0,0,1-1.31-.27,6.22,6.22,0,0,0-6.89,2.17,5.53,5.53,0,0,1-6.18,1.94,6.23,6.23,0,0,0-6.9,2.17,5.54,5.54,0,0,1-6.18,1.94,5.87,5.87,0,0,0-3.79,0l0.21,0.66a5.22,5.22,0,0,1,3.4,0,7,7,0,0,0,1.95.33,6.1,6.1,0,0,0,1.85-.31,5.86,5.86,0,0,0,3.1-2.19,5.54,5.54,0,0,1,6.18-1.94,6.23,6.23,0,0,0,6.89-2.17,5.54,5.54,0,0,1,6.18-1.94,7.64,7.64,0,0,0,1.7.32,2.32,2.32,0,0,0,1.54,1.32,2.29,2.29,0,0,0-.95,3.37c-0.41,0-.79-0.11-1.18-0.18a8.77,8.77,0,0,0-8.25,2.6A8.08,8.08,0,0,1,38.68,21a8.77,8.77,0,0,0-8.26,2.6,7.39,7.39,0,0,1-3.5,2.21,7.37,7.37,0,0,1-4.14.19,8.06,8.06,0,0,0-4.47.21l0.21,0.66a7.37,7.37,0,0,1,4.14-.19,10.15,10.15,0,0,0,1.92.22,8.37,8.37,0,0,0,2.55-.43,8.05,8.05,0,0,0,3.79-2.39,8.08,8.08,0,0,1,7.64-2.4,8.77,8.77,0,0,0,8.25-2.6,8.08,8.08,0,0,1,7.63-2.4,9.77,9.77,0,0,0,2.09.21,2.32,2.32,0,0,0,.92.32,2.32,2.32,0,0,0,.91,4.3,9.42,9.42,0,0,1-2.46-.14A10.09,10.09,0,0,0,47,24.22a8.51,8.51,0,0,1-3.83,2.32,8.5,8.5,0,0,1-4.47.29,9.19,9.19,0,0,0-4.78.31,9.2,9.2,0,0,0-4.1,2.48A8.5,8.5,0,0,1,26,31.94a8.51,8.51,0,0,1-4.47.29,9.21,9.21,0,0,0-4.78.31L17,33.2a8.52,8.52,0,0,1,4.47-.29,9.19,9.19,0,0,0,4.78-.31,9.2,9.2,0,0,0,4.1-2.48,8.5,8.5,0,0,1,3.83-2.32,8.52,8.52,0,0,1,4.47-.29,9.19,9.19,0,0,0,4.78-.31,9.19,9.19,0,0,0,4.1-2.48,9.4,9.4,0,0,1,8.29-2.61,10.57,10.57,0,0,0,2.39.16A2.31,2.31,0,0,0,60,25.86a2.35,2.35,0,0,0-.59.95,10.6,10.6,0,0,1-1.56-.2,8.77,8.77,0,0,0-8.25,2.6A8.08,8.08,0,0,1,42,31.61a8.77,8.77,0,0,0-8.26,2.6,7.38,7.38,0,0,1-3.5,2.21,7.39,7.39,0,0,1-4.14.19,8,8,0,0,0-4.47.21l0.21,0.66A7.39,7.39,0,0,1,26,37.29a10.14,10.14,0,0,0,1.92.22,8.35,8.35,0,0,0,2.55-.43,8.05,8.05,0,0,0,3.79-2.39,8.08,8.08,0,0,1,7.64-2.4,8.77,8.77,0,0,0,8.26-2.6,8.07,8.07,0,0,1,7.63-2.4,11.71,11.71,0,0,0,1.56.21,2.28,2.28,0,0,0,.1.74,2.33,2.33,0,0,0,2,1.62,2.32,2.32,0,0,0-.23,1.89c0,0.06,0,.11.07,0.16a10,10,0,0,1-1-.23,6.23,6.23,0,0,0-6.9,2.17,5.53,5.53,0,0,1-6.18,1.94A6.23,6.23,0,0,0,40.32,38a5.54,5.54,0,0,1-6.18,1.94,5.86,5.86,0,0,0-3.79,0l0.21,0.66a5.23,5.23,0,0,1,3.4,0,7,7,0,0,0,1.95.33,6.1,6.1,0,0,0,1.85-.31,5.86,5.86,0,0,0,3.1-2.19A5.54,5.54,0,0,1,47,36.46a6.22,6.22,0,0,0,6.89-2.17,5.54,5.54,0,0,1,6.18-1.94,7.74,7.74,0,0,0,1.66.32,2.31,2.31,0,0,0,3.51-.2,4.07,4.07,0,0,0,2.2.17l0.76-1Q67.7,30.4,67.2,29.16Z"/>
      </g>
    </g>
  </g>
</svg>
