<svg xmlns="http://www.w3.org/2000/svg" viewBox="0 0 90.77 44.46">
  <defs>
    <style>
      .cls-1 {
        isolation: isolate;
      }

      .cls-2, .cls-4 {
        fill: #ba6c4a;
      }

      .cls-3 {
        fill: #eccab3;
      }

      .cls-4 {
        opacity: 0.67;
        mix-blend-mode: multiply;
      }

      .cls-5 {
        fill: #3c3f3b;
      }

      .cls-6 {
        fill: #914a36;
      }
    </style>
  </defs>
  <title>a7</title>
  <g class="cls-1">
    <g id="Layer_1" data-name="Layer 1">
      <g id="a7">
        <path class="cls-2" d="M31,22.28l-1.23.65h0a20.44,20.44,0,0,1-2.49.44l0.28,0.87-0.48.31-1.85.34,0.35,0.73c-0.27.21-.52,0.42-0.76,0.63l-0.55.2c-0.12-.11-0.24-0.22-0.38-0.33a10,10,0,0,0-1.31-.91A10.53,10.53,0,0,0,21,24.41a11.34,11.34,0,0,0-1.72-.5c-0.28-.06-0.55-0.09-0.81-0.13a7.12,7.12,0,0,0-.73-0.06,8.89,8.89,0,0,0-1.09,0H16.23l0.41,0a8.78,8.78,0,0,1,1.07.13,6.91,6.91,0,0,1,.7.14c0.25,0.07.51,0.13,0.77,0.21a10.9,10.9,0,0,1,1.59.66,9.9,9.9,0,0,1,1.44.9,9.18,9.18,0,0,1,1.11,1l0,0-0.19.07,0.52,0.56,0,0-0.13-.06a14.48,14.48,0,0,0-3.42-1,17.84,17.84,0,0,0-1.88-.2c-0.6,0-1.16,0-1.64,0s-0.87.07-1.15,0.1l-0.43,0h0.44c0.28,0,.67,0,1.15,0s1,0.08,1.6.15a17.4,17.4,0,0,1,1.8.38,13.78,13.78,0,0,1,3.11,1.28l-0.18.3-1.06-.18c-0.6-.07-1.23-0.13-1.87-0.15a16.42,16.42,0,0,0-3.48.28,10,10,0,0,0-1.52.41,10,10,0,0,1,1.55-.25,16.08,16.08,0,0,1,3.41.08c0.61,0.08,1.22.2,1.78,0.33l0.83,0.23a2.76,2.76,0,0,0-.13.59l-1.15.14c-1.08.15-2.51,0.39-3.91,0.73a30.57,30.57,0,0,0-3.79,1.16c-0.5.2-.92,0.37-1.2,0.51l-0.45.2,0.47-.16c0.29-.11.72-0.25,1.24-0.39a30.24,30.24,0,0,1,3.84-.8c1.41-.21,2.83-0.32,3.89-0.37l1.19,0a2.17,2.17,0,0,0,.29.53c-0.26.16-.65,0.38-1.13,0.64a30.26,30.26,0,0,1-3.56,1.64,25.84,25.84,0,0,1-3.77,1.14c-0.53.12-1,.19-1.28,0.23L12.62,35l0.49,0c0.32,0,.77,0,1.3-0.12a26.18,26.18,0,0,0,3.91-.8,31,31,0,0,0,3.78-1.34c0.67-.28,1.18-0.53,1.45-0.67-0.12.2-.27,0.43-0.46,0.7s-0.59.81-.95,1.26-0.79.9-1.23,1.33a16.08,16.08,0,0,1-2.68,2.11,10,10,0,0,1-1.38.73,10,10,0,0,0,1.46-.59,16.41,16.41,0,0,0,3-1.86c0.5-.4,1-0.82,1.41-1.24s0.81-.83,1.12-1.2L24.07,33c-0.08.24-.18,0.53-0.33,0.88A13.77,13.77,0,0,1,22,36.77a17.4,17.4,0,0,1-1.21,1.38c-0.42.41-.82,0.79-1.19,1.08s-0.68.54-.9,0.7l-0.35.26L18.73,40c0.24-.14.59-0.33,1-0.61s0.85-.6,1.32-1a17.84,17.84,0,0,0,1.38-1.28,14.48,14.48,0,0,0,2.13-2.86c0.2-.36.35-0.68,0.46-0.93,0,0.1,0,.18,0,0.23a8,8,0,0,1-.08,1A9.18,9.18,0,0,1,24.62,36,9.9,9.9,0,0,1,24,37.59a10.91,10.91,0,0,1-.88,1.48c-0.16.23-.33,0.43-0.49,0.63a6.9,6.9,0,0,1-.48.53,8.77,8.77,0,0,1-.78.75l-0.31.27L21.4,41a8.9,8.9,0,0,0,.86-0.66,7.12,7.12,0,0,0,.54-0.49c0.18-.19.38-0.37,0.57-0.59a11.35,11.35,0,0,0,1.08-1.43,10.52,10.52,0,0,0,.83-1.6,10,10,0,0,0,.5-1.51A8.93,8.93,0,0,0,26,33.61a1.88,1.88,0,0,0,0-.21l1-.22,0.79,0.11,0.09,0.87,1.85-.71,0.47,0,0.23,0.92a20.44,20.44,0,0,1,2.35-.93h0L34,33.39A15,15,0,0,0,31,22.28ZM24.45,32.5l0,0,0.22,0.1Z"/>
        <path class="cls-3" d="M72.48,8.54s0-.1,0-0.15,0-.14-0.06-0.21h0A4.56,4.56,0,0,0,70.76,6C68.34,4.13,64.11,4.6,59.64,5.1c-4.89.55-10,1.11-11.71-1.81a0.63,0.63,0,0,0-1.08.65c2.17,3.61,7.64,3,12.93,2.41C63.8,5.91,68,5.45,70,7a2.83,2.83,0,0,1,1.31,2.39c-0.11,2.31-3.38,4.91-4.63,5.72A0.63,0.63,0,0,0,67,16.3a0.65,0.65,0,0,0,.2-0.06l1.27,0.68S73.72,12.94,72.48,8.54Z"/>
        <path class="cls-3" d="M76.28,20.27c-2.57-2-8.13-1-8.37-1a0.63,0.63,0,0,0-.5.74,0.62,0.62,0,0,0,.63.5l0.23,0.9,0.8-.26s3.25-.71,5.36.34a2.91,2.91,0,0,1,1.17,4c-2,3.62-7.89,7.48-13.8,9.87-0.36.14-3.51,1.45-4.42,3.15a0.63,0.63,0,1,0,1.11.6c0.59-1.1,2.93-2.23,3.78-2.58C70,33.4,77.77,28,77.58,22.91A3.38,3.38,0,0,0,76.28,20.27Z"/>
        <g>
          <path class="cls-2" d="M47.59,16.31l3.77,13.8,1.35-.41L49,16Z"/>
          <path class="cls-2" d="M42.2,17.83L46,31.54l1.37-.33-3.77-13.8Z"/>
          <path class="cls-2" d="M36.9,19.69l3.54,12.95,1.4-.24L38.23,19.18Z"/>
          <path class="cls-2" d="M53.07,15.13l3.61,13.19L58,27.8,54.48,14.91Z"/>
          <g>
            <path class="cls-2" d="M68.81,25a10.11,10.11,0,0,0-.43-1.26c-0.13-.3-0.24-0.5-0.23-0.48a0.63,0.63,0,0,0-.87-0.21,0.62,0.62,0,0,0-.24.3,0.61,0.61,0,0,0-.3,0,0.63,0.63,0,0,0-.41.79s0.06,0.16.15,0.47a12.28,12.28,0,0,1,.3,1.34,14.37,14.37,0,0,1,.21,2,15.33,15.33,0,0,1-.07,2.27c0,0.39-.11.77-0.16,1.15s-0.16.74-.24,1.1-0.2.69-.29,1-0.22.62-.32,0.89-0.19.53-.3,0.75l-0.27.56-0.24.49,0.28-.46,0.33-.53c0.13-.2.24-0.45,0.38-0.72s0.29-.55.41-0.87,0.28-.65.4-1,0.25-.72.35-1.1,0.22-.77.28-1.17a16.07,16.07,0,0,0,.31-2.35,15.34,15.34,0,0,0,0-2.09c0-.2,0-0.36-0.05-0.54v0A10.6,10.6,0,0,1,68.3,27a12.64,12.64,0,0,1,.28,1.94l0,1,0,1a15.86,15.86,0,0,1-.26,1.73,12.2,12.2,0,0,1-.3,1.21l-0.13.46L68,33.85a12.34,12.34,0,0,0,.44-1.17A16.15,16.15,0,0,0,69,31l0.17-1,0.1-1a13.4,13.4,0,0,0-.06-2.08A11.57,11.57,0,0,0,68.81,25Z"/>
            <path class="cls-2" d="M65.76,29.21a16.48,16.48,0,0,0,.56-3.58,12,12,0,0,0,0-1.68h0V23.89a0.52,0.52,0,0,0-.35-0.38c2.62-2,3.75-4,3.28-5.71S66.89,15,63.78,14.6a0.52,0.52,0,0,0,0-.4h0a12,12,0,0,0-.74-1.51,16.48,16.48,0,0,0-2.11-2.94,14.49,14.49,0,0,0-1.37-1.35C59.35,8.17,59.11,8,58.89,7.83a7.09,7.09,0,0,0-.64-0.46,10.11,10.11,0,0,0-1-.62l-0.39-.22,0.36,0.26a10,10,0,0,1,.92.71,6.92,6.92,0,0,1,.58.51c0.2,0.19.41,0.38,0.61,0.61a14.06,14.06,0,0,1,1.19,1.44,15.76,15.76,0,0,1,1.72,3,10.82,10.82,0,0,1,.53,1.42H62.65a16,16,0,0,0-1.11-1.39,14.5,14.5,0,0,0-1.37-1.35c-0.22-.21-0.46-0.38-0.68-0.56a7.09,7.09,0,0,0-.64-0.46,10.1,10.1,0,0,0-1-.62l-0.39-.22,0.36,0.26a10,10,0,0,1,.92.71,6.92,6.92,0,0,1,.58.51c0.2,0.19.41,0.38,0.61,0.61a14.06,14.06,0,0,1,1.19,1.44c0.24,0.33.46,0.67,0.67,1-1,0-2,0-3.11,0L61.86,26c0.94-.49,1.79-1,2.56-1.47,0,0.42-.08.84-0.15,1.27a14.07,14.07,0,0,1-.42,1.82c-0.07.29-.18,0.56-0.27,0.82a6.92,6.92,0,0,1-.29.72,10,10,0,0,1-.51,1l-0.21.39,0.25-.37a10.09,10.09,0,0,0,.61-1,7.09,7.09,0,0,0,.36-0.7c0.12-.25.26-0.52,0.36-0.8a14.5,14.5,0,0,0,.62-1.82,16.21,16.21,0,0,0,.4-1.88L65.27,24a0.5,0.5,0,0,0,0,.1,10.82,10.82,0,0,1,.17,1.53,15.77,15.77,0,0,1-.19,3.46,14.08,14.08,0,0,1-.42,1.82c-0.07.29-.18,0.56-0.27,0.82a6.92,6.92,0,0,1-.29.72,10,10,0,0,1-.51,1l-0.21.39,0.25-.37a10.1,10.1,0,0,0,.61-1,7.09,7.09,0,0,0,.36-0.7c0.12-.25.26-0.52,0.36-0.8A14.5,14.5,0,0,0,65.76,29.21Z"/>
            <path class="cls-2" d="M58.16,4.54c0.2,0.14.38,0.34,0.61,0.53s0.46,0.4.69,0.65,0.49,0.49.72,0.77,0.48,0.57.71,0.88,0.46,0.62.66,1a15.34,15.34,0,0,1,1.08,2,14.38,14.38,0,0,1,.69,1.84,12.27,12.27,0,0,1,.33,1.33c0.06,0.32.07,0.48,0.07,0.49a0.63,0.63,0,0,0,.72.52,0.62,0.62,0,0,0,.28-0.13,0.62,0.62,0,0,0,.35.16A0.63,0.63,0,0,0,65.75,14s0-.21,0-0.53a10.1,10.1,0,0,0-.18-1.31A11.56,11.56,0,0,0,65,10.35a13.4,13.4,0,0,0-.88-1.89l-0.56-.89L63,6.75a16.13,16.13,0,0,0-1.19-1.33,12.32,12.32,0,0,0-.92-0.85l-0.36-.31,0.32,0.35a12.21,12.21,0,0,1,.81.94,15.87,15.87,0,0,1,1,1.42l0.48,0.85L63.6,8.74a12.64,12.64,0,0,1,.62,1.86,10.6,10.6,0,0,1,.28,1.67v0c-0.06-.16-0.12-0.32-0.19-0.5a15.35,15.35,0,0,0-.93-1.87,16.09,16.09,0,0,0-1.33-2C61.82,7.64,61.53,7.35,61.28,7s-0.55-.56-0.81-0.83-0.55-.49-0.81-0.71-0.52-.41-0.76-0.59-0.45-.35-0.66-0.47L57.7,4.11l-0.46-.29,0.43,0.33Z"/>
          </g>
          <path class="cls-2" d="M54.48,14.91L58,27.8c1.41-.58,2.71-1.16,3.86-1.76L58.7,14.46C57.4,14.54,56,14.69,54.48,14.91Z"/>
          <path class="cls-2" d="M49,16l3.75,13.71c1.4-.44,2.74-0.9,4-1.37L53.07,15.13C51.77,15.36,50.4,15.64,49,16Z"/>
          <path class="cls-2" d="M45.69,16.8l-2.14.61,3.77,13.8,2.16-.56,1.88-.54-3.77-13.8Z"/>
          <path class="cls-2" d="M38.23,19.18L41.84,32.4c1.33-.24,2.71-0.53,4.11-0.85L42.2,17.83C40.83,18.26,39.5,18.71,38.23,19.18Z"/>
          <path class="cls-2" d="M31,22.28a15,15,0,0,1,3,11.1c2-.12,4.14-0.37,6.43-0.75L36.9,19.69C34.76,20.52,32.8,21.39,31,22.28Z"/>
        </g>
        <path class="cls-3" d="M25,29.9c0.76,2.78,10.47,2.54,21.69-.53s16.9-7,16.13-9.82-7.67-3.31-18.89-.24S24.25,27.12,25,29.9Z"/>
        <path class="cls-4" d="M54.48,14.91L58,27.8c1.41-.58,2.71-1.16,3.86-1.76L58.7,14.46C57.4,14.54,56,14.69,54.48,14.91Z"/>
        <path class="cls-4" d="M49,16l3.75,13.71c1.4-.44,2.74-0.9,4-1.37L53.07,15.13C51.77,15.36,50.4,15.64,49,16Z"/>
        <path class="cls-4" d="M45.69,16.8l-2.14.61,3.77,13.8,2.16-.56,1.88-.54-3.77-13.8Z"/>
        <path class="cls-4" d="M38.23,19.18L41.84,32.4c1.33-.24,2.71-0.53,4.11-0.85L42.2,17.83C40.83,18.26,39.5,18.71,38.23,19.18Z"/>
        <path class="cls-4" d="M31,22.28a15,15,0,0,1,3,11.1c2-.12,4.14-0.37,6.43-0.75L36.9,19.69C34.76,20.52,32.8,21.39,31,22.28Z"/>
        <g>
          <path class="cls-5" d="M65.52,10.25A2.78,2.78,0,0,0,62.39,14l4.81,0.61A2.77,2.77,0,0,0,65.52,10.25Z"/>
          <path class="cls-6" d="M64.43,15.72a2.78,2.78,0,0,0,2.77-1.08L62.39,14A2.78,2.78,0,0,0,64.43,15.72Z"/>
        </g>
        <g>
          <path class="cls-5" d="M68.82,20.63L65.1,24.17A2.78,2.78,0,1,0,68.82,20.63Z"/>
          <path class="cls-6" d="M68.25,20.45a2.78,2.78,0,0,0-3.14,3.72l3.71-3.53A2.78,2.78,0,0,0,68.25,20.45Z"/>
        </g>
      </g>
    </g>
  </g>
</svg>
