<svg id="Layer_1" data-name="Layer 1" xmlns="http://www.w3.org/2000/svg" xmlns:xlink="http://www.w3.org/1999/xlink" viewBox="0 0 90.77 44.46">
  <defs>
    <style>
      .cls-1 {
        fill: #e6dd92;
      }

      .cls-2 {
        fill: none;
      }

      .cls-3 {
        clip-path: url(#clip-path);
      }

      .cls-4 {
        fill: #afa15b;
      }

      .cls-5 {
        fill: #716a3b;
      }

      .cls-6 {
        fill: #fff4d4;
      }

      .cls-7 {
        clip-path: url(#clip-path-2);
      }

      .cls-8 {
        fill: #3f90ce;
      }

      .cls-9 {
        fill: #f0d6a3;
      }
    </style>
    <clipPath id="clip-path">
      <circle class="cls-1" cx="66.07" cy="22.68" r="17.04"/>
    </clipPath>
    <clipPath id="clip-path-2">
      <rect class="cls-2" x="7.23" y="-0.07" width="48.3" height="44.54"/>
    </clipPath>
  </defs>
  <title>a8</title>
  <g id="a8">
    <g>
      <g>
        <circle class="cls-1" cx="66.07" cy="22.68" r="17.04"/>
        <g class="cls-3">
          <circle class="cls-4" cx="66.07" cy="22.68" r="3.24"/>
          <path class="cls-4" d="M69.31,14.6a3.24,3.24,0,0,1-6.49,0h6.49Z"/>
          <path class="cls-4" d="M69.31,9.83a3.24,3.24,0,1,1-6.49,0h6.49Z"/>
          <path class="cls-4" d="M69.31,5.17a3.24,3.24,0,1,1-6.49,0h6.49Z"/>
          <path class="cls-4" d="M60.1,6a3.24,3.24,0,1,1-5.62,3.24Z"/>
          <path class="cls-4" d="M52.51,11.26a3.24,3.24,0,0,1-3.24,5.62Z"/>
          <path class="cls-4" d="M48.59,19.64a3.24,3.24,0,1,1,0,6.49V19.64Z"/>
          <path class="cls-4" d="M49.38,28.85a3.24,3.24,0,1,1,3.24,5.62Z"/>
          <path class="cls-4" d="M54.67,36.44a3.24,3.24,0,0,1,5.62,3.24Z"/>
          <path class="cls-4" d="M63.05,40.36a3.24,3.24,0,0,1,6.49,0H63.05Z"/>
          <path class="cls-4" d="M72.27,39.57a3.24,3.24,0,0,1,5.62-3.24Z"/>
          <path class="cls-4" d="M79.85,34.28a3.24,3.24,0,1,1,3.24-5.62Z"/>
          <path class="cls-4" d="M83.78,25.9a3.24,3.24,0,0,1,0-6.49V25.9Z"/>
          <path class="cls-4" d="M83,16.68a3.24,3.24,0,1,1-3.24-5.62Z"/>
          <path class="cls-4" d="M77.69,9.1a3.24,3.24,0,1,1-5.62-3.24Z"/>
          <path class="cls-4" d="M60.34,10.82a3.24,3.24,0,0,1-5,4.17Z"/>
          <path class="cls-4" d="M54.09,17.35A3.24,3.24,0,1,1,53,23.74Z"/>
          <path class="cls-4" d="M53.51,26.37A3.24,3.24,0,1,1,56.75,32Z"/>
          <path class="cls-4" d="M58.85,33.65a3.24,3.24,0,0,1,6.09,2.22Z"/>
          <path class="cls-4" d="M67.63,35.79a3.24,3.24,0,0,1,6.09-2.22Z"/>
          <path class="cls-4" d="M75.73,31.79A3.24,3.24,0,1,1,79,26.17Z"/>
          <path class="cls-4" d="M79.36,23.52a3.24,3.24,0,1,1-1.13-6.39Z"/>
          <path class="cls-4" d="M76.83,14.85a3.24,3.24,0,0,1-5-4.17Z"/>
          <path class="cls-4" d="M60.66,15.74a3.24,3.24,0,1,1-3.24,5.62Z"/>
          <path class="cls-4" d="M57.32,23.8a3.24,3.24,0,1,1,3.24,5.62Z"/>
          <path class="cls-4" d="M62.64,30.73a3.24,3.24,0,1,1,6.49,0H62.64Z"/>
          <path class="cls-4" d="M71.29,29.59A3.24,3.24,0,1,1,74.53,24Z"/>
          <path class="cls-4" d="M74.63,21.52a3.24,3.24,0,0,1-3.24-5.62Z"/>
        </g>
      </g>
      <circle class="cls-5" cx="66.07" cy="22.68" r="1.88"/>
      <path class="cls-6" d="M66.07,6.44a0.34,0.34,0,0,1-.34-0.34V3.18a0.34,0.34,0,0,1,.67,0V6.11A0.34,0.34,0,0,1,66.07,6.44Z"/>
      <path class="cls-6" d="M61.77,7a0.34,0.34,0,0,1-.32-0.25L60.69,3.93a0.34,0.34,0,1,1,.65-0.17l0.76,2.83a0.34,0.34,0,0,1-.24.41H61.77Z"/>
      <path class="cls-6" d="M57.76,8.68a0.34,0.34,0,0,1-.29-0.17L56,6a0.34,0.34,0,0,1,.58-0.34l1.46,2.54a0.34,0.34,0,0,1-.12.46A0.33,0.33,0,0,1,57.76,8.68Z"/>
      <path class="cls-6" d="M54.32,11.33a0.33,0.33,0,0,1-.24-0.1L52,9.16a0.34,0.34,0,0,1,.47-0.47l2.07,2.07A0.34,0.34,0,0,1,54.32,11.33Z"/>
      <path class="cls-6" d="M51.68,14.77a0.33,0.33,0,0,1-.17,0L49,13.26a0.34,0.34,0,1,1,.34-0.58l2.54,1.46A0.34,0.34,0,0,1,51.68,14.77Z"/>
      <path class="cls-6" d="M50,18.79H49.94L47.11,18a0.34,0.34,0,1,1,.17-0.65l2.83,0.76A0.34,0.34,0,0,1,50,18.79Z"/>
      <path class="cls-6" d="M49.47,23.09H46.54a0.34,0.34,0,1,1,0-.67h2.93A0.34,0.34,0,1,1,49.47,23.09Z"/>
      <path class="cls-6" d="M47.21,28.15a0.34,0.34,0,0,1-.09-0.66L50,26.73a0.34,0.34,0,1,1,.17.65l-2.83.76H47.21Z"/>
      <path class="cls-6" d="M49.17,32.87A0.34,0.34,0,0,1,49,32.24l2.54-1.46a0.34,0.34,0,1,1,.34.58l-2.54,1.46A0.34,0.34,0,0,1,49.17,32.87Z"/>
      <path class="cls-6" d="M52.28,36.91A0.34,0.34,0,0,1,52,36.34l2.07-2.07a0.34,0.34,0,1,1,.47.47l-2.07,2.07A0.34,0.34,0,0,1,52.28,36.91Z"/>
      <path class="cls-6" d="M56.33,40a0.34,0.34,0,0,1-.29-0.5L57.51,37a0.34,0.34,0,1,1,.58.34l-1.46,2.54A0.34,0.34,0,0,1,56.33,40Z"/>
      <path class="cls-6" d="M61.05,42H61a0.34,0.34,0,0,1-.24-0.41l0.76-2.83a0.34,0.34,0,0,1,.65.17l-0.76,2.83A0.34,0.34,0,0,1,61.05,42Z"/>
      <path class="cls-6" d="M66.12,42.63a0.34,0.34,0,0,1-.34-0.34V39.36a0.34,0.34,0,0,1,.67,0v2.93A0.34,0.34,0,0,1,66.12,42.63Z"/>
      <path class="cls-6" d="M71.18,42a0.34,0.34,0,0,1-.32-0.25l-0.76-2.83a0.34,0.34,0,1,1,.65-0.17l0.76,2.83a0.34,0.34,0,0,1-.24.41H71.18Z"/>
      <path class="cls-6" d="M75.89,40a0.34,0.34,0,0,1-.29-0.17l-1.46-2.54A0.34,0.34,0,0,1,74.72,37l1.46,2.54A0.34,0.34,0,0,1,75.89,40Z"/>
      <path class="cls-6" d="M79.94,36.88a0.34,0.34,0,0,1-.24-0.1l-2.07-2.07a0.34,0.34,0,0,1,.47-0.47l2.07,2.07A0.34,0.34,0,0,1,79.94,36.88Z"/>
      <path class="cls-6" d="M83,32.83a0.34,0.34,0,0,1-.17,0l-2.54-1.46a0.34,0.34,0,1,1,.34-0.58l2.54,1.46A0.34,0.34,0,0,1,83,32.83Z"/>
      <path class="cls-6" d="M85,28.11H84.9l-2.83-.76a0.34,0.34,0,0,1,.17-0.65l2.83,0.76A0.34,0.34,0,0,1,85,28.11Z"/>
      <path class="cls-6" d="M85.65,23H82.72a0.34,0.34,0,1,1,0-.67h2.93A0.34,0.34,0,1,1,85.65,23Z"/>
      <path class="cls-6" d="M82.15,18.74a0.34,0.34,0,0,1-.09-0.66l2.83-.76a0.34,0.34,0,1,1,.17.65l-2.83.76H82.15Z"/>
      <path class="cls-6" d="M80.48,14.74a0.34,0.34,0,0,1-.17-0.63l2.54-1.46a0.34,0.34,0,1,1,.34.58l-2.54,1.46A0.33,0.33,0,0,1,80.48,14.74Z"/>
      <path class="cls-6" d="M77.84,11.3a0.34,0.34,0,0,1-.24-0.57l2.07-2.07a0.34,0.34,0,1,1,.47.47L78.07,11.2A0.33,0.33,0,0,1,77.84,11.3Z"/>
      <path class="cls-6" d="M74.39,8.66a0.33,0.33,0,0,1-.17,0,0.34,0.34,0,0,1-.12-0.46l1.46-2.54a0.34,0.34,0,0,1,.58.34L74.68,8.49A0.34,0.34,0,0,1,74.39,8.66Z"/>
      <path class="cls-6" d="M70.38,7H70.29a0.34,0.34,0,0,1-.24-0.41l0.76-2.83a0.34,0.34,0,0,1,.65.17L70.7,6.75A0.34,0.34,0,0,1,70.38,7Z"/>
    </g>
    <g class="cls-7">
      <g>
        <g>
          <rect class="cls-8" x="24.82" y="15.3" width="9.22" height="3.49" rx="1.43" ry="1.43" transform="translate(-4.56 15.87) rotate(-28.09)"/>
          <path class="cls-9" d="M26.78,21a2.12,2.12,0,0,1-1.87-1.12l-0.3-.57a2.12,2.12,0,0,1,.87-2.86l5.62-3a2.12,2.12,0,0,1,2.86.87l0.3,0.57a2.12,2.12,0,0,1-.87,2.86h0l-5.62,3A2.1,2.1,0,0,1,26.78,21Zm5.31-6.42a0.73,0.73,0,0,0-.35.09l-5.62,3a0.74,0.74,0,0,0-.3,1l0.3,0.57a0.74,0.74,0,0,0,1,.3l5.62-3h0a0.74,0.74,0,0,0,.3-1l-0.3-.57A0.74,0.74,0,0,0,32.09,14.53Z"/>
        </g>
        <g>
          <rect class="cls-8" x="28" y="20.74" width="9.22" height="3.49" rx="1.43" ry="1.43" transform="translate(-6.11 14.1) rotate(-22.36)"/>
          <path class="cls-9" d="M29.79,26.12a2.12,2.12,0,0,1-2-1.31l-0.24-.59a2.12,2.12,0,0,1,1.15-2.76L34.63,19a2.12,2.12,0,0,1,2.76,1.15l0.24,0.59a2.12,2.12,0,0,1-1.15,2.76L30.59,26A2.12,2.12,0,0,1,29.79,26.12Zm5.65-5.87a0.73,0.73,0,0,0-.28.06l-5.89,2.42a0.73,0.73,0,0,0-.4,1l0.24,0.59a0.74,0.74,0,0,0,1,.4L36,22.26a0.74,0.74,0,0,0,.4-1l-0.24-.59A0.74,0.74,0,0,0,35.43,20.25Z"/>
        </g>
        <g>
          <rect class="cls-8" x="30.61" y="26.3" width="9.22" height="3.49" rx="1.43" ry="1.43" transform="translate(-8.02 15.51) rotate(-22.36)"/>
          <path class="cls-9" d="M32.4,31.67a2.12,2.12,0,0,1-2-1.31l-0.24-.59A2.12,2.12,0,0,1,31.35,27l5.89-2.42A2.12,2.12,0,0,1,40,25.73l0.24,0.59a2.12,2.12,0,0,1-1.15,2.76l-5.89,2.42A2.12,2.12,0,0,1,32.4,31.67ZM38,25.8a0.74,0.74,0,0,0-.28.06l-5.89,2.42a0.74,0.74,0,0,0-.4,1l0.24,0.59a0.74,0.74,0,0,0,1,.4l5.89-2.42a0.74,0.74,0,0,0,.4-1l-0.24-.59A0.74,0.74,0,0,0,38,25.8Z"/>
        </g>
        <g>
          <rect class="cls-8" x="33.34" y="31.97" width="9.22" height="3.49" rx="1.43" ry="1.43" transform="translate(-11.77 23.49) rotate(-30)"/>
          <path class="cls-9" d="M35.35,37.7a2.13,2.13,0,0,1-.55-0.07,2.1,2.1,0,0,1-1.29-1l-0.32-.56A2.12,2.12,0,0,1,34,33.19L39.49,30a2.12,2.12,0,0,1,2.89.77l0.32,0.56a2.12,2.12,0,0,1-.77,2.89h0l-5.52,3.18A2.1,2.1,0,0,1,35.35,37.7Zm5.19-6.59a0.73,0.73,0,0,0-.37.1l-5.52,3.18a0.74,0.74,0,0,0-.27,1L34.71,36a0.73,0.73,0,0,0,.45.34,0.72,0.72,0,0,0,.56-0.07L41.23,33a0.74,0.74,0,0,0,.27-1l-0.32-.56A0.74,0.74,0,0,0,40.55,31.11Z"/>
        </g>
        <g>
          <rect class="cls-8" x="36.6" y="37.09" width="9.22" height="3.49" rx="1.43" ry="1.43" transform="translate(-13.05 22.65) rotate(-26.69)"/>
          <path class="cls-9" d="M38.52,42.67a2.12,2.12,0,0,1-1.9-1.17l-0.29-.57a2.12,2.12,0,0,1,.94-2.84L43,35.22a2.12,2.12,0,0,1,2.84.94l0.29,0.57a2.12,2.12,0,0,1-.94,2.84h0l-5.69,2.86A2.11,2.11,0,0,1,38.52,42.67Zm5.4-6.29a0.74,0.74,0,0,0-.33.08L37.9,39.32a0.74,0.74,0,0,0-.33,1l0.29,0.57a0.74,0.74,0,0,0,1,.33l5.69-2.86a0.74,0.74,0,0,0,.33-1l-0.29-.57A0.74,0.74,0,0,0,43.92,36.38Z"/>
        </g>
        <g>
          <rect class="cls-8" x="39.55" y="42.32" width="9.22" height="3.49" rx="1.43" ry="1.43" transform="translate(-12.51 17.99) rotate(-20.23)"/>
          <path class="cls-9" d="M41.28,47.58a2.12,2.12,0,0,1-2-1.38l-0.22-.6a2.12,2.12,0,0,1,1.25-2.72l6-2.2A2.12,2.12,0,0,1,49,41.93l0.22,0.6A2.12,2.12,0,0,1,48,45.25h0l-6,2.2A2.1,2.1,0,0,1,41.28,47.58ZM47,41.92a0.73,0.73,0,0,0-.25,0l-6,2.2a0.74,0.74,0,0,0-.44.94l0.22,0.6a0.74,0.74,0,0,0,.94.44l6-2.2A0.74,0.74,0,0,0,47.95,43l-0.22-.6A0.74,0.74,0,0,0,47,41.92Z"/>
        </g>
        <g>
          <rect class="cls-8" x="21.1" y="10.18" width="9.22" height="3.49" rx="1.43" ry="1.43" transform="translate(-1.52 19.78) rotate(-40.96)"/>
          <path class="cls-9" d="M23.52,16.37H23.37a2.1,2.1,0,0,1-1.45-.72l-0.42-.48a2.12,2.12,0,0,1,.21-3L26.52,8a2.12,2.12,0,0,1,3,.21l0.42,0.48a2.12,2.12,0,0,1-.21,3l-4.81,4.18A2.1,2.1,0,0,1,23.52,16.37Zm4.39-7.51a0.73,0.73,0,0,0-.48.18l-4.81,4.18a0.74,0.74,0,0,0-.07,1L23,14.74a0.73,0.73,0,0,0,.5.25A0.74,0.74,0,0,0,24,14.81l4.81-4.18a0.74,0.74,0,0,0,.07-1l-0.42-.48A0.73,0.73,0,0,0,27.91,8.86Z"/>
        </g>
      </g>
    </g>
  </g>
</svg>
