<svg id="Layer_1" data-name="Layer 1" xmlns="http://www.w3.org/2000/svg" xmlns:xlink="http://www.w3.org/1999/xlink" viewBox="0 0 90.77 44.46">
  <defs>
    <style>
      .cls-1 {
        fill: #444151;
      }

      .cls-2 {
        fill: #af9f7b;
      }

      .cls-3 {
        clip-path: url(#clip-path);
      }

      .cls-4 {
        fill: #3f90ce;
      }

      .cls-5 {
        clip-path: url(#clip-path-2);
      }
    </style>
    <clipPath id="clip-path">
      <path class="cls-1" d="M54.27,40.3A9.75,9.75,0,0,1,51.69,40a2.09,2.09,0,0,1,1.17-4c0.63,0.18,2.22.37,2.85-.19,0.44-.4.56-1.44,0.33-2.86-0.82-4.94,1.61-7.4,4.15-8.06,3-.78,6.43.75,7.34,3.28a2.09,2.09,0,1,1-3.93,1.4,2.45,2.45,0,0,0-2.39-.64c-1.28.35-1.28,2-1.06,3.33,0.5,3-.07,5.24-1.68,6.67A6.23,6.23,0,0,1,54.27,40.3Z"/>
    </clipPath>
    <clipPath id="clip-path-2">
      <rect class="cls-1" x="43.38" y="15.64" width="6.11" height="19.94" rx="3.06" ry="3.06" transform="translate(22.21 -21.57) rotate(33.95)"/>
    </clipPath>
  </defs>
  <title>a9</title>
  <g id="a9">
    <circle class="cls-1" cx="17.63" cy="14.84" r="3.56"/>
    <circle class="cls-2" cx="9.89" cy="33.39" r="3.56"/>
    <circle class="cls-1" cx="9.89" cy="33.39" r="1.51"/>
    <g>
      <circle class="cls-2" cx="59.61" cy="9.92" r="3.56"/>
      <circle class="cls-1" cx="59.61" cy="9.92" r="1.99"/>
    </g>
    <circle class="cls-1" cx="73.71" cy="34.59" r="3.56"/>
    <circle class="cls-1" cx="30.36" cy="24.11" r="4.96"/>
    <g>
      <circle class="cls-1" cx="72.22" cy="19.04" r="4.96"/>
      <circle class="cls-2" cx="72.22" cy="19.04" r="1.97"/>
    </g>
    <circle class="cls-2" cx="30.36" cy="24.11" r="1.97"/>
    <circle class="cls-1" cx="40.07" cy="12.8" r="4.96"/>
    <path class="cls-1" d="M26.66,37.25A8.7,8.7,0,0,1,21.82,36a5.93,5.93,0,0,1-2.58-4.47c-0.34-3.19-1.06-5.22-2.14-6-0.24-.19-1-0.74-2.91-0.43A2.09,2.09,0,0,1,13.5,21a7.66,7.66,0,0,1,6.12,1.22c2.09,1.59,3.28,4.42,3.77,8.91a1.76,1.76,0,0,0,.75,1.44c1.39,0.93,4.45.47,5.72,0.1a2.09,2.09,0,0,1,1.17,4A16.86,16.86,0,0,1,26.66,37.25Z"/>
    <g>
      <path class="cls-1" d="M54.27,40.3A9.75,9.75,0,0,1,51.69,40a2.09,2.09,0,0,1,1.17-4c0.63,0.18,2.22.37,2.85-.19,0.44-.4.56-1.44,0.33-2.86-0.82-4.94,1.61-7.4,4.15-8.06,3-.78,6.43.75,7.34,3.28a2.09,2.09,0,1,1-3.93,1.4,2.45,2.45,0,0,0-2.39-.64c-1.28.35-1.28,2-1.06,3.33,0.5,3-.07,5.24-1.68,6.67A6.23,6.23,0,0,1,54.27,40.3Z"/>
      <g class="cls-3">
        <g>
          <line class="cls-4" x1="55.97" y1="40.7" x2="53.31" y2="33.71"/>
          <rect class="cls-2" x="54.09" y="33.47" width="1.1" height="7.48" transform="translate(-9.64 21.79) rotate(-20.77)"/>
        </g>
        <g>
          <line class="cls-4" x1="61.75" y1="33.95" x2="53.31" y2="30.58"/>
          <rect class="cls-2" x="56.98" y="27.72" width="1.1" height="9.09" transform="translate(6.21 73.7) rotate(-68.2)"/>
        </g>
        <g>
          <line class="cls-4" x1="62.48" y1="30.58" x2="62.23" y2="22.62"/>
          <rect class="cls-2" x="61.81" y="22.62" width="1.1" height="7.96" transform="translate(-0.78 1.9) rotate(-1.74)"/>
        </g>
      </g>
    </g>
    <g>
      <rect class="cls-1" x="43.38" y="15.64" width="6.11" height="19.94" rx="3.06" ry="3.06" transform="translate(22.21 -21.57) rotate(33.95)"/>
      <g class="cls-5">
        <g>
          <line class="cls-4" x1="44.72" y1="19.97" x2="52.19" y2="25.27"/>
          <rect class="cls-2" x="47.91" y="18.04" width="1.1" height="9.16" transform="translate(1.97 49.05) rotate(-54.64)"/>
        </g>
        <g>
          <line class="cls-4" x1="41.1" y1="25.75" x2="48.58" y2="31.06"/>
          <rect class="cls-2" x="44.29" y="23.82" width="1.1" height="9.16" transform="translate(-4.28 48.53) rotate(-54.64)"/>
        </g>
      </g>
    </g>
  </g>
</svg>
