<svg id="Layer_1" data-name="Layer 1" xmlns="http://www.w3.org/2000/svg" xmlns:xlink="http://www.w3.org/1999/xlink" viewBox="0 0 1025 86.78"><defs><style>.cls-1{fill:#fff;}.cls-2{fill:#0078a8;}.cls-3{fill:#064258;}.cls-4{fill:#232954;}.cls-5{fill:none;stroke:#232954;stroke-width:1.05px;}.cls-6{fill:#39a7df;}.cls-7{fill:#00a098;}</style></defs><title>head</title><rect class="cls-1" x="0.01" width="1025" height="84.36"/><path class="cls-2" d="M956.56,84.36c-55.44,0-55.44-19-110.88-19h0c-55.43,0-55.44,19-110.88,19s-55.44-19-110.89-19-55.44,19-110.89,19-55.44-19-110.89-19-55.44,19-110.89,19-55.44-19-110.89-19-55.44,19-110.88,19C32.73,84.36,20.33,76,0,70.42V86.79H1025V70.7C1005.28,76.31,992.69,84.36,956.56,84.36Z"/><path class="cls-3" d="M34.44,49.37a48.33,48.33,0,0,1-5.6-.34,0.78,0.78,0,0,1-.74-0.88V29a0.78,0.78,0,0,1,.74-0.88,48.33,48.33,0,0,1,5.6-.34c5.69,0,8.93,3.07,8.93,8.7v4.18C43.36,46.3,40.12,49.37,34.44,49.37Zm5-12.88c0-4.26-2.16-5.37-5-5.37-1.05,0-1.79.06-2.39,0.08V46c0.6,0,1.34.08,2.39,0.08,2.84,0,5-1.11,5-5.37V36.49Z"/><path class="cls-3" d="M61.64,28.67l-4.32,9.86a3.47,3.47,0,0,1-1.73,2.08v8a0.55,0.55,0,0,1-.54.57H52.21a0.55,0.55,0,0,1-.54-0.57v-8a3.47,3.47,0,0,1-1.73-2.08l-4.29-9.86a0.87,0.87,0,0,1-.06-0.23A0.43,0.43,0,0,1,46,28h3.16a0.64,0.64,0,0,1,.54.45l3.41,8.47a0.68,0.68,0,0,0,.48.57,0.66,0.66,0,0,0,.51-0.57l3.41-8.47A0.64,0.64,0,0,1,58.09,28h3.13a0.45,0.45,0,0,1,.48.43A0.67,0.67,0,0,1,61.64,28.67Z"/><path class="cls-3" d="M79.39,49.14H76.51a1.53,1.53,0,0,1-1.73-1L68.47,34.27A0.31,0.31,0,0,0,68.21,34c-0.09,0-.14.06-0.14,0.23v14.3a0.55,0.55,0,0,1-.54.57H65.11a0.57,0.57,0,0,1-.57-0.57V29.15A1.14,1.14,0,0,1,65.68,28h3.07a1.2,1.2,0,0,1,1.25.91l6.62,14.61a0.3,0.3,0,0,0,.23.23A0.22,0.22,0,0,0,77,43.51v-15A0.52,0.52,0,0,1,77.54,28H80a0.52,0.52,0,0,1,.54.54V48A1.14,1.14,0,0,1,79.39,49.14Z"/><path class="cls-3" d="M100,49.14H97a0.6,0.6,0,0,1-.54-0.48l-1.31-5.4H88.57l-1.31,5.4a0.6,0.6,0,0,1-.54.48h-3a0.49,0.49,0,0,1-.51-0.48,1.23,1.23,0,0,0,0-.14l4.66-17.82a4.14,4.14,0,0,1,7.9,0l4.66,17.82a1.23,1.23,0,0,0,0,.14A0.49,0.49,0,0,1,100,49.14ZM92.29,31.57c-0.09-.34-0.17-0.45-0.45-0.45s-0.37.11-.46,0.45l-2,8.44h5Z"/><path class="cls-3" d="M120.92,49.14h-2.87a0.54,0.54,0,0,1-.45-0.57V35.35c0-.2,0-0.28-0.09-0.28a0.46,0.46,0,0,0-.14.17l-2.73,5.43a1,1,0,0,1-.91.48h-2.87a1,1,0,0,1-.91-0.48l-2.76-5.43a0.46,0.46,0,0,0-.14-0.17c-0.06,0-.08.08-0.08,0.28V48.57a0.54,0.54,0,0,1-.46.57h-2.87a0.43,0.43,0,0,1-.48-0.43V29.15A1.14,1.14,0,0,1,104.29,28h2.33a1.2,1.2,0,0,1,1.05.68L112,37.4a0.32,0.32,0,1,0,.63,0l4.29-8.7a1.2,1.2,0,0,1,1.05-.68h2.33a1.14,1.14,0,0,1,1.14,1.14V48.71A0.43,0.43,0,0,1,120.92,49.14Z"/><path class="cls-3" d="M129.06,49.14h-2.81a0.57,0.57,0,0,1-.57-0.57v-20a0.55,0.55,0,0,1,.57-0.54h2.81a0.55,0.55,0,0,1,.57.54v20A0.57,0.57,0,0,1,129.06,49.14Z"/><path class="cls-3" d="M145.86,48.91a21.42,21.42,0,0,1-4.49.46c-3.41,0-8-1.68-8-8.7V36.49c0-7.13,4.63-8.7,8-8.7a21.42,21.42,0,0,1,4.49.46,0.67,0.67,0,0,1,.63.65v1.9a0.52,0.52,0,0,1-.57.6h-0.06c-1-.09-2.93-0.23-4.43-0.23-2.39,0-4.12,1.28-4.12,5.32v4.18c0,4,1.73,5.32,4.12,5.32,1.51,0,3.44-.14,4.43-0.23h0.06a0.52,0.52,0,0,1,.57.6v1.91A0.67,0.67,0,0,1,145.86,48.91Z"/><path class="cls-3" d="M169,49a26.76,26.76,0,0,1-5.4.4c-3.7,0-6.57-1-6.57-5.83V33.62c0-4.83,2.87-5.83,6.57-5.83a26.87,26.87,0,0,1,5.4.4,0.52,0.52,0,0,1,.57.6v1.82a0.57,0.57,0,0,1-.57.57h-5.8c-1.65,0-2.25.57-2.25,2.44v3.07h7.7a0.57,0.57,0,0,1,.57.57v2a0.57,0.57,0,0,1-.57.57h-7.7v3.67c0,1.88.6,2.45,2.25,2.45H169a0.57,0.57,0,0,1,.57.57v1.82A0.52,0.52,0,0,1,169,49Z"/><path class="cls-3" d="M185.35,48.91a21.42,21.42,0,0,1-4.49.46c-3.41,0-8-1.68-8-8.7V36.49c0-7.13,4.63-8.7,8-8.7a21.42,21.42,0,0,1,4.49.46,0.67,0.67,0,0,1,.63.65v1.9a0.52,0.52,0,0,1-.57.6h-0.06c-1-.09-2.93-0.23-4.43-0.23-2.39,0-4.12,1.28-4.12,5.32v4.18c0,4,1.73,5.32,4.12,5.32,1.51,0,3.44-.14,4.43-0.23h0.06a0.52,0.52,0,0,1,.57.6v1.91A0.67,0.67,0,0,1,185.35,48.91Z"/><path class="cls-3" d="M196.92,49.37c-4.69,0-8.1-2.62-8.1-8.87V36.66c0-6.25,3.41-8.87,8.1-8.87s8.1,2.62,8.1,8.87V40.5C205,46.75,201.61,49.37,196.92,49.37ZM201,36.66c0-3.75-1.34-5.43-4.12-5.43s-4.12,1.68-4.12,5.43V40.5c0,3.75,1.34,5.43,4.12,5.43S201,44.25,201,40.5V36.66Z"/><path class="cls-3" d="M214,49.37a21.76,21.76,0,0,1-5-.51,0.61,0.61,0,0,1-.54-0.57v-2A0.54,0.54,0,0,1,209,45.7h0.06c1.14,0.14,4,.28,5,0.28,2.53,0,3.3-.91,3.3-2.56,0-1.11-.54-1.68-2.42-2.79l-3.75-2.25c-2.64-1.56-3.35-3.21-3.35-5.2,0-3.13,1.82-5.4,7.11-5.4a31.76,31.76,0,0,1,5.46.51,0.58,0.58,0,0,1,.51.54v2.1a0.49,0.49,0,0,1-.48.51h-0.06c-1.88-.17-3.75-0.28-5.6-0.28-2.1,0-3,.74-3,2,0,0.94.48,1.51,2.33,2.53l3.41,1.91c3.13,1.73,4,3.55,4,5.8C221.51,46.3,219.72,49.37,214,49.37Z"/><path class="cls-3" d="M239.51,28.67l-4.32,9.86a3.47,3.47,0,0,1-1.73,2.08v8a0.55,0.55,0,0,1-.54.57h-2.84a0.55,0.55,0,0,1-.54-0.57v-8a3.47,3.47,0,0,1-1.73-2.08l-4.29-9.86a0.87,0.87,0,0,1-.06-0.23A0.43,0.43,0,0,1,223.9,28h3.16a0.64,0.64,0,0,1,.54.45L231,36.94a0.68,0.68,0,0,0,.48.57,0.66,0.66,0,0,0,.51-0.57l3.41-8.47A0.64,0.64,0,0,1,236,28h3.13a0.45,0.45,0,0,1,.48.43A0.67,0.67,0,0,1,239.51,28.67Z"/><path class="cls-3" d="M247.73,49.37a21.76,21.76,0,0,1-5-.51,0.61,0.61,0,0,1-.54-0.57v-2a0.54,0.54,0,0,1,.54-0.54h0.06c1.14,0.14,4,.28,5,0.28,2.53,0,3.3-.91,3.3-2.56,0-1.11-.54-1.68-2.42-2.79l-3.75-2.25c-2.64-1.56-3.35-3.21-3.35-5.2,0-3.13,1.82-5.4,7.11-5.4a31.76,31.76,0,0,1,5.46.51,0.58,0.58,0,0,1,.51.54v2.1a0.49,0.49,0,0,1-.48.51H254.1c-1.88-.17-3.75-0.28-5.6-0.28-2.1,0-3,.74-3,2,0,0.94.48,1.51,2.33,2.53l3.41,1.91c3.13,1.73,4,3.55,4,5.8C255.21,46.3,253.41,49.37,247.73,49.37Z"/><path class="cls-3" d="M271.67,31.32h-5V48.57a0.57,0.57,0,0,1-.57.57h-2.81a0.57,0.57,0,0,1-.57-0.57V31.32h-5a0.52,0.52,0,0,1-.57-0.51V28.56a0.55,0.55,0,0,1,.57-0.54h13.9a0.55,0.55,0,0,1,.57.54V30.8A0.52,0.52,0,0,1,271.67,31.32Z"/><path class="cls-3" d="M287,49a26.76,26.76,0,0,1-5.4.4c-3.7,0-6.57-1-6.57-5.83V33.62c0-4.83,2.87-5.83,6.57-5.83a26.87,26.87,0,0,1,5.4.4,0.52,0.52,0,0,1,.57.6v1.82a0.57,0.57,0,0,1-.57.57h-5.8c-1.65,0-2.25.57-2.25,2.44v3.07h7.7a0.57,0.57,0,0,1,.57.57v2a0.57,0.57,0,0,1-.57.57H279v3.67c0,1.88.6,2.45,2.25,2.45H287a0.57,0.57,0,0,1,.57.57v1.82A0.52,0.52,0,0,1,287,49Z"/><path class="cls-3" d="M309.22,49.14h-2.87a0.54,0.54,0,0,1-.45-0.57V35.35c0-.2,0-0.28-0.09-0.28a0.46,0.46,0,0,0-.14.17l-2.73,5.43a1,1,0,0,1-.91.48h-2.87a1,1,0,0,1-.91-0.48l-2.76-5.43a0.46,0.46,0,0,0-.14-0.17c-0.06,0-.08.08-0.08,0.28V48.57a0.54,0.54,0,0,1-.46.57h-2.87a0.43,0.43,0,0,1-.48-0.43V29.15A1.14,1.14,0,0,1,292.59,28h2.33a1.2,1.2,0,0,1,1.05.68l4.29,8.7a0.32,0.32,0,1,0,.63,0l4.29-8.7a1.2,1.2,0,0,1,1.05-.68h2.33a1.14,1.14,0,0,1,1.14,1.14V48.71A0.43,0.43,0,0,1,309.22,49.14Z"/><path class="cls-3" d="M338.85,49.14H336a0.54,0.54,0,0,1-.45-0.57V35.35c0-.2,0-0.28-0.09-0.28a0.46,0.46,0,0,0-.14.17l-2.73,5.43a1,1,0,0,1-.91.48h-2.87a1,1,0,0,1-.91-0.48l-2.76-5.43a0.46,0.46,0,0,0-.14-0.17c-0.06,0-.08.08-0.08,0.28V48.57a0.54,0.54,0,0,1-.46.57h-2.87a0.43,0.43,0,0,1-.48-0.43V29.15A1.14,1.14,0,0,1,322.22,28h2.33a1.2,1.2,0,0,1,1.05.68l4.29,8.7a0.32,0.32,0,1,0,.63,0l4.29-8.7a1.2,1.2,0,0,1,1.05-.68h2.33a1.14,1.14,0,0,1,1.14,1.14V48.71A0.43,0.43,0,0,1,338.85,49.14Z"/><path class="cls-3" d="M351.13,49.37c-4.69,0-8.1-2.62-8.1-8.87V36.66c0-6.25,3.41-8.87,8.1-8.87s8.1,2.62,8.1,8.87V40.5C359.24,46.75,355.83,49.37,351.13,49.37Zm4.12-12.71c0-3.75-1.34-5.43-4.12-5.43S347,32.91,347,36.66V40.5c0,3.75,1.34,5.43,4.12,5.43s4.12-1.68,4.12-5.43V36.66Z"/><path class="cls-3" d="M369.27,49.37a48.33,48.33,0,0,1-5.6-.34,0.78,0.78,0,0,1-.74-0.88V29a0.78,0.78,0,0,1,.74-0.88,48.33,48.33,0,0,1,5.6-.34c5.69,0,8.93,3.07,8.93,8.7v4.18C378.2,46.3,375,49.37,369.27,49.37Zm5-12.88c0-4.26-2.16-5.37-5-5.37-1.05,0-1.79.06-2.39,0.08V46c0.6,0,1.34.08,2.39,0.08,2.84,0,5-1.11,5-5.37V36.49Z"/><path class="cls-3" d="M393.87,49a26.74,26.74,0,0,1-5.4.4c-3.7,0-6.57-1-6.57-5.83V33.62c0-4.83,2.87-5.83,6.57-5.83a26.86,26.86,0,0,1,5.4.4,0.52,0.52,0,0,1,.57.6v1.82a0.57,0.57,0,0,1-.57.57h-5.8c-1.65,0-2.25.57-2.25,2.44v3.07h7.7a0.57,0.57,0,0,1,.57.57v2a0.57,0.57,0,0,1-.57.57h-7.7v3.67c0,1.88.6,2.45,2.25,2.45h5.8a0.57,0.57,0,0,1,.57.57v1.82A0.52,0.52,0,0,1,393.87,49Z"/><path class="cls-3" d="M409.67,49a30.81,30.81,0,0,1-4.83.4c-3.7,0-6.57-1-6.57-5.83v-15a0.57,0.57,0,0,1,.57-0.57h2.81a0.57,0.57,0,0,1,.57.57v15c0,1.88.57,2.45,2.22,2.45h5.23a0.57,0.57,0,0,1,.57.57v1.82A0.53,0.53,0,0,1,409.67,49Z"/><path class="cls-3" d="M418.26,49.37a21.76,21.76,0,0,1-5-.51,0.61,0.61,0,0,1-.54-0.57v-2a0.54,0.54,0,0,1,.54-0.54h0.06c1.14,0.14,4,.28,5,0.28,2.53,0,3.3-.91,3.3-2.56,0-1.11-.54-1.68-2.42-2.79l-3.75-2.25c-2.64-1.56-3.35-3.21-3.35-5.2,0-3.13,1.82-5.4,7.11-5.4a31.76,31.76,0,0,1,5.46.51,0.58,0.58,0,0,1,.51.54v2.1a0.49,0.49,0,0,1-.48.51h-0.06c-1.88-.17-3.75-0.28-5.6-0.28-2.1,0-3,.74-3,2,0,0.94.48,1.51,2.33,2.53l3.41,1.91c3.13,1.73,4,3.55,4,5.8C425.74,46.3,423.95,49.37,418.26,49.37Z"/><image width="511" height="429" transform="translate(924.16 9.94) scale(0.15)" xlink:href="../Assets/3717 PML MERP Models Interactive Web Graphic FAW/Links/MERP Logo.png"/><path class="cls-4" d="M930.75,58.7c0-.7-0.05-1.56-0.05-2.41h0c-0.19.75-.43,1.58-0.66,2.27l-0.73,2.29h-1.05l-0.64-2.27c-0.19-.69-0.4-1.52-0.54-2.29h0c0,0.79-.06,1.7-0.11,2.43l-0.11,2.23h-1.25L926,55.08h1.8l0.58,2c0.19,0.68.37,1.41,0.5,2.1h0c0.17-.68.37-1.45,0.57-2.1l0.64-1.95h1.76l0.33,5.86h-1.32Z"/><path class="cls-4" d="M935.63,60.94l-0.08-.43h0a1.57,1.57,0,0,1-1.24.52,1.32,1.32,0,0,1-1.4-1.3c0-1.1,1-1.64,2.54-1.63V58c0-.23-0.12-0.55-0.79-0.55a2.47,2.47,0,0,0-1.19.32L933.19,57a3.62,3.62,0,0,1,1.68-.37,1.67,1.67,0,0,1,1.9,1.83v1.48a6.39,6.39,0,0,0,.06,1h-1.21Zm-0.16-2c-0.71,0-1.26.16-1.26,0.67a0.48,0.48,0,0,0,.53.5,0.73,0.73,0,0,0,.7-0.49,0.93,0.93,0,0,0,0-.23V58.93Z"/><path class="cls-4" d="M937.84,58.09c0-.63,0-1,0-1.4H939l0,0.78h0a1.27,1.27,0,0,1,1.17-.88,1.44,1.44,0,0,1,.28,0v1.24a2,2,0,0,0-.36,0,0.86,0.86,0,0,0-.92.67,1.54,1.54,0,0,0,0,.3v2.16h-1.34V58.09Z"/><path class="cls-4" d="M942.59,55.51a0.67,0.67,0,0,1-.73.66,0.67,0.67,0,1,1,0-1.33A0.67,0.67,0,0,1,942.59,55.51Zm-1.39,5.44V56.69h1.34v4.25h-1.34Z"/><path class="cls-4" d="M943.63,58c0-.53,0-1,0-1.36h1.17l0.06,0.58h0a1.59,1.59,0,0,1,1.34-.68,1.55,1.55,0,0,1,1.55,1.83v2.52h-1.35V58.59a0.74,0.74,0,0,0-.68-0.92,0.71,0.71,0,0,0-.68.5,0.88,0.88,0,0,0-.05.33v2.45h-1.34V58Z"/><path class="cls-4" d="M949.85,59.24a1.06,1.06,0,0,0,1.22.81,3.86,3.86,0,0,0,1.19-.17l0.18,0.9a4.34,4.34,0,0,1-1.57.26,2.06,2.06,0,0,1-2.31-2.17,2.15,2.15,0,0,1,2.19-2.27,1.9,1.9,0,0,1,1.93,2.12,3.11,3.11,0,0,1,0,.52h-2.79Zm1.58-.9a0.77,0.77,0,0,0-.76-0.86,0.87,0.87,0,0,0-.83.86h1.59Z"/><path class="cls-4" d="M958.87,58.46h-2.19v1.39h2.45v1.09h-3.81V55.08H959v1.09h-2.33v1.22h2.19v1.08Z"/><path class="cls-4" d="M963.22,60.84A3.33,3.33,0,0,1,962,61a2.08,2.08,0,0,1-2.29-2.17,2.24,2.24,0,0,1,2.48-2.26,3.17,3.17,0,0,1,1,.17l-0.21,1a1.86,1.86,0,0,0-.75-0.13,1.19,1.19,0,0,0,0,2.38,2.11,2.11,0,0,0,.77-0.13Z"/><path class="cls-4" d="M968.15,58.77A2.15,2.15,0,0,1,965.86,61a2.1,2.1,0,0,1-2.24-2.19,2.14,2.14,0,0,1,2.31-2.25A2.09,2.09,0,0,1,968.15,58.77Zm-3.13,0a0.94,0.94,0,1,0,1.74,0A0.94,0.94,0,1,0,965,58.81Z"/><path class="cls-4" d="M969,59.79a2.66,2.66,0,0,0,1.16.32c0.41,0,.58-0.14.58-0.36s-0.13-.32-0.64-0.49A1.43,1.43,0,0,1,968.84,58a1.54,1.54,0,0,1,1.76-1.39,3,3,0,0,1,1.22.24l-0.24.91a2.15,2.15,0,0,0-.94-0.24c-0.33,0-.51.13-0.51,0.35s0.17,0.3.7,0.49A1.38,1.38,0,0,1,972,59.66c0,0.79-.64,1.37-1.88,1.37a3.1,3.1,0,0,1-1.4-.3Z"/><path class="cls-4" d="M973.83,56.69l0.65,2.09c0.07,0.25.16,0.56,0.21,0.79h0c0.06-.23.13-0.55,0.2-0.79l0.53-2.09h1.44l-1,2.8a6.5,6.5,0,0,1-1.52,2.79,2.51,2.51,0,0,1-1.3.58l-0.28-1.12a1.73,1.73,0,0,0,.58-0.23,1.54,1.54,0,0,0,.56-0.53A0.34,0.34,0,0,0,974,60.8a0.48,0.48,0,0,0-.06-0.22l-1.58-3.89h1.5Z"/><path class="cls-4" d="M977.31,59.79a2.66,2.66,0,0,0,1.16.32c0.41,0,.58-0.14.58-0.36s-0.13-.32-0.64-0.49A1.43,1.43,0,0,1,977.18,58a1.54,1.54,0,0,1,1.76-1.39,3,3,0,0,1,1.22.24l-0.24.91a2.15,2.15,0,0,0-.94-0.24c-0.33,0-.51.13-0.51,0.35s0.17,0.3.7,0.49a1.38,1.38,0,0,1,1.18,1.31c0,0.79-.64,1.37-1.88,1.37a3.1,3.1,0,0,1-1.4-.3Z"/><path class="cls-4" d="M982.66,55.47v1.22h1v1h-1V59.2c0,0.51.12,0.75,0.53,0.75a2.23,2.23,0,0,0,.4,0v1a2.69,2.69,0,0,1-.88.11,1.41,1.41,0,0,1-1-.37,1.74,1.74,0,0,1-.37-1.26V57.66h-0.58v-1h0.58V55.77Z"/><path class="cls-4" d="M985.41,59.24a1.06,1.06,0,0,0,1.22.81,3.86,3.86,0,0,0,1.19-.17l0.18,0.9a4.34,4.34,0,0,1-1.57.26,2.06,2.06,0,0,1-2.31-2.17,2.15,2.15,0,0,1,2.19-2.27,1.9,1.9,0,0,1,1.93,2.12,3.11,3.11,0,0,1,0,.52h-2.79Zm1.58-.9a0.77,0.77,0,0,0-.76-0.86,0.87,0.87,0,0,0-.83.86H987Z"/><path class="cls-4" d="M989,58c0-.53,0-1,0-1.36h1.13l0.06,0.57h0a1.51,1.51,0,0,1,1.31-.67,1.23,1.23,0,0,1,1.19.72h0a1.92,1.92,0,0,1,.56-0.51,1.58,1.58,0,0,1,.82-0.21c0.83,0,1.46.57,1.46,1.84v2.5h-1.31V58.63c0-.62-0.2-1-0.64-1a0.66,0.66,0,0,0-.62.46,1.1,1.1,0,0,0-.05.34v2.49h-1.31V58.56c0-.54-0.19-0.9-0.62-0.9a0.68,0.68,0,0,0-.63.48,0.87,0.87,0,0,0-.05.33v2.48H989V58Z"/><path class="cls-4" d="M996.65,59.79a2.66,2.66,0,0,0,1.16.32c0.41,0,.58-0.14.58-0.36s-0.13-.32-0.64-0.49A1.43,1.43,0,0,1,996.52,58a1.54,1.54,0,0,1,1.76-1.39,3,3,0,0,1,1.22.24l-0.24.91a2.15,2.15,0,0,0-.94-0.24c-0.33,0-.51.13-0.51,0.35s0.17,0.3.7,0.49a1.38,1.38,0,0,1,1.18,1.31c0,0.79-.64,1.37-1.88,1.37a3.1,3.1,0,0,1-1.4-.3Z"/><path class="cls-4" d="M925.93,64.93a10.32,10.32,0,0,1,1.54-.1,2.64,2.64,0,0,1,1.65.4,1.27,1.27,0,0,1,.47,1,1.33,1.33,0,0,1-.9,1.24v0a1.27,1.27,0,0,1,.68.94c0.16,0.57.32,1.22,0.42,1.42H928.6a6.13,6.13,0,0,1-.36-1.17,0.78,0.78,0,0,0-.83-0.8h-0.35v2h-1.14v-5Zm1.14,2.16h0.46a0.77,0.77,0,0,0,.92-0.72,0.71,0.71,0,0,0-.85-0.7,2.91,2.91,0,0,0-.52,0v1.38Z"/><path class="cls-4" d="M931.41,68.43a0.91,0.91,0,0,0,1,.69,3.32,3.32,0,0,0,1-.15l0.15,0.77a3.72,3.72,0,0,1-1.34.22,1.77,1.77,0,0,1-2-1.85,1.84,1.84,0,0,1,1.87-1.94A1.63,1.63,0,0,1,933.84,68a2.59,2.59,0,0,1,0,.45h-2.39Zm1.36-.77a0.66,0.66,0,0,0-.65-0.74,0.75,0.75,0,0,0-.71.74h1.36Z"/><path class="cls-4" d="M934.65,68.9a2.28,2.28,0,0,0,1,.28c0.35,0,.49-0.12.49-0.31s-0.11-.28-0.55-0.42a1.22,1.22,0,0,1-1.05-1.09A1.32,1.32,0,0,1,936,66.16a2.52,2.52,0,0,1,1,.21l-0.2.78a1.85,1.85,0,0,0-.8-0.21c-0.28,0-.44.11-0.44,0.3s0.14,0.26.6,0.42a1.18,1.18,0,0,1,1,1.12c0,0.68-.55,1.18-1.61,1.18a2.67,2.67,0,0,1-1.2-.25Z"/><path class="cls-4" d="M939,68.43a0.91,0.91,0,0,0,1,.69,3.32,3.32,0,0,0,1-.15l0.15,0.77a3.72,3.72,0,0,1-1.34.22,1.77,1.77,0,0,1-2-1.85,1.84,1.84,0,0,1,1.87-1.94A1.63,1.63,0,0,1,941.4,68a2.59,2.59,0,0,1,0,.45H939Zm1.36-.77a0.66,0.66,0,0,0-.65-0.74,0.75,0.75,0,0,0-.71.74h1.36Z"/><path class="cls-4" d="M944.33,69.89l-0.07-.36h0a1.34,1.34,0,0,1-1.06.45,1.13,1.13,0,0,1-1.2-1.12c0-.95.86-1.4,2.18-1.39V67.41c0-.19-0.11-0.47-0.67-0.47a2.12,2.12,0,0,0-1,.28l-0.21-.73a3.1,3.1,0,0,1,1.44-.32,1.43,1.43,0,0,1,1.63,1.57V69a5.65,5.65,0,0,0,.05.89h-1Zm-0.14-1.72c-0.61,0-1.08.13-1.08,0.57a0.41,0.41,0,0,0,.46.43,0.63,0.63,0,0,0,.6-0.42,0.77,0.77,0,0,0,0-.19v-0.4Z"/><path class="cls-4" d="M946.36,67.44c0-.54,0-0.89,0-1.2h1l0,0.67h0a1.09,1.09,0,0,1,1-.75l0.24,0v1.06a1.69,1.69,0,0,0-.31,0,0.74,0.74,0,0,0-.79.57,1.35,1.35,0,0,0,0,.25v1.85h-1.15V67.44Z"/><path class="cls-4" d="M952.1,69.8a2.86,2.86,0,0,1-1,.16,1.78,1.78,0,0,1-2-1.86,1.92,1.92,0,0,1,2.12-1.94,2.71,2.71,0,0,1,.88.14l-0.18.84a1.6,1.6,0,0,0-.64-0.11,1,1,0,0,0,0,2A1.81,1.81,0,0,0,952,69Z"/><path class="cls-4" d="M952.87,64.6H954v2.08h0a1.37,1.37,0,0,1,.46-0.37,1.31,1.31,0,0,1,.6-0.14,1.34,1.34,0,0,1,1.3,1.59v2.13h-1.15v-2a0.65,0.65,0,0,0-.6-0.8,0.61,0.61,0,0,0-.58.39,0.71,0.71,0,0,0,0,.25v2.16h-1.15V64.6Z"/><path class="cls-4" d="M959.16,64.93a9.62,9.62,0,0,1,1.56-.1,2.49,2.49,0,0,1,1.56.4,1.46,1.46,0,0,1,.55,1.16,1.59,1.59,0,0,1-.47,1.19,2.4,2.4,0,0,1-1.66.53l-0.39,0v1.79h-1.14v-5Zm1.14,2.28a1.79,1.79,0,0,0,.39,0,0.85,0.85,0,0,0,1-.82,0.76,0.76,0,0,0-.9-0.74,2,2,0,0,0-.48,0v1.48Z"/><path class="cls-4" d="M963.59,67.44c0-.54,0-0.89,0-1.2h1l0,0.67h0a1.09,1.09,0,0,1,1-.75l0.24,0v1.06a1.7,1.7,0,0,0-.31,0,0.74,0.74,0,0,0-.79.57,1.35,1.35,0,0,0,0,.25v1.85h-1.15V67.44Z"/><path class="cls-4" d="M970.21,68a1.84,1.84,0,0,1-2,1.94,1.8,1.8,0,0,1-1.92-1.88,1.84,1.84,0,0,1,2-1.93A1.79,1.79,0,0,1,970.21,68Zm-2.68,0a0.8,0.8,0,1,0,1.49,0A0.8,0.8,0,1,0,967.52,68.06Z"/><path class="cls-4" d="M974.62,66.24c0,0.23,0,.54,0,1.08v2A2.07,2.07,0,0,1,974,71a2.32,2.32,0,0,1-1.51.45,2.94,2.94,0,0,1-1.33-.28l0.23-.86a2.32,2.32,0,0,0,1.08.28,0.88,0.88,0,0,0,1-1V69.38h0a1.19,1.19,0,0,1-1,.48,1.61,1.61,0,0,1-1.57-1.78,1.75,1.75,0,0,1,1.68-1.91,1.12,1.12,0,0,1,1,.51h0l0-.43h1Zm-1.18,1.48a0.91,0.91,0,0,0,0-.21,0.63,0.63,0,0,0-.62-0.5,0.88,0.88,0,0,0-.76,1,0.83,0.83,0,0,0,.76,1,0.62,0.62,0,0,0,.61-0.46,1,1,0,0,0,0-.3V67.73Z"/><path class="cls-4" d="M975.66,67.44c0-.54,0-0.89,0-1.2h1l0,0.67h0a1.09,1.09,0,0,1,1-.75l0.24,0v1.06a1.7,1.7,0,0,0-.31,0,0.74,0.74,0,0,0-.79.57,1.35,1.35,0,0,0,0,.25v1.85h-1.15V67.44Z"/><path class="cls-4" d="M980.7,69.89l-0.07-.36h0a1.34,1.34,0,0,1-1.06.45,1.13,1.13,0,0,1-1.2-1.12c0-.95.86-1.4,2.18-1.39V67.41c0-.19-0.11-0.47-0.67-0.47a2.12,2.12,0,0,0-1,.28l-0.21-.73a3.1,3.1,0,0,1,1.44-.32,1.43,1.43,0,0,1,1.63,1.57V69a5.65,5.65,0,0,0,.05.89h-1Zm-0.14-1.72c-0.61,0-1.08.13-1.08,0.57a0.41,0.41,0,0,0,.46.43,0.63,0.63,0,0,0,.6-0.42,0.77,0.77,0,0,0,0-.19v-0.4Z"/><path class="cls-4" d="M982.73,67.41c0-.45,0-0.84,0-1.16h1l0.05,0.49h0a1.29,1.29,0,0,1,1.12-.57,1.05,1.05,0,0,1,1,.62h0a1.64,1.64,0,0,1,.48-0.44,1.36,1.36,0,0,1,.71-0.18,1.31,1.31,0,0,1,1.25,1.58v2.14h-1.12v-2c0-.53-0.17-0.83-0.55-0.83a0.56,0.56,0,0,0-.53.39,0.93,0.93,0,0,0,0,.29v2.13H985v-2c0-.46-0.17-0.77-0.53-0.77a0.58,0.58,0,0,0-.54.41,0.74,0.74,0,0,0,0,.28v2.12h-1.12V67.41Z"/><path class="cls-4" d="M989.39,67.41c0-.45,0-0.84,0-1.16h1l0.05,0.49h0a1.29,1.29,0,0,1,1.12-.57,1.05,1.05,0,0,1,1,.62h0a1.64,1.64,0,0,1,.48-0.44,1.36,1.36,0,0,1,.71-0.18A1.31,1.31,0,0,1,995,67.74v2.14h-1.12v-2c0-.53-0.17-0.83-0.55-0.83a0.56,0.56,0,0,0-.53.39,0.93,0.93,0,0,0,0,.29v2.13h-1.12v-2c0-.46-0.17-0.77-0.53-0.77a0.58,0.58,0,0,0-.54.41,0.74,0.74,0,0,0,0,.28v2.12h-1.12V67.41Z"/><path class="cls-4" d="M996.94,68.43a0.91,0.91,0,0,0,1,.69,3.32,3.32,0,0,0,1-.15l0.15,0.77a3.72,3.72,0,0,1-1.34.22,1.77,1.77,0,0,1-2-1.85,1.84,1.84,0,0,1,1.87-1.94A1.63,1.63,0,0,1,999.36,68a2.59,2.59,0,0,1,0,.45h-2.39Zm1.36-.77a0.66,0.66,0,0,0-.65-0.74,0.75,0.75,0,0,0-.71.74h1.36Z"/><path class="cls-4" d="M999.27,21.11h-11.9l-5.89,5.66-14.7-14.66H944.7l19.3,19v0L944.7,50.11h22.07l14.82-14.53,5.78,5.53h11.9L989,31.11Z"/><path class="cls-5" d="M1001,48a3.86,3.86,0,0,1-4.1,3.57H928.14A3.86,3.86,0,0,1,924,48V13.86a3.86,3.86,0,0,1,4.1-3.57h68.78a3.86,3.86,0,0,1,4.1,3.57V48Z"/><polygon class="cls-6" points="960 31 946.25 18.11 930.64 18.11 944.04 31.11 930.64 44.11 946.25 44.11 960 30.99 960 31"/><polygon class="cls-7" points="940.35 31.11 933.53 24.11 925.59 24.11 932.41 30.61 925.59 37.11 933.54 37.11 940.35 31.11 940.35 31.11"/></svg>