<?xml version="1.0" encoding="utf-8"?>
<!-- Generator: Adobe Illustrator 26.0.1, SVG Export Plug-In . SVG Version: 6.00 Build 0)  -->
<svg version="1.1" id="icon_arrow" xmlns="http://www.w3.org/2000/svg" xmlns:xlink="http://www.w3.org/1999/xlink" x="0px" y="0px"
	 viewBox="0 0 14 14" style="enable-background:new 0 0 14 14;" xml:space="preserve">
<style type="text/css">
	.st0{fill:#00F7F0;}
</style>
<path id="Path_2" class="st0" d="M2,1.4l9.7,4.5c0,0,1.3,0.7,1.1,0.9c-0.3,0.3-1.9,1.6-1.9,1.6l-9.1,3.9l1.8-2.3l2-1.8l0.3-1.1
	L5.6,5.7L2.7,2.8C2.4,2.6,2.1,2.3,1.9,2C1.8,1.8,2,1.4,2,1.4z"/>
<path id="Fill_180" class="st0" d="M1.1,12.9c-0.4-0.4,0.2-1.1,0.5-1.4l3.3-3.3c0.7-0.7,0.7-1.8,0-2.5L1.6,2.4C1.2,2,0.8,1.5,1,1.1
	s0.9-0.2,1.4,0.1l9.8,4.5c0.2,0.1,0.5,0.3,0.7,0.4c0.3,0.3,0.4,0.6,0.4,1c-0.1,0.5-0.5,0.9-1,1.1l-9.8,4.5
	C1.7,13.1,1.3,13.1,1.1,12.9z M12.4,6.7c-0.1-0.1-0.3-0.2-0.4-0.3L2.1,1.9l0,0l0,0l3.3,3.3c1,1,1,2.6,0,3.6c0,0,0,0,0,0l-3.3,3.3
	c0,0,0,0,0,0l0,0l9.8-4.5c0.3-0.1,0.5-0.3,0.6-0.5C12.5,6.9,12.5,6.8,12.4,6.7z"/>
</svg>
