<?xml version="1.0" encoding="utf-8"?>
<!-- Generator: Adobe Illustrator 26.0.1, SVG Export Plug-In . SVG Version: 6.00 Build 0)  -->
<svg version="1.1" id="Layer_1" xmlns="http://www.w3.org/2000/svg" xmlns:xlink="http://www.w3.org/1999/xlink" x="0px" y="0px"
	 viewBox="0 0 48 48" style="enable-background:new 0 0 48 48;" xml:space="preserve">
<style type="text/css">
	.st0{fill:#00F7F0;}
</style>
<g>
	<path class="st0" d="M24,0C10.7,0,0,10.7,0,24s10.7,24,24,24s24-10.7,24-24S37.3,0,24,0z M18.8,32H15V19.7h3.8V32z M17.2,18.2
		c-0.1,0-0.3,0-0.4,0h0c-0.1,0-0.1,0-0.2,0c-0.5,0-1.1-0.2-1.4-0.6c-0.9-0.8-0.9-2.2-0.1-3c0.5-0.5,1.1-0.7,1.8-0.7
		c1.2-0.1,2.2,0.8,2.3,1.9C19.3,17.1,18.4,18.1,17.2,18.2z M34.1,32h-4.4v-6.3c0-1.6-0.7-2.8-2.2-2.8c-0.9,0-1.8,0.6-2.1,1.5
		c-0.1,0.3-0.1,0.7-0.1,1V32h-4.3c0,0,0.1-11.2,0-12.2h4.3v1.9c0.3-0.8,1.6-2,3.8-2c2.7,0,4.8,1.8,4.8,5.5V32z"/>
</g>
</svg>
