<?xml version="1.0" encoding="utf-8"?>
<!-- Generator: Adobe Illustrator 26.0.1, SVG Export Plug-In . SVG Version: 6.00 Build 0)  -->
<svg version="1.1" id="Layer_1" xmlns="http://www.w3.org/2000/svg" xmlns:xlink="http://www.w3.org/1999/xlink" x="0px" y="0px"
	 viewBox="0 0 48 48" style="enable-background:new 0 0 48 48;" xml:space="preserve">
<style type="text/css">
	.st0{fill:#00F7F0;}
</style>
<path class="st0" d="M24,0C10.7,0,0,10.7,0,24s10.7,24,24,24s24-10.7,24-24S37.3,0,24,0z M33.6,20.1v0.6c0,0.1,0,0.1,0,0.2
	c-0.1,7.1-5.8,12.8-12.9,12.7c-2.5,0-4.9-0.7-7-2c2.4,0.3,4.8-0.4,6.7-1.9c-1.9,0-3.7-1.3-4.2-3.2c0.3,0.1,0.6,0.1,0.9,0.1
	c0.4,0,0.8-0.1,1.2-0.2c-2.1-0.4-3.6-2.3-3.6-4.5V22c0.6,0.3,1.3,0.5,2.1,0.6c-2-1.3-2.6-4-1.4-6.1c2.3,2.8,5.7,4.6,9.4,4.7
	c-0.1-0.3-0.1-0.7-0.1-1c0-1.2,0.5-2.4,1.4-3.3c1.8-1.7,4.7-1.6,6.4,0.2c1-0.2,2-0.6,2.9-1.1c-0.3,1.1-1,1.9-2,2.5
	c0.9-0.1,1.8-0.3,2.6-0.7C35.3,18.7,34.5,19.5,33.6,20.1z"/>
</svg>
