<?xml version="1.0" encoding="utf-8"?>
<!-- Generator: Adobe Illustrator 26.3.1, SVG Export Plug-In . SVG Version: 6.00 Build 0)  -->
<svg version="1.1" id="Layer_1" xmlns="http://www.w3.org/2000/svg" xmlns:xlink="http://www.w3.org/1999/xlink" x="0px" y="0px"
	 viewBox="0 0 800 480" style="enable-background:new 0 0 800 480;" xml:space="preserve">
<style type="text/css">
	.st0{fill:#1DB570;}
	.st1{fill:#22B573;fill-opacity:0.6;}
	.st2{fill:#1D9C61;}
	.st3{fill:#3FA9F5;}
	.st4{fill:#F2F2F2;stroke:#CCCCCC;stroke-width:2.3948;stroke-miterlimit:10;}
	.st5{opacity:0.8;fill:#D9E021;}
	.st6{opacity:0.8;fill:#1B1440;}
	.st7{fill:#F2F2F2;stroke:#F2F2F2;stroke-width:3.5923;stroke-miterlimit:10;}
	.st8{fill:none;stroke:#3FA9F5;stroke-width:16.4298;stroke-miterlimit:10;}
	.st9{fill:none;}
	.st10{fill:none;stroke:#3FA9F5;stroke-width:9.3759;stroke-miterlimit:10;}
	.st11{fill:#999999;}
	.st12{fill:#808080;}
	.st13{fill:#B3B3B3;stroke:#B3B3B3;stroke-width:3.5923;stroke-linecap:round;stroke-linejoin:round;stroke-miterlimit:10;}
	.st14{fill:#B3B3B3;}
	.st15{fill:none;stroke:#FFFFFF;stroke-width:8.3819;stroke-miterlimit:10;}
	.st16{fill:none;stroke:#B3B3B3;stroke-width:9;stroke-linecap:round;stroke-linejoin:round;stroke-miterlimit:10;}
	.st17{fill:#666666;}
	.st18{fill:none;stroke:#999999;stroke-width:6.2641;stroke-miterlimit:10;}
	.st19{fill:#B3B3B3;stroke:#666666;stroke-width:4.698;stroke-miterlimit:10;}
	.st20{fill:none;stroke:#666666;stroke-width:5;stroke-miterlimit:10;}
	.st21{fill:none;stroke:#999999;stroke-width:2.8655;stroke-linecap:round;stroke-linejoin:round;stroke-miterlimit:10;}
	
		.st22{opacity:0.7;fill:none;stroke:#B3B3B3;stroke-width:4.2982;stroke-linecap:round;stroke-linejoin:round;stroke-miterlimit:10;}
</style>
<path class="st0" d="M517,207c0,0-26.7-99.7-70.7,0"/>
<path class="st1" d="M533.1,186c0,74.7-61.1,135.2-136.4,135.2c-75.3,0-136.4-60.5-136.4-135.2"/>
<path class="st2" d="M334.8,187.4c0,0-27.8-114-73.5,0"/>
<path class="st3" d="M378.3,186.7c0,0-83,25-48.3,39.5c34.6,14.5,18,53.2-31.2,48.9c-27.3-2.4,12.6,27,52.6,42.6
	c32,12.5,63.6,11.2,63.6,11.2l54.1-22.9l46.5-39.9c0,0,4.4-31.8-80.6-41.2c-79.1-8.8-71.8-17-57-24.8c14.8-7.9,23.5-13.5,23.5-13.5
	H378.3z"/>
<line class="st4" x1="407.8" y1="246.6" x2="407.8" y2="253.8"/>
<g>
	<path class="st5" d="M423.8,288.6c0,3.1-2.5,5.6-5.6,5.6h-34.3c-3.1,0-5.6-2.5-5.6-5.6v-6.3c0-3.1,2.5-5.6,5.6-5.6h34.3
		c3.1,0,5.6,2.5,5.6,5.6V288.6z"/>
</g>
<g>
	<rect x="389" y="253.6" class="st6" width="24.1" height="23.2"/>
</g>
<line class="st7" x1="401.2" y1="243" x2="401.2" y2="253.8"/>
<g>
	<rect x="389" y="253.5" class="st6" width="12.1" height="23.3"/>
</g>
<g>
	<path class="st8" d="M368.2,304.4c21.2-5.4,45.9-5.4,67.1,0"/>
</g>
<g>
	<line class="st9" x1="357.1" y1="287.8" x2="441.5" y2="287.8"/>
</g>
<g>
	<path class="st10" d="M371.2,304.7c18.8-7.5,44.9-7.5,63.8,0"/>
</g>
<g>
	<rect x="429.3" y="134" class="st11" width="3.6" height="7.2"/>
	<path class="st12" d="M425.3,132.8c-3.1,0-14-0.6-14-1.3s10.9-1.3,14-1.3c3.1,0,5.7,0.6,5.7,1.3S428.4,132.8,425.3,132.8z"/>
	<path class="st12" d="M438.2,130.1c3.1,0,14,0.6,14,1.3s-10.9,1.3-14,1.3c-3.1,0-5.7-0.6-5.7-1.3S435.1,130.1,438.2,130.1z"/>
	<rect x="368.2" y="134" class="st11" width="3.6" height="7.2"/>
	<polygon class="st11" points="408.6,142.7 411.6,141.4 423.8,157.7 420.7,159 	"/>
	<polygon class="st11" points="376.4,157.7 379.4,159 391.6,142.7 388.5,141.4 	"/>
	<path class="st12" d="M362.9,133.2c-3.1,0-14-0.6-14-1.3c0-0.7,10.9-1.3,14-1.3c3.1,0,5.7,0.6,5.7,1.3
		C368.6,132.6,366.1,133.2,362.9,133.2z"/>
	<path class="st12" d="M375.9,130.5c3.1,0,14,0.6,14,1.3c0,0.7-10.9,1.3-14,1.3c-3.1,0-5.7-0.6-5.7-1.3
		C370.2,131.2,372.8,130.5,375.9,130.5z"/>
	<path class="st13" d="M409.8,146c-5.4,3-11,4-18.4-0.1c-6-3.3-21.7-5.3-21.7-5.3h62C431.6,140.6,415.2,143,409.8,146z"/>
	<path class="st14" d="M407.3,138.8c0,2.2-2.7,3.9-6,3.9c-3.3,0-6-1.8-6-3.9c0-2.2,2.7-3.9,6-3.9
		C404.6,134.9,407.3,136.6,407.3,138.8z"/>
</g>
<path class="st15" d="M378.3,47.9c-68.4,9.2-121.1,67.8-121.1,138.7c0,77.3,62.7,139.9,139.9,139.9c77.3,0,139.9-62.6,139.9-139.9
	c0-68.2-48.8-125-113.4-137.4"/>
<g>
	<path class="st16" d="M64,183.5c0,0,14.2,0,31,0c16.8,0,35.4-22.6,41.5-50.4c6.1-27.8,15.8-27,21.6,1.7l11.3,55.9
		c5.8,28.7,16.5,29,23.6,0.6l6.6-26.3c7.2-28.4,15.7-35.8,19-16.4c3.3,19.4,12.8,35.2,21.1,35.1c8.4,0,15-0.2,15-0.2"/>
</g>
<g>
	<path class="st17" d="M127.9,439.5v-60.3L103,424.9h-7.3l-25-45.7v60.3H57.4v-83.8h14.2l27.7,51.2l27.7-51.2h14.2v83.8H127.9z"/>
	<path class="st17" d="M212.6,440.1c-6,0-11.4-1.2-16.3-3.6c-4.9-2.4-9.1-5.6-12.7-9.6c-3.5-4-6.3-8.5-8.2-13.6
		c-1.9-5.1-2.9-10.3-2.9-15.7c0-5.6,1-10.9,3.1-16c2-5.1,4.9-9.6,8.4-13.6c3.6-3.9,7.8-7.1,12.7-9.4c4.9-2.3,10.3-3.5,16.1-3.5
		c6,0,11.4,1.2,16.3,3.7c4.9,2.5,9.1,5.7,12.6,9.7c3.5,4,6.2,8.6,8.1,13.6c1.9,5.1,2.9,10.2,2.9,15.5c0,5.6-1,10.9-3,16
		c-2,5.1-4.8,9.6-8.4,13.5c-3.6,3.9-7.9,7-12.8,9.3C223.7,438.9,218.4,440.1,212.6,440.1z M185.9,397.6c0,3.9,0.6,7.7,1.9,11.4
		c1.3,3.7,3,7,5.4,9.8c2.3,2.8,5.1,5.1,8.4,6.8c3.3,1.7,7,2.5,11.1,2.5c4.2,0,8-0.9,11.3-2.7c3.3-1.8,6-4.1,8.3-7
		c2.3-2.9,4-6.2,5.2-9.8c1.2-3.6,1.8-7.3,1.8-11.1c0-4-0.6-7.8-1.9-11.5c-1.3-3.7-3-6.9-5.4-9.7c-2.3-2.8-5.1-5-8.4-6.7
		c-3.3-1.7-6.9-2.5-10.9-2.5c-4.2,0-8,0.9-11.3,2.7c-3.3,1.8-6.1,4.1-8.4,6.9c-2.3,2.8-4,6.1-5.3,9.7
		C186.5,390.1,185.9,393.8,185.9,397.6z"/>
	<path class="st17" d="M297.5,380.5v59h-13.2v-83.8h10.4l47.9,60.4v-60.3h13.3v83.7h-11L297.5,380.5z"/>
	<path class="st17" d="M427.3,440.1c-6,0-11.4-1.2-16.3-3.6c-4.9-2.4-9.1-5.6-12.7-9.6c-3.5-4-6.3-8.5-8.2-13.6
		c-1.9-5.1-2.9-10.3-2.9-15.7c0-5.6,1-10.9,3.1-16c2-5.1,4.9-9.6,8.4-13.6c3.6-3.9,7.8-7.1,12.7-9.4c4.9-2.3,10.3-3.5,16.1-3.5
		c6,0,11.4,1.2,16.3,3.7c4.9,2.5,9.1,5.7,12.6,9.7c3.5,4,6.2,8.6,8.1,13.6c1.9,5.1,2.9,10.2,2.9,15.5c0,5.6-1,10.9-3,16
		c-2,5.1-4.8,9.6-8.4,13.5c-3.6,3.9-7.9,7-12.8,9.3C438.3,438.9,433,440.1,427.3,440.1z M400.6,397.6c0,3.9,0.6,7.7,1.9,11.4
		c1.3,3.7,3,7,5.4,9.8c2.3,2.8,5.1,5.1,8.4,6.8c3.3,1.7,7,2.5,11.1,2.5c4.2,0,8-0.9,11.3-2.7c3.3-1.8,6-4.1,8.3-7
		c2.3-2.9,4-6.2,5.2-9.8c1.2-3.6,1.8-7.3,1.8-11.1c0-4-0.6-7.8-1.9-11.5c-1.3-3.7-3-6.9-5.4-9.7c-2.3-2.8-5.1-5-8.4-6.7
		c-3.3-1.7-6.9-2.5-10.9-2.5c-4.2,0-8,0.9-11.3,2.7c-3.3,1.8-6.1,4.1-8.4,6.9c-2.3,2.8-4,6.1-5.3,9.7
		C401.2,390.1,400.6,393.8,400.6,397.6z"/>
	<path class="st17" d="M493.6,397c0-5,0.9-10,2.7-15c1.8-5,4.5-9.5,8-13.5c3.5-4,7.8-7.2,12.8-9.6c5-2.4,10.7-3.7,17.1-3.7
		c7.6,0,14.2,1.7,19.6,5.1c5.4,3.4,9.5,7.8,12.3,13.2l-10.4,7c-1.2-2.5-2.6-4.6-4.2-6.4c-1.7-1.7-3.5-3.1-5.4-4.1
		c-2-1-4-1.8-6.1-2.2c-2.1-0.4-4.2-0.6-6.1-0.6c-4.4,0-8.3,0.9-11.6,2.7c-3.3,1.8-6.1,4.1-8.3,7c-2.2,2.9-3.9,6.2-5.1,9.8
		c-1.1,3.6-1.7,7.2-1.7,10.9c0,4.1,0.7,8,2,11.7c1.3,3.7,3.2,7,5.6,9.8c2.4,2.8,5.3,5.1,8.6,6.8c3.3,1.7,6.9,2.5,10.9,2.5
		c2,0,4.1-0.3,6.3-0.8c2.2-0.5,4.2-1.3,6.3-2.5c2-1.1,3.9-2.6,5.5-4.3c1.7-1.7,3.1-3.8,4.2-6.3l11,6.3c-1.3,3.1-3.2,5.9-5.7,8.3
		c-2.4,2.4-5.2,4.4-8.3,6.1s-6.3,2.9-9.7,3.8s-6.8,1.3-10.1,1.3c-5.9,0-11.3-1.3-16.2-3.8c-4.9-2.5-9.1-5.8-12.6-9.9
		c-3.5-4.1-6.3-8.7-8.3-13.8C494.5,407.6,493.6,402.4,493.6,397z"/>
	<path class="st17" d="M597.3,439.5v-83.8h13.2v72.1h45v11.7H597.3z"/>
	<path class="st17" d="M741.4,427.8v11.7h-57.5v-83.8h56.4v11.7h-43.2v23.8h37.4v11h-37.4v25.6H741.4z"/>
</g>
<g>
	<path class="st16" d="M730,186.5c0,0-14,0-30.8,0c-16.8,0-35.4-22.7-41.5-50.5c-6.1-27.8-15.8-27-21.6,1.7l-11.3,55.8
		c-5.8,28.7-16.5,29-23.6,0.6l-6.6-26.3c-7.2-28.4-15.7-35.8-19-16.4c-3.3,19.4-12.8,35.2-21.1,35.1c-8.4,0-15-0.1-15-0.1"/>
</g>
<path class="st18" d="M378.5,49.6c-67.7,9.1-119.9,67-119.9,137.2c0,76.5,62,138.4,138.5,138.4c76.5,0,138.5-62,138.5-138.4
	c0-67.5-48.3-123.7-112.2-136"/>
<path class="st19" d="M411.8,49.5c0,5.9-4.8,10.7-10.7,10.7c-5.9,0-10.7-4.8-10.7-10.7c0-5.9,4.8-10.7,10.7-10.7
	C407,38.7,411.8,43.6,411.8,49.5z"/>
<line class="st20" x1="400.5" y1="82" x2="400.5" y2="65"/>
<g>
	<path class="st21" d="M383.8,88.6c7.2,9,25.5,9,32.7,0"/>
</g>
<g>
	<path class="st22" d="M366.5,96.6c15.3,19.2,54.4,19.2,69.7,0"/>
</g>
<line class="st20" x1="400.5" y1="32" x2="400.5" y2="15"/>
</svg>
